LambdaSerif-Regular.ufo
<glyph name="exclam" format="2">
  <advance width="288"/>
  <unicode hex="0021"/>
  <outline>
    <contour>
      <point x="144.0" y="658.0" type="curve" smooth="yes"/>
      <point x="168.0" y="658.0"/>
      <point x="197.0" y="639.0"/>
      <point x="197.0" y="585.0" type="curve" smooth="yes"/>
      <point x="197.0" y="520.0"/>
      <point x="183.0" y="478.0"/>
      <point x="173.0" y="392.0" type="curve" smooth="yes"/>
      <point x="160.0" y="284.0"/>
      <point x="160.0" y="224.0"/>
      <point x="158.0" y="210.0" type="curve" smooth="yes"/>
      <point x="157.0" y="199.0"/>
      <point x="154.0" y="190.0"/>
      <point x="144.0" y="190.0" type="curve" smooth="yes"/>
      <point x="134.0" y="190.0"/>
      <point x="131.0" y="197.0"/>
      <point x="130.0" y="203.0" type="curve" smooth="yes"/>
      <point x="128.0" y="224.0"/>
      <point x="122.0" y="314.0"/>
      <point x="114.0" y="392.0" type="curve" smooth="yes"/>
      <point x="105.0" y="480.0"/>
      <point x="91.0" y="515.0"/>
      <point x="91.0" y="585.0" type="curve" smooth="yes"/>
      <point x="91.0" y="639.0"/>
      <point x="120.0" y="658.0"/>
    </contour>
    <component base="period" xOffset="34.0"/>
  </outline>
</glyph>
<glyph name="numbersign" format="2">
  <advance width="465"/>
  <unicode hex="0023"/>
  <outline>
    <contour>
      <point x="279.0" y="245.0" type="line"/>
      <point x="297.0" y="360.0" type="line"/>
      <point x="184.0" y="360.0" type="line"/>
      <point x="165.0" y="245.0" type="line"/>
    </contour>
    <contour>
      <point x="335.0" y="360.0" type="line"/>
      <point x="316.0" y="245.0" type="line"/>
      <point x="411.0" y="245.0" type="line"/>
      <point x="404.0" y="192.0" type="line"/>
      <point x="310.0" y="192.0" type="line"/>
      <point x="280.0" y="14.0" type="line"/>
      <point x="242.0" y="14.0" type="line"/>
      <point x="269.0" y="192.0" type="line"/>
      <point x="157.0" y="192.0" type="line"/>
      <point x="128.0" y="14.0" type="line"/>
      <point x="91.0" y="14.0" type="line"/>
      <point x="119.0" y="192.0" type="line"/>
      <point x="26.0" y="192.0" type="line"/>
      <point x="34.0" y="245.0" type="line"/>
      <point x="128.0" y="245.0" type="line"/>
      <point x="146.0" y="360.0" type="line"/>
      <point x="53.0" y="360.0" type="line"/>
      <point x="61.0" y="413.0" type="line"/>
      <point x="154.0" y="413.0" type="line"/>
      <point x="183.0" y="592.0" type="line"/>
      <point x="221.0" y="592.0" type="line"/>
      <point x="191.0" y="413.0" type="line"/>
      <point x="305.0" y="413.0" type="line"/>
      <point x="333.0" y="592.0" type="line"/>
      <point x="371.0" y="592.0" type="line"/>
      <point x="342.0" y="413.0" type="line"/>
      <point x="438.0" y="413.0" type="line"/>
      <point x="430.0" y="360.0" type="line"/>
    </contour>
  </outline>
</glyph>
<glyph name="dollar" format="2">
  <advance width="465"/>
  <unicode hex="0024"/>
  <outline>
    <contour>
      <point x="207.1" y="366.7" type="curve"/>
      <point x="218.7" y="578.0" type="line"/>
      <point x="164.3" y="577.2"/>
      <point x="118.0" y="527.6"/>
      <point x="118.0" y="476.0" type="curve" smooth="yes"/>
      <point x="118.0" y="422.3"/>
      <point x="161.9" y="389.0"/>
    </contour>
    <contour>
      <point x="238.3" y="267.6" type="curve"/>
      <point x="224.9" y="24.0" type="line"/>
      <point x="297.7" y="24.7"/>
      <point x="339.0" y="64.7"/>
      <point x="339.0" y="139.0" type="curve" smooth="yes"/>
      <point x="339.0" y="217.4"/>
      <point x="288.5" y="247.2"/>
    </contour>
    <contour>
      <point x="371.0" y="585.0" type="curve"/>
      <point x="381.0" y="536.0"/>
      <point x="385.0" y="510.0"/>
      <point x="388.0" y="465.0" type="curve"/>
      <point x="380.0" y="458.0"/>
      <point x="368.0" y="459.0"/>
      <point x="357.0" y="459.0" type="curve"/>
      <point x="340.7" y="511.2"/>
      <point x="317.9" y="561.3"/>
      <point x="255.2" y="574.6" type="curve"/>
      <point x="242.9" y="350.9" type="line"/>
      <point x="261.2" y="343.6"/>
      <point x="277.7" y="337.9"/>
      <point x="289.0" y="333.0" type="curve" smooth="yes"/>
      <point x="356.0" y="304.0"/>
      <point x="417.0" y="260.0"/>
      <point x="417.0" y="171.0" type="curve" smooth="yes"/>
      <point x="417.0" y="112.0"/>
      <point x="383.0" y="54.0"/>
      <point x="330.0" y="21.0" type="curve" smooth="yes"/>
      <point x="300.1" y="2.3"/>
      <point x="262.2" y="-7.7"/>
      <point x="223.1" y="-8.9" type="curve"/>
      <point x="218.5" y="-93.2" type="line"/>
      <point x="211.2" y="-97.4"/>
      <point x="191.6" y="-98.3"/>
      <point x="181.6" y="-98.3" type="curve"/>
      <point x="186.5" y="-8.1" type="line"/>
      <point x="125.2" y="-4.1"/>
      <point x="99.7" y="12.0"/>
      <point x="48.0" y="12.0" type="curve"/>
      <point x="37.0" y="58.0"/>
      <point x="33.0" y="81.0"/>
      <point x="29.0" y="153.0" type="curve"/>
      <point x="38.0" y="158.0"/>
      <point x="48.0" y="160.0"/>
      <point x="59.0" y="156.0" type="curve"/>
      <point x="77.1" y="76.0"/>
      <point x="121.1" y="35.9"/>
      <point x="188.4" y="26.3" type="curve"/>
      <point x="202.4" y="281.4" type="line"/>
      <point x="196.7" y="283.6"/>
      <point x="191.2" y="285.8"/>
      <point x="186.0" y="288.0" type="curve" smooth="yes"/>
      <point x="114.0" y="319.0"/>
      <point x="51.0" y="364.0"/>
      <point x="51.0" y="451.0" type="curve" smooth="yes"/>
      <point x="51.0" y="547.3"/>
      <point x="129.6" y="606.8"/>
      <point x="220.4" y="609.9" type="curve"/>
      <point x="224.8" y="689.5" type="line"/>
      <point x="234.0" y="693.0"/>
      <point x="249.0" y="694.5"/>
      <point x="261.8" y="694.5" type="curve"/>
      <point x="257.1" y="609.3" type="line"/>
      <point x="319.4" y="605.9"/>
      <point x="323.5" y="591.2"/>
    </contour>
  </outline>
</glyph>
<glyph name="percent" format="2">
  <advance width="637"/>
  <unicode hex="0025"/>
  <outline>
    <contour>
      <point x="433.0" y="83.0" type="curve" smooth="yes"/>
      <point x="433.0" y="31.0"/>
      <point x="458.0" y="19.0"/>
      <point x="477.0" y="19.0" type="curve" smooth="yes"/>
      <point x="532.0" y="19.0"/>
      <point x="565.0" y="108.0"/>
      <point x="565.0" y="164.0" type="curve" smooth="yes"/>
      <point x="565.0" y="216.0"/>
      <point x="537.0" y="225.0"/>
      <point x="523.0" y="225.0" type="curve" smooth="yes"/>
      <point x="474.0" y="225.0"/>
      <point x="433.0" y="141.0"/>
    </contour>
    <contour>
      <point x="378.0" y="98.0" type="curve" smooth="yes"/>
      <point x="378.0" y="180.0"/>
      <point x="438.0" y="256.0"/>
      <point x="512.0" y="256.0" type="curve" smooth="yes"/>
      <point x="552.0" y="256.0"/>
      <point x="598.0" y="238.0"/>
      <point x="598.0" y="165.0" type="curve" smooth="yes"/>
      <point x="598.0" y="98.0"/>
      <point x="554.0" y="-12.0"/>
      <point x="471.0" y="-12.0" type="curve" smooth="yes"/>
      <point x="410.0" y="-12.0"/>
      <point x="378.0" y="45.0"/>
    </contour>
    <contour>
      <point x="364.0" y="521.0" type="curve" smooth="yes"/>
      <point x="406.0" y="521.0"/>
      <point x="483.0" y="533.0"/>
      <point x="514.0" y="575.0" type="curve"/>
      <point x="546.0" y="559.0" type="line"/>
      <point x="136.0" y="-12.0" type="line"/>
      <point x="102.0" y="3.0" type="line"/>
      <point x="461.0" y="503.0" type="line"/>
      <point x="423.0" y="488.0"/>
      <point x="384.0" y="484.0"/>
      <point x="354.0" y="484.0" type="curve" smooth="yes"/>
      <point x="331.0" y="484.0"/>
      <point x="293.0" y="494.0"/>
      <point x="274.0" y="505.0" type="curve"/>
      <point x="276.0" y="498.0"/>
      <point x="277.0" y="489.0"/>
      <point x="277.0" y="480.0" type="curve" smooth="yes"/>
      <point x="277.0" y="416.0"/>
      <point x="233.0" y="303.0"/>
      <point x="149.0" y="303.0" type="curve" smooth="yes"/>
      <point x="87.0" y="303.0"/>
      <point x="57.0" y="361.0"/>
      <point x="57.0" y="412.0" type="curve" smooth="yes"/>
      <point x="57.0" y="500.1"/>
      <point x="118.0" y="571.0"/>
      <point x="190.0" y="571.0" type="curve" smooth="yes"/>
      <point x="218.0" y="571.0"/>
      <point x="247.0" y="558.0"/>
      <point x="257.0" y="546.0" type="curve"/>
      <point x="311.0" y="521.0"/>
      <point x="346.0" y="521.0"/>
    </contour>
    <contour>
      <point x="111.0" y="398.0" type="curve" smooth="yes"/>
      <point x="111.0" y="346.0"/>
      <point x="137.0" y="334.0"/>
      <point x="155.0" y="334.0" type="curve" smooth="yes"/>
      <point x="210.0" y="334.0"/>
      <point x="244.0" y="421.0"/>
      <point x="244.0" y="479.0" type="curve" smooth="yes"/>
      <point x="244.0" y="529.0"/>
      <point x="219.0" y="540.0"/>
      <point x="201.0" y="540.0" type="curve" smooth="yes"/>
      <point x="152.0" y="540.0"/>
      <point x="111.0" y="456.0"/>
    </contour>
  </outline>
</glyph>
<glyph name="ampersand" format="2">
  <advance width="705"/>
  <unicode hex="0026"/>
  <outline>
    <contour>
      <point x="250.0" y="338.0" type="curve"/>
      <point x="147.0" y="281.0"/>
      <point x="125.0" y="227.0"/>
      <point x="125.0" y="156.0" type="curve" smooth="yes"/>
      <point x="125.0" y="58.0"/>
      <point x="179.0" y="23.0"/>
      <point x="242.0" y="23.0" type="curve" smooth="yes"/>
      <point x="313.0" y="23.0"/>
      <point x="349.0" y="59.0"/>
      <point x="398.0" y="126.0" type="curve"/>
      <point x="341.0" y="201.0"/>
      <point x="261.0" y="317.0"/>
    </contour>
    <contour>
      <point x="421.0" y="94.0" type="line"/>
      <point x="375.0" y="31.0"/>
      <point x="320.0" y="-10.0"/>
      <point x="235.0" y="-10.0" type="curve" smooth="yes"/>
      <point x="128.0" y="-10.0"/>
      <point x="43.0" y="34.0"/>
      <point x="43.0" y="156.0" type="curve" smooth="yes"/>
      <point x="43.0" y="235.0"/>
      <point x="96.0" y="302.0"/>
      <point x="228.0" y="376.0" type="curve"/>
      <point x="191.0" y="440.0"/>
      <point x="177.0" y="479.0"/>
      <point x="177.0" y="517.0" type="curve" smooth="yes"/>
      <point x="177.0" y="576.0"/>
      <point x="231.0" y="647.0"/>
      <point x="331.0" y="647.0" type="curve" smooth="yes"/>
      <point x="401.0" y="647.0"/>
      <point x="459.0" y="602.0"/>
      <point x="459.0" y="539.0" type="curve" smooth="yes"/>
      <point x="459.0" y="484.0"/>
      <point x="393.0" y="419.0"/>
      <point x="310.0" y="371.0" type="curve"/>
      <point x="314.0" y="363.0" type="line"/>
      <point x="332.0" y="332.0"/>
      <point x="390.0" y="249.0"/>
      <point x="436.0" y="187.0" type="curve"/>
      <point x="472.1" y="240.3"/>
      <point x="496.3" y="283.1"/>
      <point x="513.4" y="315.0" type="curve" smooth="yes"/>
      <point x="551.0" y="385.0"/>
      <point x="536.1" y="390.3"/>
      <point x="482.0" y="393.0" type="curve"/>
      <point x="476.0" y="399.0"/>
      <point x="476.0" y="420.0"/>
      <point x="482.0" y="426.0" type="curve"/>
      <point x="502.0" y="425.0"/>
      <point x="543.0" y="424.0"/>
      <point x="577.0" y="424.0" type="curve" smooth="yes"/>
      <point x="611.0" y="424.0"/>
      <point x="641.0" y="425.0"/>
      <point x="661.0" y="426.0" type="curve"/>
      <point x="667.0" y="420.0"/>
      <point x="667.0" y="399.0"/>
      <point x="661.0" y="393.0" type="curve"/>
      <point x="599.8" y="389.2"/>
      <point x="593.0" y="384.0"/>
      <point x="547.0" y="302.0" type="curve" smooth="yes"/>
      <point x="520.1" y="254.0"/>
      <point x="497.6" y="214.0"/>
      <point x="458.0" y="157.0" type="curve"/>
      <point x="494.0" y="107.0" type="line" smooth="yes"/>
      <point x="525.0" y="64.0"/>
      <point x="555.0" y="44.0"/>
      <point x="571.0" y="44.0" type="curve" smooth="yes"/>
      <point x="604.0" y="44.0"/>
      <point x="627.0" y="59.0"/>
      <point x="647.0" y="98.0" type="curve"/>
      <point x="658.0" y="98.0"/>
      <point x="662.8" y="93.4"/>
      <point x="668.0" y="88.0" type="curve"/>
      <point x="645.0" y="18.0"/>
      <point x="600.0" y="-10.0"/>
      <point x="565.0" y="-10.0" type="curve" smooth="yes"/>
      <point x="534.0" y="-10.0"/>
      <point x="497.0" y="-8.0"/>
      <point x="450.0" y="57.0" type="curve"/>
    </contour>
    <contour>
      <point x="289.0" y="409.0" type="curve"/>
      <point x="353.0" y="451.0"/>
      <point x="390.0" y="503.0"/>
      <point x="390.0" y="539.0" type="curve" smooth="yes"/>
      <point x="390.0" y="584.0"/>
      <point x="367.0" y="614.0"/>
      <point x="326.0" y="614.0" type="curve" smooth="yes"/>
      <point x="300.0" y="614.0"/>
      <point x="251.0" y="585.0"/>
      <point x="251.0" y="519.0" type="curve" smooth="yes"/>
      <point x="251.0" y="496.0"/>
      <point x="263.0" y="458.0"/>
    </contour>
  </outline>
</glyph>
<glyph name="quotesingle" format="2">
  <advance width="190"/>
  <unicode hex="0027"/>
  <outline>
    <contour>
      <point x="79.0" y="426.0" type="line"/>
      <point x="79.0" y="426.0"/>
      <point x="53.0" y="585.0"/>
      <point x="53.0" y="594.0" type="curve" smooth="yes"/>
      <point x="53.0" y="616.0"/>
      <point x="74.0" y="644.0"/>
      <point x="104.0" y="644.0" type="curve" smooth="yes"/>
      <point x="130.0" y="644.0"/>
      <point x="139.0" y="627.0"/>
      <point x="139.0" y="611.0" type="curve" smooth="yes"/>
      <point x="139.0" y="595.0"/>
      <point x="106.0" y="430.0"/>
      <point x="106.0" y="430.0" type="curve"/>
    </contour>
  </outline>
</glyph>
<glyph name="parenleft" format="2">
  <advance width="298"/>
  <unicode hex="0028"/>
  <outline>
    <contour>
      <point x="44.0" y="252.0" type="curve" smooth="yes"/>
      <point x="44.0" y="438.0"/>
      <point x="137.0" y="605.0"/>
      <point x="256.0" y="707.0" type="curve"/>
      <point x="267.4" y="706.2"/>
      <point x="273.6" y="699.3"/>
      <point x="277.0" y="689.0" type="curve"/>
      <point x="245.0" y="653.0"/>
      <point x="127.0" y="515.0"/>
      <point x="127.0" y="252.0" type="curve" smooth="yes"/>
      <point x="127.0" y="-11.0"/>
      <point x="244.0" y="-149.0"/>
      <point x="277.0" y="-187.0" type="curve"/>
      <point x="274.0" y="-195.0"/>
      <point x="266.0" y="-202.0"/>
      <point x="256.0" y="-204.0" type="curve"/>
      <point x="48.0" y="-24.0"/>
      <point x="44.0" y="207.0"/>
    </contour>
  </outline>
</glyph>
<glyph name="parenright" format="2">
  <advance width="298"/>
  <unicode hex="0029"/>
  <outline>
    <contour>
      <point x="254.0" y="252.0" type="curve" smooth="yes"/>
      <point x="254.0" y="66.0"/>
      <point x="161.0" y="-101.0"/>
      <point x="42.0" y="-203.0" type="curve"/>
      <point x="30.6" y="-202.2"/>
      <point x="24.4" y="-195.3"/>
      <point x="21.0" y="-185.0" type="curve"/>
      <point x="53.0" y="-149.0"/>
      <point x="171.0" y="-11.0"/>
      <point x="171.0" y="252.0" type="curve" smooth="yes"/>
      <point x="171.0" y="515.0"/>
      <point x="54.0" y="653.0"/>
      <point x="21.0" y="691.0" type="curve"/>
      <point x="24.0" y="699.0"/>
      <point x="32.0" y="706.0"/>
      <point x="42.0" y="708.0" type="curve"/>
      <point x="250.0" y="528.0"/>
      <point x="254.0" y="297.0"/>
    </contour>
  </outline>
</glyph>
<glyph name="asterisk" format="2">
  <advance width="369"/>
  <unicode hex="002A"/>
  <outline>
    <contour>
      <point x="168.0" y="547.0" type="curve"/>
      <point x="155.0" y="550.0"/>
      <point x="141.0" y="551.0"/>
      <point x="126.0" y="551.0" type="curve" smooth="yes"/>
      <point x="77.0" y="551.0"/>
      <point x="45.0" y="558.0"/>
      <point x="45.0" y="588.0" type="curve" smooth="yes"/>
      <point x="45.0" y="602.0"/>
      <point x="54.0" y="618.0"/>
      <point x="78.0" y="618.0" type="curve" smooth="yes"/>
      <point x="112.0" y="618.0"/>
      <point x="130.0" y="585.0"/>
      <point x="174.0" y="567.0" type="curve"/>
      <point x="170.0" y="606.0"/>
      <point x="151.0" y="633.0"/>
      <point x="151.0" y="659.0" type="curve" smooth="yes"/>
      <point x="151.0" y="680.0"/>
      <point x="163.0" y="698.0"/>
      <point x="181.0" y="698.0" type="curve" smooth="yes"/>
      <point x="199.0" y="698.0"/>
      <point x="214.0" y="687.0"/>
      <point x="214.0" y="663.0" type="curve" smooth="yes"/>
      <point x="214.0" y="636.0"/>
      <point x="197.0" y="596.0"/>
      <point x="195.0" y="566.0" type="curve"/>
      <point x="241.0" y="586.0"/>
      <point x="257.0" y="618.0"/>
      <point x="290.0" y="618.0" type="curve" smooth="yes"/>
      <point x="317.0" y="618.0"/>
      <point x="324.0" y="598.0"/>
      <point x="324.0" y="588.0" type="curve" smooth="yes"/>
      <point x="324.0" y="558.0"/>
      <point x="289.0" y="551.0"/>
      <point x="255.0" y="551.0" type="curve" smooth="yes"/>
      <point x="236.0" y="551.0"/>
      <point x="218.0" y="550.0"/>
      <point x="200.0" y="547.0" type="curve"/>
      <point x="234.0" y="510.0"/>
      <point x="283.0" y="500.0"/>
      <point x="283.0" y="460.0" type="curve" smooth="yes"/>
      <point x="283.0" y="442.0"/>
      <point x="268.0" y="431.0"/>
      <point x="254.0" y="431.0" type="curve" smooth="yes"/>
      <point x="215.0" y="431.0"/>
      <point x="208.0" y="496.0"/>
      <point x="183.0" y="535.0" type="curve"/>
      <point x="158.0" y="490.0"/>
      <point x="151.0" y="431.0"/>
      <point x="113.0" y="431.0" type="curve" smooth="yes"/>
      <point x="96.0" y="431.0"/>
      <point x="84.0" y="444.0"/>
      <point x="84.0" y="459.0" type="curve" smooth="yes"/>
      <point x="84.0" y="502.0"/>
      <point x="135.0" y="510.0"/>
    </contour>
  </outline>
</glyph>
<glyph name="plus" format="2">
  <advance width="550"/>
  <unicode hex="002B"/>
  <outline>
    <contour>
      <point x="250.0" y="435.0" type="line" smooth="yes"/>
      <point x="250.0" y="448.0"/>
      <point x="273.0" y="462.0"/>
      <point x="283.0" y="462.0" type="curve" smooth="yes"/>
      <point x="291.0" y="462.0"/>
      <point x="300.0" y="458.0"/>
      <point x="300.0" y="448.0" type="curve" smooth="yes"/>
      <point x="300.0" y="276.0" type="line"/>
      <point x="476.0" y="276.0" type="line" smooth="yes"/>
      <point x="486.0" y="276.0"/>
      <point x="490.0" y="267.0"/>
      <point x="490.0" y="259.0" type="curve" smooth="yes"/>
      <point x="490.0" y="249.0"/>
      <point x="476.0" y="226.0"/>
      <point x="463.0" y="226.0" type="curve" smooth="yes"/>
      <point x="300.0" y="226.0" type="line"/>
      <point x="300.0" y="66.0" type="line" smooth="yes"/>
      <point x="300.0" y="54.0"/>
      <point x="281.0" y="41.0"/>
      <point x="266.0" y="41.0" type="curve" smooth="yes"/>
      <point x="258.0" y="41.0"/>
      <point x="250.0" y="47.0"/>
      <point x="250.0" y="56.0" type="curve" smooth="yes"/>
      <point x="250.0" y="226.0" type="line"/>
      <point x="75.0" y="226.0" type="line" smooth="yes"/>
      <point x="66.0" y="226.0"/>
      <point x="60.0" y="234.0"/>
      <point x="60.0" y="242.0" type="curve" smooth="yes"/>
      <point x="60.0" y="257.0"/>
      <point x="73.0" y="276.0"/>
      <point x="85.0" y="276.0" type="curve" smooth="yes"/>
      <point x="250.0" y="276.0" type="line"/>
    </contour>
  </outline>
</glyph>
<glyph name="comma" format="2">
  <advance width="220"/>
  <unicode hex="002C"/>
  <outline>
    <contour>
      <point x="104.0" y="95.0" type="curve" smooth="yes"/>
      <point x="144.0" y="95.0"/>
      <point x="170.0" y="56.0"/>
      <point x="170.0" y="-4.0" type="curve" smooth="yes"/>
      <point x="170.0" y="-74.0"/>
      <point x="112.0" y="-122.0"/>
      <point x="52.0" y="-133.0" type="curve"/>
      <point x="45.0" y="-126.0"/>
      <point x="43.0" y="-119.0"/>
      <point x="43.0" y="-109.0" type="curve"/>
      <point x="95.0" y="-96.0"/>
      <point x="131.0" y="-50.0"/>
      <point x="131.0" y="-29.0" type="curve" smooth="yes"/>
      <point x="131.0" y="-6.0"/>
      <point x="114.0" y="0.0"/>
      <point x="95.0" y="2.0" type="curve"/>
      <point x="77.0" y="5.0"/>
      <point x="51.0" y="14.5"/>
      <point x="51.0" y="46.0" type="curve" smooth="yes"/>
      <point x="51.0" y="74.0"/>
      <point x="73.0" y="95.0"/>
    </contour>
  </outline>
</glyph>
<glyph name="hyphen" format="2">
  <advance width="338"/>
  <unicode hex="002D"/>
  <outline>
    <contour>
      <point x="271.0" y="223.0" type="curve" smooth="yes"/>
      <point x="55.0" y="223.0" type="line" smooth="yes"/>
      <point x="46.0" y="223.0"/>
      <point x="40.0" y="232.0"/>
      <point x="40.0" y="242.0" type="curve" smooth="yes"/>
      <point x="40.0" y="260.0"/>
      <point x="53.0" y="283.0"/>
      <point x="65.0" y="283.0" type="curve" smooth="yes"/>
      <point x="284.0" y="283.0" type="line" smooth="yes"/>
      <point x="294.0" y="283.0"/>
      <point x="298.0" y="273.0"/>
      <point x="298.0" y="263.0" type="curve" smooth="yes"/>
      <point x="298.0" y="251.0"/>
      <point x="284.0" y="223.0"/>
    </contour>
  </outline>
</glyph>
<glyph name="period" format="2">
  <advance width="220"/>
  <unicode hex="002E"/>
  <outline>
    <contour>
      <point x="57.0" y="43.0" type="curve" smooth="yes"/>
      <point x="57.0" y="72.0"/>
      <point x="81.0" y="96.0"/>
      <point x="110.0" y="96.0" type="curve" smooth="yes"/>
      <point x="139.0" y="96.0"/>
      <point x="163.0" y="72.0"/>
      <point x="163.0" y="43.0" type="curve" smooth="yes"/>
      <point x="163.0" y="14.0"/>
      <point x="139.0" y="-10.0"/>
      <point x="110.0" y="-10.0" type="curve" smooth="yes"/>
      <point x="81.0" y="-10.0"/>
      <point x="57.0" y="14.0"/>
    </contour>
  </outline>
</glyph>
<glyph name="slash" format="2">
  <advance width="323"/>
  <unicode hex="002F"/>
  <outline>
    <contour>
      <point x="293.0" y="646.0" type="line"/>
      <point x="56.0" y="-59.0" type="line"/>
      <point x="15.0" y="-59.0" type="line"/>
      <point x="252.0" y="646.0" type="line"/>
    </contour>
  </outline>
</glyph>
<glyph name="zero" format="2">
  <advance width="465"/>
  <unicode hex="0030"/>
  <outline>
    <contour>
      <point x="232.0" y="575.0" type="curve" smooth="yes"/>
      <point x="187.0" y="575.0"/>
      <point x="126.0" y="529.0"/>
      <point x="126.0" y="283.0" type="curve" smooth="yes"/>
      <point x="126.0" y="196.0"/>
      <point x="136.0" y="25.0"/>
      <point x="229.0" y="25.0" type="curve" smooth="yes"/>
      <point x="247.0" y="25.0"/>
      <point x="296.0" y="34.0"/>
      <point x="318.0" y="116.0" type="curve" smooth="yes"/>
      <point x="332.0" y="167.0"/>
      <point x="335.0" y="230.0"/>
      <point x="335.0" y="322.0" type="curve" smooth="yes"/>
      <point x="335.0" y="456.0"/>
      <point x="308.0" y="532.0"/>
      <point x="277.0" y="558.0" type="curve" smooth="yes"/>
      <point x="265.0" y="569.0"/>
      <point x="249.0" y="575.0"/>
    </contour>
    <contour>
      <point x="228.0" y="-10.0" type="curve" smooth="yes"/>
      <point x="189.3" y="-10.0"/>
      <point x="155.0" y="3.6"/>
      <point x="126.6" y="32.0" type="curve" smooth="yes"/>
      <point x="71.9" y="86.5"/>
      <point x="39.0" y="187.4"/>
      <point x="39.0" y="294.0" type="curve" smooth="yes"/>
      <point x="39.0" y="492.0"/>
      <point x="133.0" y="610.0"/>
      <point x="232.0" y="610.0" type="curve" smooth="yes"/>
      <point x="286.0" y="610.0"/>
      <point x="327.8" y="579.7"/>
      <point x="354.0" y="545.0" type="curve" smooth="yes"/>
      <point x="398.0" y="487.0"/>
      <point x="422.0" y="402.0"/>
      <point x="422.0" y="303.0" type="curve" smooth="yes"/>
      <point x="422.0" y="68.0"/>
      <point x="305.0" y="-10.0"/>
    </contour>
  </outline>
</glyph>
<glyph name="one" format="2">
  <advance width="465"/>
  <unicode hex="0031"/>
  <outline>
    <contour>
      <point x="288.0" y="122.0" type="line" smooth="yes"/>
      <point x="288.0" y="39.0"/>
      <point x="305.0" y="34.0"/>
      <point x="375.0" y="31.0" type="curve"/>
      <point x="381.0" y="25.0"/>
      <point x="381.0" y="4.0"/>
      <point x="375.0" y="-2.0" type="curve"/>
      <point x="325.0" y="-1.0"/>
      <point x="300.6" y="0.0"/>
      <point x="253.0" y="0.0" type="curve" smooth="yes"/>
      <point x="198.8" y="0.0"/>
      <point x="163.0" y="-1.0"/>
      <point x="114.0" y="-2.0" type="curve"/>
      <point x="108.0" y="4.0"/>
      <point x="108.0" y="25.0"/>
      <point x="114.0" y="31.0" type="curve"/>
      <point x="184.0" y="34.0"/>
      <point x="211.0" y="39.0"/>
      <point x="211.0" y="122.0" type="curve" smooth="yes"/>
      <point x="211.0" y="448.0" type="line" smooth="yes"/>
      <point x="211.0" y="482.0"/>
      <point x="207.5" y="506.0"/>
      <point x="191.0" y="506.0" type="curve" smooth="yes"/>
      <point x="172.0" y="506.0"/>
      <point x="149.5" y="500.0"/>
      <point x="104.0" y="481.0" type="curve"/>
      <point x="95.0" y="487.1"/>
      <point x="90.6" y="496.6"/>
      <point x="89.0" y="508.0" type="curve"/>
      <point x="177.0" y="549.0"/>
      <point x="229.7" y="573.7"/>
      <point x="285.0" y="608.0" type="curve"/>
      <point x="288.5" y="608.0"/>
      <point x="291.0" y="607.8"/>
      <point x="291.0" y="603.0" type="curve" smooth="yes"/>
      <point x="289.3" y="590.0"/>
      <point x="288.0" y="529.0"/>
      <point x="288.0" y="469.0" type="curve" smooth="yes"/>
    </contour>
  </outline>
</glyph>
<glyph name="two" format="2">
  <advance width="465"/>
  <unicode hex="0032"/>
  <outline>
    <contour>
      <point x="61.0" y="468.0" type="curve" smooth="yes"/>
      <point x="61.0" y="528.0"/>
      <point x="130.0" y="610.0"/>
      <point x="241.0" y="610.0" type="curve" smooth="yes"/>
      <point x="322.0" y="610.0"/>
      <point x="410.0" y="566.0"/>
      <point x="410.0" y="458.0" type="curve" smooth="yes"/>
      <point x="410.0" y="382.0"/>
      <point x="367.0" y="338.0"/>
      <point x="310.0" y="283.0" type="curve" smooth="yes"/>
      <point x="209.0" y="186.0" type="line" smooth="yes"/>
      <point x="204.0" y="181.0"/>
      <point x="135.0" y="113.0"/>
      <point x="135.0" y="65.0" type="curve"/>
      <point x="313.0" y="65.0" type="line" smooth="yes"/>
      <point x="349.0" y="65.0"/>
      <point x="366.0" y="90.0"/>
      <point x="383.0" y="161.0" type="curve"/>
      <point x="393.0" y="163.0"/>
      <point x="406.0" y="161.0"/>
      <point x="412.0" y="156.0" type="curve"/>
      <point x="411.0" y="126.0"/>
      <point x="401.0" y="51.0"/>
      <point x="388.0" y="-2.0" type="curve"/>
      <point x="388.0" y="-2.0"/>
      <point x="342.0" y="0.0"/>
      <point x="310.0" y="0.0" type="curve" smooth="yes"/>
      <point x="135.0" y="0.0" type="line" smooth="yes"/>
      <point x="103.0" y="0.0"/>
      <point x="52.0" y="-2.0"/>
      <point x="52.0" y="-2.0" type="curve"/>
      <point x="52.0" y="57.0"/>
      <point x="68.0" y="105.0"/>
      <point x="166.0" y="205.0" type="curve"/>
      <point x="240.0" y="278.0" type="line"/>
      <point x="299.0" y="338.0"/>
      <point x="322.0" y="390.0"/>
      <point x="322.0" y="454.0" type="curve" smooth="yes"/>
      <point x="322.0" y="550.0"/>
      <point x="271.0" y="575.0"/>
      <point x="235.0" y="575.0" type="curve" smooth="yes"/>
      <point x="162.0" y="575.0"/>
      <point x="136.0" y="539.0"/>
      <point x="136.0" y="514.0" type="curve" smooth="yes"/>
      <point x="136.0" y="506.0"/>
      <point x="142.0" y="497.0"/>
      <point x="144.0" y="490.0" type="curve" smooth="yes"/>
      <point x="146.0" y="483.0"/>
      <point x="148.0" y="477.0"/>
      <point x="148.0" y="469.0" type="curve" smooth="yes"/>
      <point x="148.0" y="446.9"/>
      <point x="118.0" y="429.0"/>
      <point x="101.0" y="429.0" type="curve" smooth="yes"/>
      <point x="80.0" y="429.0"/>
      <point x="61.0" y="447.0"/>
    </contour>
  </outline>
</glyph>
<glyph name="three" format="2">
  <advance width="465"/>
  <unicode hex="0033"/>
  <outline>
    <contour>
      <point x="215.0" y="575.0" type="curve" smooth="yes"/>
      <point x="189.0" y="575.0"/>
      <point x="120.0" y="563.0"/>
      <point x="120.0" y="499.0" type="curve" smooth="yes"/>
      <point x="120.0" y="480.0"/>
      <point x="116.0" y="447.0"/>
      <point x="81.0" y="447.0" type="curve" smooth="yes"/>
      <point x="57.0" y="447.0"/>
      <point x="47.0" y="467.0"/>
      <point x="47.0" y="481.0" type="curve" smooth="yes"/>
      <point x="47.0" y="514.0"/>
      <point x="89.0" y="610.0"/>
      <point x="236.0" y="610.0" type="curve" smooth="yes"/>
      <point x="288.3" y="610.0"/>
      <point x="323.2" y="593.1"/>
      <point x="345.0" y="571.0" type="curve" smooth="yes"/>
      <point x="369.3" y="546.4"/>
      <point x="376.3" y="521.9"/>
      <point x="376.3" y="491.9" type="curve" smooth="yes"/>
      <point x="376.3" y="439.2"/>
      <point x="353.3" y="397.6"/>
      <point x="271.0" y="359.0" type="curve"/>
      <point x="272.0" y="357.0" type="line"/>
      <point x="331.0" y="347.0"/>
      <point x="413.0" y="308.0"/>
      <point x="413.0" y="199.0" type="curve" smooth="yes"/>
      <point x="413.0" y="67.0"/>
      <point x="307.0" y="-10.0"/>
      <point x="188.0" y="-10.0" type="curve" smooth="yes"/>
      <point x="128.0" y="-10.0"/>
      <point x="44.0" y="17.0"/>
      <point x="44.0" y="57.0" type="curve" smooth="yes"/>
      <point x="44.0" y="73.0"/>
      <point x="65.0" y="92.0"/>
      <point x="86.0" y="92.0" type="curve" smooth="yes"/>
      <point x="106.0" y="92.0"/>
      <point x="119.0" y="80.0"/>
      <point x="129.0" y="66.0" type="curve" smooth="yes"/>
      <point x="141.0" y="48.0"/>
      <point x="150.0" y="25.0"/>
      <point x="201.0" y="25.0" type="curve" smooth="yes"/>
      <point x="236.0" y="25.0"/>
      <point x="325.0" y="52.0"/>
      <point x="325.0" y="185.0" type="curve" smooth="yes"/>
      <point x="325.0" y="298.0"/>
      <point x="251.0" y="314.0"/>
      <point x="194.0" y="314.0" type="curve" smooth="yes"/>
      <point x="181.0" y="314.0"/>
      <point x="163.0" y="314.0"/>
      <point x="146.0" y="312.0" type="curve"/>
      <point x="141.0" y="344.0" type="line"/>
      <point x="240.1" y="358.1"/>
      <point x="298.1" y="434.5"/>
      <point x="298.1" y="484.7" type="curve" smooth="yes"/>
      <point x="298.1" y="549.0"/>
      <point x="258.2" y="575.0"/>
    </contour>
  </outline>
</glyph>
<glyph name="four" format="2">
  <advance width="465"/>
  <unicode hex="0034"/>
  <outline>
    <contour>
      <point x="271.0" y="507.0" type="line"/>
      <point x="202.0" y="412.8"/>
      <point x="131.3" y="301.2"/>
      <point x="80.0" y="219.0" type="curve"/>
      <point x="271.0" y="219.0" type="line"/>
    </contour>
    <contour>
      <point x="430.0" y="219.0" type="line" smooth="yes"/>
      <point x="441.0" y="219.0"/>
      <point x="445.0" y="213.0"/>
      <point x="445.0" y="203.0" type="curve" smooth="yes"/>
      <point x="445.0" y="191.0"/>
      <point x="430.0" y="172.0"/>
      <point x="416.0" y="172.0" type="curve" smooth="yes"/>
      <point x="347.0" y="172.0" type="line"/>
      <point x="347.0" y="80.0" type="line" smooth="yes"/>
      <point x="347.0" y="33.0"/>
      <point x="368.0" y="35.0"/>
      <point x="417.0" y="31.0" type="curve"/>
      <point x="423.0" y="25.0"/>
      <point x="423.0" y="4.0"/>
      <point x="417.0" y="-2.0" type="curve"/>
      <point x="385.0" y="-1.0"/>
      <point x="347.4" y="0.0"/>
      <point x="308.0" y="0.0" type="curve" smooth="yes"/>
      <point x="262.0" y="0.0"/>
      <point x="222.0" y="-1.0"/>
      <point x="190.0" y="-2.0" type="curve"/>
      <point x="184.0" y="4.0"/>
      <point x="184.0" y="25.0"/>
      <point x="190.0" y="31.0" type="curve"/>
      <point x="233.0" y="34.0"/>
      <point x="271.0" y="34.0"/>
      <point x="271.0" y="80.0" type="curve" smooth="yes"/>
      <point x="271.0" y="172.0" type="line"/>
      <point x="67.0" y="172.0" type="line" smooth="yes"/>
      <point x="37.0" y="172.0"/>
      <point x="31.0" y="199.0"/>
      <point x="28.0" y="214.0" type="curve"/>
      <point x="119.5" y="357.0"/>
      <point x="236.0" y="521.5"/>
      <point x="299.0" y="599.0" type="curve" smooth="yes"/>
      <point x="302.7" y="603.5"/>
      <point x="308.0" y="610.0"/>
      <point x="315.0" y="610.0" type="curve" smooth="yes"/>
      <point x="347.0" y="610.0" type="line"/>
      <point x="349.0" y="608.0" type="line"/>
      <point x="347.3" y="600.2"/>
      <point x="347.0" y="561.0"/>
      <point x="347.0" y="511.0" type="curve" smooth="yes"/>
      <point x="347.0" y="219.0" type="line"/>
    </contour>
  </outline>
</glyph>
<glyph name="five" format="2">
  <advance width="465"/>
  <unicode hex="0035"/>
  <outline>
    <contour>
      <point x="319.0" y="189.0" type="curve" smooth="yes"/>
      <point x="319.0" y="298.0"/>
      <point x="268.0" y="341.0"/>
      <point x="203.0" y="341.0" type="curve" smooth="yes"/>
      <point x="167.0" y="341.0"/>
      <point x="129.0" y="337.0"/>
      <point x="76.0" y="317.0" type="curve"/>
      <point x="110.0" y="605.0" type="line"/>
      <point x="145.0" y="602.0"/>
      <point x="181.0" y="600.0"/>
      <point x="218.0" y="600.0" type="curve" smooth="yes"/>
      <point x="271.0" y="600.0"/>
      <point x="325.0" y="605.0"/>
      <point x="382.0" y="611.0" type="curve"/>
      <point x="389.0" y="607.0" type="line"/>
      <point x="373.0" y="539.0" type="line"/>
      <point x="332.0" y="535.0"/>
      <point x="298.0" y="533.0"/>
      <point x="268.0" y="533.0" type="curve" smooth="yes"/>
      <point x="220.0" y="533.0"/>
      <point x="188.0" y="538.0"/>
      <point x="151.0" y="542.0" type="curve"/>
      <point x="131.0" y="375.0" type="line"/>
      <point x="149.0" y="382.0"/>
      <point x="186.0" y="391.0"/>
      <point x="229.0" y="391.0" type="curve" smooth="yes"/>
      <point x="341.0" y="391.0"/>
      <point x="408.0" y="304.0"/>
      <point x="408.0" y="207.0" type="curve" smooth="yes"/>
      <point x="408.0" y="81.0"/>
      <point x="320.0" y="-11.0"/>
      <point x="196.0" y="-11.0" type="curve" smooth="yes"/>
      <point x="139.0" y="-11.0"/>
      <point x="54.0" y="23.0"/>
      <point x="54.0" y="64.0" type="curve" smooth="yes"/>
      <point x="54.0" y="84.0"/>
      <point x="73.0" y="101.0"/>
      <point x="92.0" y="101.0" type="curve" smooth="yes"/>
      <point x="113.0" y="101.0"/>
      <point x="130.0" y="86.0"/>
      <point x="143.0" y="69.0" type="curve" smooth="yes"/>
      <point x="158.0" y="49.0"/>
      <point x="171.0" y="24.0"/>
      <point x="209.0" y="24.0" type="curve" smooth="yes"/>
      <point x="269.0" y="24.0"/>
      <point x="319.0" y="94.0"/>
    </contour>
  </outline>
</glyph>
<glyph name="six" format="2">
  <advance width="465"/>
  <unicode hex="0036"/>
  <outline>
    <contour>
      <point x="135.2" y="307.0" type="curve"/>
      <point x="129.3" y="278.2"/>
      <point x="127.0" y="251.5"/>
      <point x="127.0" y="229.0" type="curve" smooth="yes"/>
      <point x="127.0" y="58.0"/>
      <point x="184.0" y="24.0"/>
      <point x="247.0" y="24.0" type="curve" smooth="yes"/>
      <point x="296.0" y="24.0"/>
      <point x="338.0" y="74.0"/>
      <point x="338.0" y="184.0" type="curve" smooth="yes"/>
      <point x="338.0" y="234.0"/>
      <point x="316.0" y="330.0"/>
      <point x="218.0" y="330.0" type="curve" smooth="yes"/>
      <point x="200.6" y="330.0"/>
      <point x="168.0" y="328.6"/>
    </contour>
    <contour>
      <point x="144.3" y="343.3" type="curve"/>
      <point x="174.1" y="357.0"/>
      <point x="213.0" y="365.0"/>
      <point x="239.0" y="365.0" type="curve" smooth="yes"/>
      <point x="375.0" y="365.0"/>
      <point x="421.0" y="288.0"/>
      <point x="421.0" y="202.0" type="curve" smooth="yes"/>
      <point x="421.0" y="116.0"/>
      <point x="367.0" y="-11.0"/>
      <point x="236.0" y="-11.0" type="curve" smooth="yes"/>
      <point x="159.0" y="-11.0"/>
      <point x="44.0" y="29.0"/>
      <point x="44.0" y="232.0" type="curve" smooth="yes"/>
      <point x="44.0" y="311.0"/>
      <point x="75.0" y="402.0"/>
      <point x="137.0" y="474.0" type="curve" smooth="yes"/>
      <point x="193.0" y="539.0"/>
      <point x="255.0" y="581.0"/>
      <point x="356.0" y="611.0" type="curve"/>
      <point x="364.0" y="606.0"/>
      <point x="368.0" y="597.0"/>
      <point x="368.0" y="585.0" type="curve"/>
      <point x="235.0" y="535.2"/>
      <point x="171.4" y="434.2"/>
    </contour>
  </outline>
</glyph>
<glyph name="seven" format="2">
  <advance width="465"/>
  <unicode hex="0037"/>
  <outline>
    <contour>
      <point x="170.0" y="535.0" type="line" smooth="yes"/>
      <point x="138.0" y="535.0"/>
      <point x="105.0" y="528.0"/>
      <point x="83.0" y="448.0" type="curve"/>
      <point x="72.0" y="446.7"/>
      <point x="61.9" y="447.9"/>
      <point x="51.0" y="451.0" type="curve"/>
      <point x="59.0" y="503.0"/>
      <point x="70.0" y="563.0"/>
      <point x="71.0" y="611.0" type="curve" smooth="yes"/>
      <point x="71.0" y="614.0"/>
      <point x="72.0" y="614.0"/>
      <point x="75.0" y="614.0" type="curve" smooth="yes"/>
      <point x="93.0" y="610.0"/>
      <point x="91.0" y="600.0"/>
      <point x="125.0" y="600.0" type="curve" smooth="yes"/>
      <point x="331.0" y="600.0" type="line" smooth="yes"/>
      <point x="369.0" y="600.0"/>
      <point x="391.0" y="606.0"/>
      <point x="408.0" y="611.0" type="curve"/>
      <point x="424.0" y="599.0" type="line"/>
      <point x="312.0" y="326.0"/>
      <point x="257.0" y="160.0"/>
      <point x="200.0" y="-10.0" type="curve"/>
      <point x="132.0" y="-13.0" type="line"/>
      <point x="124.0" y="-6.0" type="line"/>
      <point x="192.0" y="146.0"/>
      <point x="271.0" y="341.0"/>
      <point x="349.0" y="535.0" type="curve"/>
    </contour>
  </outline>
</glyph>
<glyph name="eight" format="2">
  <advance width="465"/>
  <unicode hex="0038"/>
  <outline>
    <contour>
      <point x="234.0" y="575.0" type="curve" smooth="yes"/>
      <point x="174.0" y="575.0"/>
      <point x="142.0" y="537.0"/>
      <point x="142.0" y="491.0" type="curve" smooth="yes"/>
      <point x="142.0" y="460.0"/>
      <point x="149.0" y="427.0"/>
      <point x="212.0" y="386.0" type="curve"/>
      <point x="243.0" y="367.0" type="line"/>
      <point x="270.0" y="387.0"/>
      <point x="323.0" y="432.0"/>
      <point x="323.0" y="486.0" type="curve" smooth="yes"/>
      <point x="323.0" y="532.0"/>
      <point x="299.0" y="575.0"/>
    </contour>
    <contour>
      <point x="393.0" y="485.0" type="curve" smooth="yes"/>
      <point x="393.0" y="421.0"/>
      <point x="317.0" y="369.0"/>
      <point x="270.0" y="346.0" type="curve"/>
      <point x="341.0" y="303.0" type="line" smooth="yes"/>
      <point x="394.1" y="270.8"/>
      <point x="419.0" y="220.0"/>
      <point x="419.0" y="162.0" type="curve" smooth="yes"/>
      <point x="419.0" y="86.0"/>
      <point x="355.0" y="-10.0"/>
      <point x="224.0" y="-10.0" type="curve" smooth="yes"/>
      <point x="118.0" y="-10.0"/>
      <point x="46.0" y="44.0"/>
      <point x="46.0" y="146.0" type="curve" smooth="yes"/>
      <point x="46.0" y="185.0"/>
      <point x="63.0" y="230.0"/>
      <point x="104.0" y="266.0" type="curve" smooth="yes"/>
      <point x="129.0" y="288.0"/>
      <point x="155.5" y="305.5"/>
      <point x="184.5" y="321.0" type="curve"/>
      <point x="159.0" y="337.0" type="line" smooth="yes"/>
      <point x="98.1" y="375.2"/>
      <point x="71.0" y="416.0"/>
      <point x="71.0" y="472.0" type="curve" smooth="yes"/>
      <point x="71.0" y="549.0"/>
      <point x="137.0" y="610.0"/>
      <point x="239.0" y="610.0" type="curve" smooth="yes"/>
      <point x="337.0" y="610.0"/>
      <point x="393.0" y="557.0"/>
    </contour>
    <contour>
      <point x="226.0" y="25.0" type="curve" smooth="yes"/>
      <point x="271.0" y="25.0"/>
      <point x="346.0" y="42.0"/>
      <point x="346.0" y="142.0" type="curve" smooth="yes"/>
      <point x="346.0" y="190.0"/>
      <point x="321.0" y="237.0"/>
      <point x="259.0" y="275.0" type="curve" smooth="yes"/>
      <point x="212.0" y="303.0" type="line"/>
      <point x="126.0" y="246.0"/>
      <point x="113.0" y="176.0"/>
      <point x="113.0" y="146.0" type="curve" smooth="yes"/>
      <point x="113.0" y="56.0"/>
      <point x="181.0" y="25.0"/>
    </contour>
  </outline>
</glyph>
<glyph name="nine" format="2">
  <advance width="465"/>
  <unicode hex="0039"/>
  <outline>
    <contour>
      <point x="335.8" y="292.0" type="curve"/>
      <point x="341.7" y="320.8"/>
      <point x="344.0" y="347.5"/>
      <point x="344.0" y="370.0" type="curve" smooth="yes"/>
      <point x="344.0" y="541.0"/>
      <point x="287.0" y="575.0"/>
      <point x="224.0" y="575.0" type="curve" smooth="yes"/>
      <point x="175.0" y="575.0"/>
      <point x="133.0" y="525.0"/>
      <point x="133.0" y="415.0" type="curve" smooth="yes"/>
      <point x="133.0" y="365.0"/>
      <point x="155.0" y="269.0"/>
      <point x="253.0" y="269.0" type="curve" smooth="yes"/>
      <point x="270.4" y="269.0"/>
      <point x="303.0" y="270.4"/>
    </contour>
    <contour>
      <point x="326.7" y="255.7" type="curve"/>
      <point x="296.9" y="242.0"/>
      <point x="258.0" y="234.0"/>
      <point x="232.0" y="234.0" type="curve" smooth="yes"/>
      <point x="96.0" y="234.0"/>
      <point x="50.0" y="311.0"/>
      <point x="50.0" y="397.0" type="curve" smooth="yes"/>
      <point x="50.0" y="483.0"/>
      <point x="104.0" y="610.0"/>
      <point x="235.0" y="610.0" type="curve" smooth="yes"/>
      <point x="312.0" y="610.0"/>
      <point x="427.0" y="570.0"/>
      <point x="427.0" y="367.0" type="curve" smooth="yes"/>
      <point x="427.0" y="288.0"/>
      <point x="396.0" y="197.0"/>
      <point x="334.0" y="125.0" type="curve" smooth="yes"/>
      <point x="278.0" y="60.0"/>
      <point x="216.0" y="18.0"/>
      <point x="115.0" y="-12.0" type="curve"/>
      <point x="107.0" y="-7.0"/>
      <point x="103.0" y="2.0"/>
      <point x="103.0" y="14.0" type="curve"/>
      <point x="236.0" y="63.8"/>
      <point x="299.6" y="164.8"/>
    </contour>
  </outline>
</glyph>
<glyph name="less" format="2">
  <advance width="550"/>
  <unicode hex="003C"/>
  <outline>
    <contour>
      <point x="138.0" y="239.0" type="line"/>
      <point x="455.0" y="123.0" type="line"/>
      <point x="468.0" y="109.0"/>
      <point x="469.0" y="79.0"/>
      <point x="455.0" y="73.0" type="curve"/>
      <point x="65.0" y="215.0" type="line"/>
      <point x="55.7" y="229.7"/>
      <point x="55.7" y="245.7"/>
      <point x="65.0" y="263.0" type="curve"/>
      <point x="455.0" y="404.0" type="line"/>
      <point x="469.0" y="398.0"/>
      <point x="468.0" y="368.0"/>
      <point x="455.0" y="354.0" type="curve"/>
    </contour>
  </outline>
</glyph>
<glyph name="equal" format="2">
  <advance width="550"/>
  <unicode hex="003D"/>
  <outline>
    <contour>
      <point x="464.0" y="309.0" type="curve" smooth="yes"/>
      <point x="75.0" y="309.0" type="line" smooth="yes"/>
      <point x="66.0" y="309.0"/>
      <point x="60.0" y="317.0"/>
      <point x="60.0" y="325.0" type="curve" smooth="yes"/>
      <point x="60.0" y="340.0"/>
      <point x="73.0" y="359.0"/>
      <point x="85.0" y="359.0" type="curve" smooth="yes"/>
      <point x="477.0" y="359.0" type="line" smooth="yes"/>
      <point x="487.0" y="359.0"/>
      <point x="491.0" y="350.0"/>
      <point x="491.0" y="342.0" type="curve" smooth="yes"/>
      <point x="491.0" y="332.0"/>
      <point x="477.0" y="309.0"/>
    </contour>
    <contour>
      <point x="464.0" y="143.0" type="curve" smooth="yes"/>
      <point x="75.0" y="143.0" type="line" smooth="yes"/>
      <point x="66.0" y="143.0"/>
      <point x="60.0" y="151.0"/>
      <point x="60.0" y="159.0" type="curve" smooth="yes"/>
      <point x="60.0" y="174.0"/>
      <point x="73.0" y="193.0"/>
      <point x="85.0" y="193.0" type="curve" smooth="yes"/>
      <point x="477.0" y="193.0" type="line" smooth="yes"/>
      <point x="487.0" y="193.0"/>
      <point x="491.0" y="184.0"/>
      <point x="491.0" y="176.0" type="curve" smooth="yes"/>
      <point x="491.0" y="166.0"/>
      <point x="477.0" y="143.0"/>
    </contour>
  </outline>
</glyph>
<glyph name="greater" format="2">
  <advance width="550"/>
  <unicode hex="003E"/>
  <outline>
    <contour>
      <point x="412.0" y="236.0" type="line"/>
      <point x="95.0" y="352.0" type="line"/>
      <point x="82.0" y="366.0"/>
      <point x="81.0" y="396.0"/>
      <point x="95.0" y="402.0" type="curve"/>
      <point x="485.0" y="260.0" type="line"/>
      <point x="494.3" y="245.3"/>
      <point x="494.3" y="229.3"/>
      <point x="485.0" y="212.0" type="curve"/>
      <point x="95.0" y="71.0" type="line"/>
      <point x="81.0" y="77.0"/>
      <point x="82.0" y="107.0"/>
      <point x="95.0" y="121.0" type="curve"/>
    </contour>
  </outline>
</glyph>
<glyph name="question" format="2">
  <advance width="435"/>
  <unicode hex="003F"/>
  <outline>
    <contour>
      <point x="114.0" y="572.0" type="curve" smooth="yes"/>
      <point x="114.0" y="557.0"/>
      <point x="116.0" y="551.0"/>
      <point x="120.0" y="546.0" type="curve" smooth="yes"/>
      <point x="124.0" y="541.0"/>
      <point x="126.0" y="535.0"/>
      <point x="126.0" y="522.0" type="curve" smooth="yes"/>
      <point x="126.0" y="499.0"/>
      <point x="106.0" y="487.0"/>
      <point x="87.0" y="487.0" type="curve" smooth="yes"/>
      <point x="71.0" y="487.0"/>
      <point x="46.0" y="495.0"/>
      <point x="46.0" y="530.0" type="curve" smooth="yes"/>
      <point x="46.0" y="568.0"/>
      <point x="67.0" y="596.0"/>
      <point x="97.0" y="620.0" type="curve"/>
      <point x="126.0" y="645.0"/>
      <point x="168.0" y="659.0"/>
      <point x="221.0" y="659.0" type="curve" smooth="yes"/>
      <point x="323.0" y="659.0"/>
      <point x="389.0" y="599.0"/>
      <point x="389.0" y="508.0" type="curve" smooth="yes"/>
      <point x="389.0" y="429.0"/>
      <point x="327.0" y="385.0"/>
      <point x="280.0" y="351.0" type="curve" smooth="yes"/>
      <point x="257.0" y="334.0"/>
      <point x="237.0" y="318.0"/>
      <point x="228.0" y="301.0" type="curve" smooth="yes"/>
      <point x="215.0" y="276.0"/>
      <point x="214.0" y="252.0"/>
      <point x="214.0" y="228.0" type="curve" smooth="yes"/>
      <point x="214.0" y="184.0" type="line" smooth="yes"/>
      <point x="214.0" y="177.0"/>
      <point x="205.0" y="174.0"/>
      <point x="197.0" y="174.0" type="curve" smooth="yes"/>
      <point x="189.0" y="174.0"/>
      <point x="181.0" y="177.0"/>
      <point x="181.0" y="184.0" type="curve" smooth="yes"/>
      <point x="181.0" y="230.0" type="line" smooth="yes"/>
      <point x="181.0" y="273.0"/>
      <point x="186.0" y="332.0"/>
      <point x="251.0" y="391.0" type="curve" smooth="yes"/>
      <point x="291.0" y="428.0"/>
      <point x="306.0" y="457.0"/>
      <point x="306.0" y="504.0" type="curve" smooth="yes"/>
      <point x="306.0" y="569.0"/>
      <point x="268.0" y="626.0"/>
      <point x="211.0" y="626.0" type="curve" smooth="yes"/>
      <point x="154.0" y="626.0"/>
      <point x="114.0" y="602.0"/>
    </contour>
    <component base="period" xOffset="87.0"/>
  </outline>
</glyph>
<glyph name="at" format="2">
  <advance width="895"/>
  <unicode hex="0040"/>
  <outline>
    <contour>
      <point x="569.0" y="316.0" type="curve" smooth="yes"/>
      <point x="569.0" y="354.0"/>
      <point x="540.0" y="379.0"/>
      <point x="504.0" y="379.0" type="curve" smooth="yes"/>
      <point x="487.0" y="379.0"/>
      <point x="444.0" y="370.0"/>
      <point x="414.0" y="339.0" type="curve" smooth="yes"/>
      <point x="363.0" y="288.0"/>
      <point x="346.0" y="224.0"/>
      <point x="346.0" y="162.0" type="curve" smooth="yes"/>
      <point x="346.0" y="114.0"/>
      <point x="361.0" y="70.0"/>
      <point x="424.0" y="70.0" type="curve" smooth="yes"/>
      <point x="459.0" y="70.0"/>
      <point x="508.0" y="127.0"/>
      <point x="539.0" y="200.0" type="curve" smooth="yes"/>
      <point x="552.0" y="231.0"/>
      <point x="569.0" y="282.0"/>
    </contour>
    <contour>
      <point x="583.0" y="74.0" type="curve" smooth="yes"/>
      <point x="583.0" y="64.0"/>
      <point x="592.0" y="62.0"/>
      <point x="594.0" y="62.0" type="curve" smooth="yes"/>
      <point x="696.0" y="62.0"/>
      <point x="759.0" y="109.0"/>
      <point x="759.0" y="275.0" type="curve" smooth="yes"/>
      <point x="759.0" y="481.0"/>
      <point x="584.0" y="580.0"/>
      <point x="459.0" y="580.0" type="curve" smooth="yes"/>
      <point x="307.0" y="580.0"/>
      <point x="139.0" y="478.0"/>
      <point x="139.0" y="241.0" type="curve" smooth="yes"/>
      <point x="139.0" y="91.0"/>
      <point x="215.0" y="-125.0"/>
      <point x="473.0" y="-125.0" type="curve" smooth="yes"/>
      <point x="558.0" y="-125.0"/>
      <point x="620.0" y="-102.0"/>
      <point x="674.0" y="-59.0" type="curve"/>
      <point x="687.0" y="-77.0" type="line"/>
      <point x="627.0" y="-123.0"/>
      <point x="567.0" y="-158.0"/>
      <point x="454.0" y="-158.0" type="curve" smooth="yes"/>
      <point x="215.0" y="-158.0"/>
      <point x="59.0" y="10.0"/>
      <point x="59.0" y="223.0" type="curve" smooth="yes"/>
      <point x="59.0" y="438.0"/>
      <point x="244.0" y="611.0"/>
      <point x="469.0" y="611.0" type="curve" smooth="yes"/>
      <point x="684.0" y="611.0"/>
      <point x="839.0" y="469.0"/>
      <point x="839.0" y="282.0" type="curve" smooth="yes"/>
      <point x="839.0" y="168.0"/>
      <point x="769.0" y="27.0"/>
      <point x="551.0" y="27.0" type="curve" smooth="yes"/>
      <point x="522.0" y="27.0"/>
      <point x="515.0" y="52.0"/>
      <point x="515.0" y="68.0" type="curve" smooth="yes"/>
      <point x="515.0" y="83.0"/>
      <point x="522.0" y="106.0"/>
      <point x="530.0" y="131.0" type="curve"/>
      <point x="528.0" y="132.0" type="line"/>
      <point x="484.0" y="58.0"/>
      <point x="430.0" y="29.0"/>
      <point x="395.0" y="29.0" type="curve" smooth="yes"/>
      <point x="295.0" y="29.0"/>
      <point x="273.0" y="113.0"/>
      <point x="273.0" y="153.0" type="curve" smooth="yes"/>
      <point x="273.0" y="296.0"/>
      <point x="400.0" y="410.0"/>
      <point x="506.0" y="410.0" type="curve" smooth="yes"/>
      <point x="539.0" y="410.0"/>
      <point x="573.0" y="393.0"/>
      <point x="583.0" y="367.0" type="curve"/>
      <point x="588.0" y="391.0" type="line"/>
      <point x="641.0" y="404.0" type="line"/>
      <point x="656.0" y="399.0" type="line"/>
      <point x="596.0" y="141.0" type="line" smooth="yes"/>
      <point x="590.0" y="114.0"/>
      <point x="583.0" y="80.5"/>
    </contour>
  </outline>
</glyph>
<glyph name="A" format="2">
  <advance width="695"/>
  <unicode hex="0041"/>
  <anchor x="308.0" y="-110.0" name="below"/>
  <anchor x="116.0" y="5.0" name="cedilla"/>
  <anchor x="354.0" y="850.0" name="above"/>
  <outline>
    <contour>
      <point x="263.0" y="283.0" type="curve" smooth="yes"/>
      <point x="440.0" y="283.0" type="line"/>
      <point x="346.0" y="555.0" type="line"/>
      <point x="340.0" y="555.0" type="line"/>
      <point x="237.8" y="296.3" type="line" smooth="yes"/>
      <point x="234.0" y="286.0"/>
      <point x="241.0" y="283.0"/>
    </contour>
    <contour>
      <point x="155.0" y="79.0" type="line" smooth="yes"/>
      <point x="139.4" y="37.9"/>
      <point x="186.4" y="33.6"/>
      <point x="224.0" y="31.0" type="curve"/>
      <point x="230.0" y="25.0"/>
      <point x="230.0" y="4.0"/>
      <point x="224.0" y="-2.0" type="curve"/>
      <point x="187.0" y="-1.0"/>
      <point x="137.0" y="0.0"/>
      <point x="96.0" y="0.0" type="curve" smooth="yes"/>
      <point x="65.7" y="0.0"/>
      <point x="33.0" y="-1.0"/>
      <point x="7.0" y="-2.0" type="curve"/>
      <point x="1.0" y="4.0"/>
      <point x="1.0" y="25.0"/>
      <point x="7.0" y="31.0" type="curve"/>
      <point x="50.5" y="34.0"/>
      <point x="81.0" y="40.0"/>
      <point x="107.0" y="102.0" type="curve" smooth="yes"/>
      <point x="334.0" y="638.0" type="line"/>
      <point x="347.0" y="638.0"/>
      <point x="374.0" y="649.0"/>
      <point x="389.0" y="658.0" type="curve"/>
      <point x="595.0" y="86.0" type="line" smooth="yes"/>
      <point x="612.4" y="37.8"/>
      <point x="646.2" y="34.5"/>
      <point x="685.0" y="31.0" type="curve"/>
      <point x="691.0" y="25.0"/>
      <point x="691.0" y="4.0"/>
      <point x="685.0" y="-2.0" type="curve"/>
      <point x="650.0" y="-1.0"/>
      <point x="612.0" y="0.0"/>
      <point x="571.0" y="0.0" type="curve" smooth="yes"/>
      <point x="532.0" y="0.0"/>
      <point x="477.0" y="-1.0"/>
      <point x="440.0" y="-2.0" type="curve"/>
      <point x="434.0" y="4.0"/>
      <point x="434.0" y="25.0"/>
      <point x="440.0" y="31.0" type="curve"/>
      <point x="487.6" y="34.4"/>
      <point x="525.8" y="37.5"/>
      <point x="514.0" y="72.0" type="curve" smooth="yes"/>
      <point x="456.0" y="241.0" type="line"/>
      <point x="245.0" y="241.0" type="line" smooth="yes"/>
      <point x="221.0" y="241.0"/>
      <point x="215.0" y="237.0"/>
      <point x="210.0" y="224.0" type="curve" smooth="yes"/>
    </contour>
  </outline>
</glyph>
<glyph name="B" format="2">
  <advance width="588"/>
  <unicode hex="0042"/>
  <anchor x="306.0" y="175.0" name="middle"/>
  <anchor x="509.0" y="732.0" name="right"/>
  <anchor x="268.0" y="-110.0" name="below"/>
  <anchor x="250.0" y="0.0" name="cedilla"/>
  <anchor x="267.0" y="850.0" name="above"/>
  <outline>
    <contour>
      <point x="191.0" y="550.0" type="curve" smooth="yes"/>
      <point x="191.0" y="366.0" type="line"/>
      <point x="265.0" y="366.0" type="line" smooth="yes"/>
      <point x="348.0" y="366.0"/>
      <point x="407.0" y="396.0"/>
      <point x="407.0" y="481.0" type="curve" smooth="yes"/>
      <point x="407.0" y="583.0"/>
      <point x="334.0" y="613.0"/>
      <point x="278.0" y="613.0" type="curve" smooth="yes"/>
      <point x="191.0" y="613.0"/>
      <point x="191.0" y="603.0"/>
    </contour>
    <contour>
      <point x="191.0" y="332.0" type="line"/>
      <point x="191.0" y="118.0" type="line" smooth="yes"/>
      <point x="191.0" y="57.0"/>
      <point x="204.0" y="31.0"/>
      <point x="274.0" y="31.0" type="curve" smooth="yes"/>
      <point x="426.0" y="31.0"/>
      <point x="454.0" y="92.0"/>
      <point x="454.0" y="165.0" type="curve" smooth="yes"/>
      <point x="454.0" y="255.0"/>
      <point x="397.0" y="332.0"/>
      <point x="260.0" y="332.0" type="curve" smooth="yes"/>
    </contour>
    <contour>
      <point x="148.0" y="645.0" type="curve" smooth="yes"/>
      <point x="184.0" y="645.0"/>
      <point x="238.0" y="647.0"/>
      <point x="273.0" y="647.0" type="curve" smooth="yes"/>
      <point x="459.0" y="647.0"/>
      <point x="488.0" y="560.0"/>
      <point x="488.0" y="493.0" type="curve" smooth="yes"/>
      <point x="488.0" y="438.7"/>
      <point x="443.1" y="387.4"/>
      <point x="393.0" y="362.0" type="curve"/>
      <point x="393.0" y="360.0" type="line"/>
      <point x="480.0" y="335.0"/>
      <point x="547.0" y="280.0"/>
      <point x="547.0" y="184.0" type="curve" smooth="yes"/>
      <point x="547.0" y="98.0"/>
      <point x="494.0" y="-2.0"/>
      <point x="295.0" y="-2.0" type="curve" smooth="yes"/>
      <point x="211.0" y="-2.0"/>
      <point x="184.7" y="0.0"/>
      <point x="149.0" y="0.0" type="curve" smooth="yes"/>
      <point x="111.9" y="0.0"/>
      <point x="58.0" y="-1.0"/>
      <point x="19.0" y="-2.0" type="curve"/>
      <point x="13.0" y="4.0"/>
      <point x="13.0" y="25.0"/>
      <point x="19.0" y="31.0" type="curve"/>
      <point x="89.0" y="34.0"/>
      <point x="106.0" y="39.0"/>
      <point x="106.0" y="122.0" type="curve" smooth="yes"/>
      <point x="106.0" y="523.0" type="line" smooth="yes"/>
      <point x="106.0" y="606.0"/>
      <point x="89.0" y="611.0"/>
      <point x="19.0" y="614.0" type="curve"/>
      <point x="13.0" y="620.0"/>
      <point x="13.0" y="641.0"/>
      <point x="19.0" y="647.0" type="curve"/>
      <point x="58.0" y="646.0"/>
      <point x="112.3" y="645.0"/>
    </contour>
  </outline>
</glyph>
<glyph name="C" format="2">
  <advance width="646"/>
  <unicode hex="0043"/>
  <anchor x="620.0" y="606.0" name="komb_OR"/>
  <anchor x="346.0" y="315.0" name="middle"/>
  <anchor x="609.0" y="732.0" name="right"/>
  <anchor x="363.0" y="-110.0" name="below"/>
  <anchor x="356.0" y="-7.0" name="cedilla"/>
  <anchor x="340.0" y="850.0" name="above"/>
  <outline>
    <contour>
      <point x="357.0" y="-10.0" type="curve" smooth="yes"/>
      <point x="142.0" y="-10.0"/>
      <point x="37.0" y="136.2"/>
      <point x="37.0" y="310.0" type="curve" smooth="yes"/>
      <point x="37.0" y="414.3"/>
      <point x="76.6" y="512.2"/>
      <point x="143.0" y="573.0" type="curve" smooth="yes"/>
      <point x="202.0" y="627.0"/>
      <point x="273.0" y="658.0"/>
      <point x="358.0" y="658.0" type="curve" smooth="yes"/>
      <point x="481.0" y="658.0"/>
      <point x="526.0" y="618.0"/>
      <point x="577.0" y="613.0" type="curve"/>
      <point x="587.0" y="558.0"/>
      <point x="594.0" y="510.0"/>
      <point x="599.0" y="458.0" type="curve"/>
      <point x="587.7" y="452.0"/>
      <point x="578.0" y="449.0"/>
      <point x="566.0" y="453.0" type="curve"/>
      <point x="540.0" y="539.0"/>
      <point x="485.0" y="621.0"/>
      <point x="347.0" y="621.0" type="curve" smooth="yes"/>
      <point x="295.0" y="621.0"/>
      <point x="237.0" y="593.0"/>
      <point x="187.4" y="532.0" type="curve" smooth="yes"/>
      <point x="150.9" y="487.1"/>
      <point x="128.0" y="415.3"/>
      <point x="128.0" y="329.0" type="curve" smooth="yes"/>
      <point x="128.0" y="183.0"/>
      <point x="221.4" y="31.0"/>
      <point x="356.0" y="31.0" type="curve" smooth="yes"/>
      <point x="449.0" y="31.0"/>
      <point x="517.0" y="62.0"/>
      <point x="588.0" y="140.0" type="curve"/>
      <point x="599.0" y="140.0"/>
      <point x="606.0" y="134.0"/>
      <point x="611.0" y="125.0" type="curve"/>
      <point x="543.0" y="36.0"/>
      <point x="454.0" y="-10.0"/>
    </contour>
  </outline>
</glyph>
<glyph name="D" format="2">
  <advance width="701"/>
  <unicode hex="0044"/>
  <anchor x="346.0" y="315.0" name="middle"/>
  <anchor x="619.0" y="732.0" name="right"/>
  <anchor x="309.0" y="-110.0" name="below"/>
  <anchor x="309.0" y="1.0" name="cedilla"/>
  <anchor x="306.0" y="850.0" name="above"/>
  <outline>
    <contour>
      <point x="191.0" y="84.0" type="line" smooth="yes"/>
      <point x="191.0" y="52.0"/>
      <point x="202.0" y="32.0"/>
      <point x="300.0" y="32.0" type="curve" smooth="yes"/>
      <point x="441.0" y="32.0"/>
      <point x="562.0" y="82.0"/>
      <point x="562.0" y="284.0" type="curve" smooth="yes"/>
      <point x="562.0" y="438.0"/>
      <point x="491.0" y="613.0"/>
      <point x="275.0" y="613.0" type="curve" smooth="yes"/>
      <point x="226.0" y="613.0"/>
      <point x="191.0" y="599.0"/>
      <point x="191.0" y="564.0" type="curve" smooth="yes"/>
    </contour>
    <contour>
      <point x="148.0" y="645.0" type="curve" smooth="yes"/>
      <point x="187.0" y="645.0"/>
      <point x="242.0" y="647.0"/>
      <point x="313.0" y="647.0" type="curve" smooth="yes"/>
      <point x="505.0" y="647.0"/>
      <point x="658.0" y="494.0"/>
      <point x="658.0" y="308.0" type="curve" smooth="yes"/>
      <point x="658.0" y="62.0"/>
      <point x="472.0" y="-2.0"/>
      <point x="331.0" y="-2.0" type="curve" smooth="yes"/>
      <point x="228.0" y="-2.0"/>
      <point x="186.0" y="0.0"/>
      <point x="149.0" y="0.0" type="curve" smooth="yes"/>
      <point x="111.3" y="0.0"/>
      <point x="58.0" y="-1.0"/>
      <point x="19.0" y="-2.0" type="curve"/>
      <point x="13.0" y="4.0"/>
      <point x="13.0" y="25.0"/>
      <point x="19.0" y="31.0" type="curve"/>
      <point x="89.0" y="34.0"/>
      <point x="106.0" y="39.0"/>
      <point x="106.0" y="122.0" type="curve" smooth="yes"/>
      <point x="106.0" y="523.0" type="line" smooth="yes"/>
      <point x="106.0" y="606.0"/>
      <point x="89.0" y="611.0"/>
      <point x="19.0" y="614.0" type="curve"/>
      <point x="13.0" y="620.0"/>
      <point x="13.0" y="641.0"/>
      <point x="19.0" y="647.0" type="curve"/>
      <point x="59.0" y="646.0"/>
      <point x="112.3" y="645.0"/>
    </contour>
  </outline>
</glyph>
<glyph name="F" format="2">
  <advance width="485"/>
  <unicode hex="0046"/>
  <anchor x="507.0" y="732.0" name="right"/>
  <anchor x="153.0" y="-1.0" name="cedilla"/>
  <anchor x="209.0" y="-110.0" name="below"/>
  <anchor x="284.0" y="850.0" name="above"/>
  <outline>
    <contour>
      <point x="283.0" y="323.0" type="curve" smooth="yes"/>
      <point x="190.0" y="323.0" type="line"/>
      <point x="190.0" y="122.0" type="line" smooth="yes"/>
      <point x="190.0" y="39.0"/>
      <point x="207.0" y="34.0"/>
      <point x="277.0" y="31.0" type="curve"/>
      <point x="283.0" y="25.0"/>
      <point x="283.0" y="4.0"/>
      <point x="277.0" y="-2.0" type="curve"/>
      <point x="242.0" y="-1.0"/>
      <point x="193.0" y="0.0"/>
      <point x="148.0" y="0.0" type="curve" smooth="yes"/>
      <point x="103.0" y="0.0"/>
      <point x="53.0" y="-1.0"/>
      <point x="18.0" y="-2.0" type="curve"/>
      <point x="12.0" y="4.0"/>
      <point x="12.0" y="25.0"/>
      <point x="18.0" y="31.0" type="curve"/>
      <point x="88.0" y="34.0"/>
      <point x="105.0" y="39.0"/>
      <point x="105.0" y="122.0" type="curve" smooth="yes"/>
      <point x="105.0" y="523.0" type="line" smooth="yes"/>
      <point x="105.0" y="606.0"/>
      <point x="88.0" y="611.0"/>
      <point x="18.0" y="614.0" type="curve"/>
      <point x="12.0" y="620.0"/>
      <point x="12.0" y="641.0"/>
      <point x="18.0" y="647.0" type="curve"/>
      <point x="58.0" y="646.0"/>
      <point x="115.0" y="645.0"/>
      <point x="147.0" y="645.0" type="curve" smooth="yes"/>
      <point x="402.3" y="645.0" type="line" smooth="yes"/>
      <point x="427.0" y="645.0"/>
      <point x="431.8" y="645.6"/>
      <point x="449.3" y="649.0" type="curve" smooth="yes"/>
      <point x="451.7" y="649.0"/>
      <point x="452.9" y="648.3"/>
      <point x="453.3" y="646.0" type="curve" smooth="yes"/>
      <point x="454.7" y="638.4"/>
      <point x="469.8" y="542.0"/>
      <point x="475.0" y="501.0" type="curve"/>
      <point x="467.0" y="498.0"/>
      <point x="456.0" y="496.0"/>
      <point x="444.0" y="496.0" type="curve"/>
      <point x="422.0" y="565.0"/>
      <point x="397.0" y="605.0"/>
      <point x="291.0" y="605.0" type="curve" smooth="yes"/>
      <point x="246.0" y="605.0" type="line" smooth="yes"/>
      <point x="202.0" y="605.0"/>
      <point x="190.0" y="595.0"/>
      <point x="190.0" y="541.0" type="curve" smooth="yes"/>
      <point x="190.0" y="361.0" type="line"/>
      <point x="283.0" y="361.0" type="line" smooth="yes"/>
      <point x="368.0" y="361.0"/>
      <point x="371.0" y="374.0"/>
      <point x="374.0" y="429.0" type="curve"/>
      <point x="380.0" y="435.0"/>
      <point x="401.0" y="435.0"/>
      <point x="407.0" y="429.0" type="curve"/>
      <point x="406.0" y="403.0"/>
      <point x="405.0" y="376.5"/>
      <point x="405.0" y="343.0" type="curve" smooth="yes"/>
      <point x="405.0" y="308.7"/>
      <point x="406.0" y="280.0"/>
      <point x="407.0" y="255.0" type="curve"/>
      <point x="401.0" y="249.0"/>
      <point x="380.0" y="249.0"/>
      <point x="374.0" y="255.0" type="curve"/>
      <point x="371.0" y="300.0"/>
      <point x="368.0" y="323.0"/>
    </contour>
  </outline>
</glyph>
<glyph name="G" format="2">
  <advance width="685"/>
  <unicode hex="0047"/>
  <anchor x="600.0" y="606.0" name="komb_OR"/>
  <anchor x="308.0" y="335.0" name="middle"/>
  <anchor x="631.0" y="732.0" name="right"/>
  <anchor x="337.0" y="2.0" name="cedilla"/>
  <anchor x="367.0" y="-110.0" name="below"/>
  <anchor x="365.0" y="850.0" name="above"/>
  <outline>
    <contour>
      <point x="377.0" y="658.0" type="curve" smooth="yes"/>
      <point x="488.0" y="658.0"/>
      <point x="525.0" y="623.0"/>
      <point x="585.0" y="613.0" type="curve"/>
      <point x="601.0" y="541.0"/>
      <point x="605.5" y="501.0"/>
      <point x="608.0" y="459.0" type="curve"/>
      <point x="596.7" y="454.3"/>
      <point x="586.3" y="452.3"/>
      <point x="575.0" y="453.0" type="curve"/>
      <point x="549.0" y="539.0"/>
      <point x="508.0" y="622.0"/>
      <point x="363.0" y="622.0" type="curve" smooth="yes"/>
      <point x="246.5" y="622.0"/>
      <point x="133.0" y="502.0"/>
      <point x="133.0" y="327.0" type="curve" smooth="yes"/>
      <point x="133.0" y="195.0"/>
      <point x="217.0" y="26.0"/>
      <point x="375.0" y="26.0" type="curve" smooth="yes"/>
      <point x="429.0" y="26.0"/>
      <point x="496.0" y="32.0"/>
      <point x="530.0" y="64.0" type="curve"/>
      <point x="530.0" y="217.0" type="line" smooth="yes"/>
      <point x="530.0" y="257.1"/>
      <point x="502.9" y="260.8"/>
      <point x="448.0" y="265.0" type="curve"/>
      <point x="442.0" y="271.0"/>
      <point x="442.0" y="295.0"/>
      <point x="448.0" y="301.0" type="curve"/>
      <point x="492.0" y="300.0"/>
      <point x="538.5" y="299.0"/>
      <point x="572.0" y="299.0" type="curve" smooth="yes"/>
      <point x="612.0" y="299.0"/>
      <point x="637.0" y="300.0"/>
      <point x="661.0" y="301.0" type="curve"/>
      <point x="667.0" y="295.0"/>
      <point x="667.0" y="271.0"/>
      <point x="661.0" y="265.0" type="curve"/>
      <point x="632.0" y="262.0"/>
      <point x="615.0" y="252.2"/>
      <point x="615.0" y="217.0" type="curve" smooth="yes"/>
      <point x="615.0" y="101.0" type="line" smooth="yes"/>
      <point x="615.0" y="90.0"/>
      <point x="620.0" y="82.0"/>
      <point x="631.0" y="73.0" type="curve"/>
      <point x="563.0" y="15.0"/>
      <point x="470.0" y="-10.0"/>
      <point x="352.0" y="-10.0" type="curve" smooth="yes"/>
      <point x="161.0" y="-10.0"/>
      <point x="37.0" y="127.2"/>
      <point x="37.0" y="307.0" type="curve" smooth="yes"/>
      <point x="37.0" y="527.0"/>
      <point x="210.0" y="658.0"/>
    </contour>
  </outline>
</glyph>
<glyph name="H" format="2">
  <advance width="730"/>
  <unicode hex="0048"/>
  <anchor x="356.0" y="485.0" name="middle"/>
  <anchor x="729.0" y="732.0" name="right"/>
  <anchor x="150.0" y="0.0" name="cedilla"/>
  <anchor x="362.0" y="-110.0" name="below"/>
  <anchor x="361.0" y="850.0" name="above"/>
  <outline>
    <contour>
      <point x="618.0" y="122.0" type="line" smooth="yes"/>
      <point x="618.0" y="39.0"/>
      <point x="635.0" y="34.0"/>
      <point x="705.0" y="31.0" type="curve"/>
      <point x="711.0" y="25.0"/>
      <point x="711.0" y="4.0"/>
      <point x="705.0" y="-2.0" type="curve"/>
      <point x="661.0" y="-1.0"/>
      <point x="613.3" y="0.0"/>
      <point x="576.0" y="0.0" type="curve" smooth="yes"/>
      <point x="538.9" y="0.0"/>
      <point x="491.0" y="-1.0"/>
      <point x="446.0" y="-2.0" type="curve"/>
      <point x="440.0" y="4.0"/>
      <point x="440.0" y="25.0"/>
      <point x="446.0" y="31.0" type="curve"/>
      <point x="516.0" y="34.0"/>
      <point x="533.0" y="39.0"/>
      <point x="533.0" y="122.0" type="curve" smooth="yes"/>
      <point x="533.0" y="321.0" type="line"/>
      <point x="191.0" y="321.0" type="line"/>
      <point x="191.0" y="122.0" type="line" smooth="yes"/>
      <point x="191.0" y="39.0"/>
      <point x="208.0" y="34.0"/>
      <point x="278.0" y="31.0" type="curve"/>
      <point x="284.0" y="25.0"/>
      <point x="284.0" y="4.0"/>
      <point x="278.0" y="-2.0" type="curve"/>
      <point x="234.0" y="-1.0"/>
      <point x="185.3" y="0.0"/>
      <point x="149.0" y="0.0" type="curve" smooth="yes"/>
      <point x="111.3" y="0.0"/>
      <point x="63.0" y="-1.0"/>
      <point x="19.0" y="-2.0" type="curve"/>
      <point x="13.0" y="4.0"/>
      <point x="13.0" y="25.0"/>
      <point x="19.0" y="31.0" type="curve"/>
      <point x="89.0" y="34.0"/>
      <point x="106.0" y="39.0"/>
      <point x="106.0" y="122.0" type="curve" smooth="yes"/>
      <point x="106.0" y="523.0" type="line" smooth="yes"/>
      <point x="106.0" y="606.0"/>
      <point x="89.0" y="611.0"/>
      <point x="19.0" y="614.0" type="curve"/>
      <point x="13.0" y="620.0"/>
      <point x="13.0" y="641.0"/>
      <point x="19.0" y="647.0" type="curve"/>
      <point x="57.0" y="646.0"/>
      <point x="98.0" y="645.0"/>
      <point x="148.0" y="645.0" type="curve" smooth="yes"/>
      <point x="199.0" y="645.0"/>
      <point x="240.0" y="646.0"/>
      <point x="278.0" y="647.0" type="curve"/>
      <point x="284.0" y="641.0"/>
      <point x="284.0" y="620.0"/>
      <point x="278.0" y="614.0" type="curve"/>
      <point x="208.0" y="611.0"/>
      <point x="191.0" y="606.0"/>
      <point x="191.0" y="523.0" type="curve" smooth="yes"/>
      <point x="191.0" y="363.0" type="line"/>
      <point x="533.0" y="363.0" type="line"/>
      <point x="533.0" y="523.0" type="line" smooth="yes"/>
      <point x="533.0" y="606.0"/>
      <point x="516.0" y="611.0"/>
      <point x="446.0" y="614.0" type="curve"/>
      <point x="440.0" y="620.0"/>
      <point x="440.0" y="641.0"/>
      <point x="446.0" y="647.0" type="curve"/>
      <point x="490.0" y="646.0"/>
      <point x="537.7" y="645.0"/>
      <point x="575.0" y="645.0" type="curve" smooth="yes"/>
      <point x="613.0" y="645.0"/>
      <point x="664.0" y="646.0"/>
      <point x="705.0" y="647.0" type="curve"/>
      <point x="711.0" y="641.0"/>
      <point x="711.0" y="620.0"/>
      <point x="705.0" y="614.0" type="curve"/>
      <point x="635.0" y="611.0"/>
      <point x="618.0" y="606.0"/>
      <point x="618.0" y="523.0" type="curve" smooth="yes"/>
    </contour>
  </outline>
</glyph>
<glyph name="I" format="2">
  <advance width="297"/>
  <unicode hex="0049"/>
  <anchor x="150.0" y="850.0" name="above"/>
  <anchor x="147.0" y="-110.0" name="below"/>
  <anchor x="147.0" y="1.0" name="cedilla"/>
  <anchor x="148.0" y="325.0" name="middle"/>
  <outline>
    <contour>
      <point x="191.0" y="122.0" type="line" smooth="yes"/>
      <point x="191.0" y="39.0"/>
      <point x="208.0" y="34.0"/>
      <point x="278.0" y="31.0" type="curve"/>
      <point x="284.0" y="25.0"/>
      <point x="284.0" y="4.0"/>
      <point x="278.0" y="-2.0" type="curve"/>
      <point x="233.0" y="-1.0"/>
      <point x="184.6" y="0.0"/>
      <point x="149.0" y="0.0" type="curve" smooth="yes"/>
      <point x="112.7" y="0.0"/>
      <point x="64.0" y="-1.0"/>
      <point x="19.0" y="-2.0" type="curve"/>
      <point x="13.0" y="4.0"/>
      <point x="13.0" y="25.0"/>
      <point x="19.0" y="31.0" type="curve"/>
      <point x="89.0" y="34.0"/>
      <point x="106.0" y="39.0"/>
      <point x="106.0" y="122.0" type="curve" smooth="yes"/>
      <point x="106.0" y="523.0" type="line" smooth="yes"/>
      <point x="106.0" y="606.0"/>
      <point x="89.0" y="611.0"/>
      <point x="19.0" y="614.0" type="curve"/>
      <point x="13.0" y="620.0"/>
      <point x="13.0" y="641.0"/>
      <point x="19.0" y="647.0" type="curve"/>
      <point x="66.0" y="646.0"/>
      <point x="114.5" y="645.0"/>
      <point x="148.0" y="645.0" type="curve" smooth="yes"/>
      <point x="186.5" y="645.0"/>
      <point x="234.0" y="646.0"/>
      <point x="278.0" y="647.0" type="curve"/>
      <point x="284.0" y="641.0"/>
      <point x="284.0" y="620.0"/>
      <point x="278.0" y="614.0" type="curve"/>
      <point x="208.0" y="611.0"/>
      <point x="191.0" y="606.0"/>
      <point x="191.0" y="523.0" type="curve" smooth="yes"/>
    </contour>
  </outline>
</glyph>
<glyph name="J" format="2">
  <advance width="322"/>
  <unicode hex="004A"/>
  <anchor x="109.0" y="-319.0" name="below"/>
  <anchor x="186.0" y="315.0" name="middle"/>
  <anchor x="182.0" y="850.0" name="above"/>
  <outline>
    <contour>
      <point x="226.0" y="523.0" type="curve" smooth="yes"/>
      <point x="226.0" y="103.0" type="line" smooth="yes"/>
      <point x="226.0" y="-40.0"/>
      <point x="167.7" y="-91.7"/>
      <point x="124.0" y="-129.0" type="curve" smooth="yes"/>
      <point x="83.0" y="-164.0"/>
      <point x="52.0" y="-172.0"/>
      <point x="7.0" y="-172.0" type="curve" smooth="yes"/>
      <point x="-15.0" y="-172.0"/>
      <point x="-68.0" y="-154.0"/>
      <point x="-68.0" y="-118.0" type="curve" smooth="yes"/>
      <point x="-68.0" y="-96.0"/>
      <point x="-38.0" y="-75.0"/>
      <point x="-24.0" y="-75.0" type="curve" smooth="yes"/>
      <point x="0.9" y="-75.0"/>
      <point x="9.7" y="-87.8"/>
      <point x="15.7" y="-100.5" type="curve" smooth="yes"/>
      <point x="22.7" y="-115.2"/>
      <point x="36.9" y="-127.0"/>
      <point x="56.0" y="-127.0" type="curve" smooth="yes"/>
      <point x="89.0" y="-127.0"/>
      <point x="141.0" y="-99.0"/>
      <point x="141.0" y="81.0" type="curve" smooth="yes"/>
      <point x="141.0" y="523.0" type="line" smooth="yes"/>
      <point x="141.0" y="606.0"/>
      <point x="124.0" y="611.0"/>
      <point x="44.0" y="614.0" type="curve"/>
      <point x="38.0" y="620.0"/>
      <point x="38.0" y="641.0"/>
      <point x="44.0" y="647.0" type="curve"/>
      <point x="94.0" y="646.0"/>
      <point x="146.7" y="645.0"/>
      <point x="183.0" y="645.0" type="curve" smooth="yes"/>
      <point x="221.7" y="645.0"/>
      <point x="265.0" y="646.0"/>
      <point x="303.0" y="647.0" type="curve"/>
      <point x="309.0" y="641.0"/>
      <point x="309.0" y="620.0"/>
      <point x="303.0" y="614.0" type="curve"/>
      <point x="243.0" y="611.0"/>
      <point x="226.0" y="606.0"/>
    </contour>
  </outline>
</glyph>
<glyph name="K" format="2">
  <advance width="637"/>
  <unicode hex="004B"/>
  <anchor x="336" y="850" name="above"/>
  <anchor x="342" y="-110" name="below"/>
  <anchor x="148" y="-1" name="cedilla"/>
  <anchor x="649" y="732" name="right"/>
  <outline>
    <contour>
      <point x="191" y="122" type="line" smooth="yes"/>
      <point x="191" y="39"/>
      <point x="208" y="34"/>
      <point x="278" y="31" type="curve"/>
      <point x="284" y="25"/>
      <point x="284" y="4"/>
      <point x="278" y="-2" type="curve"/>
      <point x="233" y="-1"/>
      <point x="187" y="0"/>
      <point x="149" y="0" type="curve" smooth="yes"/>
      <point x="110" y="0"/>
      <point x="64" y="-1"/>
      <point x="19" y="-2" type="curve"/>
      <point x="13" y="4"/>
      <point x="13" y="25"/>
      <point x="19" y="31" type="curve"/>
      <point x="89" y="34"/>
      <point x="106" y="39"/>
      <point x="106" y="122" type="curve" smooth="yes"/>
      <point x="106" y="523" type="line" smooth="yes"/>
      <point x="106" y="606"/>
      <point x="89" y="611"/>
      <point x="19" y="614" type="curve"/>
      <point x="13" y="620"/>
      <point x="13" y="641"/>
      <point x="19" y="647" type="curve"/>
      <point x="64" y="646"/>
      <point x="110" y="645"/>
      <point x="148" y="645" type="curve" smooth="yes"/>
      <point x="184" y="645"/>
      <point x="232" y="646"/>
      <point x="278" y="647" type="curve"/>
      <point x="284" y="641"/>
      <point x="284" y="620"/>
      <point x="278" y="614" type="curve"/>
      <point x="208" y="611"/>
      <point x="191" y="606"/>
      <point x="191" y="523" type="curve" smooth="yes"/>
      <point x="191" y="347" type="line"/>
      <point x="226" y="350"/>
      <point x="249" y="363"/>
      <point x="270" y="386" type="curve" smooth="yes"/>
      <point x="435" y="562" type="line" smooth="yes"/>
      <point x="477" y="607"/>
      <point x="443" y="611"/>
      <point x="407" y="614" type="curve"/>
      <point x="401" y="620"/>
      <point x="401" y="641"/>
      <point x="407" y="647" type="curve"/>
      <point x="444" y="646"/>
      <point x="483" y="645"/>
      <point x="520" y="645" type="curve" smooth="yes"/>
      <point x="552" y="645"/>
      <point x="584" y="646"/>
      <point x="615" y="647" type="curve"/>
      <point x="621" y="641"/>
      <point x="621" y="620"/>
      <point x="615" y="614" type="curve"/>
      <point x="575" y="611"/>
      <point x="535" y="607"/>
      <point x="489" y="558" type="curve"/>
      <point x="342" y="407" type="line" smooth="yes"/>
      <point x="308" y="372"/>
      <point x="307" y="365"/>
      <point x="307" y="358" type="curve" smooth="yes"/>
      <point x="307" y="350"/>
      <point x="312" y="342"/>
      <point x="320" y="333" type="curve"/>
      <point x="539" y="73" type="line" smooth="yes"/>
      <point x="570" y="37"/>
      <point x="598" y="34"/>
      <point x="627" y="31" type="curve"/>
      <point x="633" y="25"/>
      <point x="633" y="4"/>
      <point x="627" y="-2" type="curve"/>
      <point x="594" y="-1"/>
      <point x="560" y="0"/>
      <point x="526" y="0" type="curve" smooth="yes"/>
      <point x="505" y="0"/>
      <point x="492" y="-1"/>
      <point x="472" y="-2" type="curve"/>
      <point x="468" y="-2"/>
      <point x="467" y="1"/>
      <point x="467" y="4" type="curve"/>
      <point x="465" y="20"/>
      <point x="451" y="47"/>
      <point x="431" y="73" type="curve" smooth="yes"/>
      <point x="274" y="271" type="line" smooth="yes"/>
      <point x="254" y="297"/>
      <point x="225" y="308"/>
      <point x="191" y="309" type="curve"/>
    </contour>
  </outline>
</glyph>
<glyph name="L" format="2">
  <advance width="528"/>
  <unicode hex="004C"/>
  <anchor x="151" y="850" name="above"/>
  <anchor x="262" y="-110" name="below"/>
  <anchor x="262" y="1" name="cedilla"/>
  <anchor x="288" y="315" name="middle"/>
  <anchor x="471" y="732" name="right"/>
  <outline>
    <contour>
      <point x="149" y="0" type="line" smooth="yes"/>
      <point x="115" y="0"/>
      <point x="58" y="-1"/>
      <point x="19" y="-2" type="curve"/>
      <point x="13" y="4"/>
      <point x="13" y="25"/>
      <point x="19" y="31" type="curve"/>
      <point x="89" y="34"/>
      <point x="106" y="39"/>
      <point x="106" y="122" type="curve" smooth="yes"/>
      <point x="106" y="523" type="line" smooth="yes"/>
      <point x="106" y="606"/>
      <point x="89" y="611"/>
      <point x="19" y="614" type="curve"/>
      <point x="13" y="620"/>
      <point x="13" y="641"/>
      <point x="19" y="647" type="curve"/>
      <point x="65" y="646"/>
      <point x="112" y="645"/>
      <point x="148" y="645" type="curve" smooth="yes"/>
      <point x="186" y="645"/>
      <point x="233" y="646"/>
      <point x="278" y="647" type="curve"/>
      <point x="284" y="641"/>
      <point x="284" y="620"/>
      <point x="278" y="614" type="curve"/>
      <point x="208" y="611"/>
      <point x="191" y="606"/>
      <point x="191" y="523" type="curve" smooth="yes"/>
      <point x="191" y="109" type="line" smooth="yes"/>
      <point x="191" y="58"/>
      <point x="209" y="39"/>
      <point x="248" y="39" type="curve" smooth="yes"/>
      <point x="311" y="39" type="line" smooth="yes"/>
      <point x="417" y="39"/>
      <point x="454" y="98"/>
      <point x="474" y="170" type="curve"/>
      <point x="486" y="172"/>
      <point x="497" y="170"/>
      <point x="507" y="165" type="curve"/>
      <point x="501" y="113"/>
      <point x="491" y="48"/>
      <point x="481" y="-2" type="curve"/>
      <point x="481" y="-2"/>
      <point x="389" y="0"/>
      <point x="362" y="0" type="curve" smooth="yes"/>
    </contour>
  </outline>
</glyph>
<glyph name="M" format="2">
  <advance width="839"/>
  <unicode hex="004D"/>
  <anchor x="426.0" y="445.0" name="middle"/>
  <anchor x="107.0" y="2.0" name="cedilla"/>
  <anchor x="393.0" y="-110.0" name="below"/>
  <anchor x="431.0" y="850.0" name="above"/>
  <outline>
    <contour>
      <point x="662.7" y="116.0" type="curve" smooth="yes"/>
      <point x="637.0" y="534.0" type="line"/>
      <point x="635.0" y="534.0" type="line"/>
      <point x="410.0" y="5.0" type="line" smooth="yes"/>
      <point x="406.0" y="-3.0"/>
      <point x="402.0" y="-10.0"/>
      <point x="396.0" y="-10.0" type="curve" smooth="yes"/>
      <point x="390.0" y="-10.0"/>
      <point x="383.8" y="-2.1"/>
      <point x="381.0" y="5.0" type="curve" smooth="yes"/>
      <point x="174.0" y="524.0" type="line"/>
      <point x="172.0" y="524.0" type="line"/>
      <point x="134.0" y="123.0" type="line" smooth="yes"/>
      <point x="128.6" y="66.7"/>
      <point x="134.0" y="36.0"/>
      <point x="200.0" y="31.0" type="curve"/>
      <point x="206.0" y="25.0"/>
      <point x="206.0" y="4.0"/>
      <point x="200.0" y="-2.0" type="curve"/>
      <point x="170.0" y="-1.0"/>
      <point x="130.0" y="0.0"/>
      <point x="106.0" y="0.0" type="curve" smooth="yes"/>
      <point x="82.0" y="0.0"/>
      <point x="50.0" y="-1.0"/>
      <point x="20.0" y="-2.0" type="curve"/>
      <point x="14.0" y="4.0"/>
      <point x="14.0" y="25.0"/>
      <point x="20.0" y="31.0" type="curve"/>
      <point x="77.0" y="36.0"/>
      <point x="89.0" y="61.1"/>
      <point x="94.9" y="121.0" type="curve" smooth="yes"/>
      <point x="135.0" y="533.0" type="line" smooth="yes"/>
      <point x="142.0" y="608.0"/>
      <point x="136.0" y="610.0"/>
      <point x="67.0" y="614.0" type="curve"/>
      <point x="61.0" y="620.0"/>
      <point x="61.0" y="641.0"/>
      <point x="67.0" y="647.0" type="curve"/>
      <point x="212.0" y="645.0" type="line"/>
      <point x="417.0" y="137.0" type="line" smooth="yes"/>
      <point x="420.1" y="129.4"/>
      <point x="423.0" y="124.0"/>
      <point x="425.0" y="124.0" type="curve" smooth="yes"/>
      <point x="427.0" y="124.0"/>
      <point x="430.0" y="128.0"/>
      <point x="434.0" y="138.0" type="curve" smooth="yes"/>
      <point x="646.0" y="645.0" type="line"/>
      <point x="777.0" y="647.0" type="line"/>
      <point x="783.0" y="641.0"/>
      <point x="783.0" y="620.0"/>
      <point x="777.0" y="614.0" type="curve"/>
      <point x="709.0" y="610.0"/>
      <point x="704.0" y="596.0"/>
      <point x="708.3" y="542.0" type="curve" smooth="yes"/>
      <point x="738.1" y="121.0" type="line" smooth="yes"/>
      <point x="743.9" y="38.2"/>
      <point x="747.0" y="34.0"/>
      <point x="815.0" y="31.0" type="curve"/>
      <point x="821.0" y="25.0"/>
      <point x="821.0" y="4.0"/>
      <point x="815.0" y="-2.0" type="curve"/>
      <point x="781.8" y="-1.0"/>
      <point x="736.0" y="0.0"/>
      <point x="706.0" y="0.0" type="curve" smooth="yes"/>
      <point x="676.0" y="0.0"/>
      <point x="636.0" y="-1.0"/>
      <point x="599.0" y="-2.0" type="curve"/>
      <point x="593.0" y="4.0"/>
      <point x="593.0" y="25.0"/>
      <point x="599.0" y="31.0" type="curve"/>
      <point x="664.0" y="34.0"/>
      <point x="667.7" y="35.0"/>
    </contour>
  </outline>
</glyph>
<glyph name="N" format="2">
  <advance width="699"/>
  <unicode hex="004E"/>
  <anchor x="356.0" y="320.0" name="middle"/>
  <anchor x="125.0" y="-4.0" name="cedilla"/>
  <anchor x="348.0" y="-110.0" name="below"/>
  <anchor x="346.0" y="850.0" name="above"/>
  <outline>
    <contour>
      <point x="556.0" y="512.0" type="line" smooth="yes"/>
      <point x="556.0" y="603.0"/>
      <point x="539.0" y="607.0"/>
      <point x="469.0" y="614.0" type="curve"/>
      <point x="463.0" y="620.0"/>
      <point x="463.0" y="641.0"/>
      <point x="469.0" y="647.0" type="curve"/>
      <point x="513.0" y="646.0"/>
      <point x="558.7" y="645.0"/>
      <point x="580.0" y="645.0" type="curve" smooth="yes"/>
      <point x="603.7" y="645.0"/>
      <point x="651.0" y="646.0"/>
      <point x="692.0" y="647.0" type="curve"/>
      <point x="698.0" y="641.0"/>
      <point x="698.0" y="620.0"/>
      <point x="692.0" y="614.0" type="curve"/>
      <point x="622.0" y="607.0"/>
      <point x="605.0" y="601.0"/>
      <point x="605.0" y="512.0" type="curve" smooth="yes"/>
      <point x="605.0" y="21.0" type="line" smooth="yes"/>
      <point x="605.0" y="2.0"/>
      <point x="596.0" y="-10.0"/>
      <point x="582.0" y="-10.0" type="curve" smooth="yes"/>
      <point x="566.0" y="-10.0"/>
      <point x="553.0" y="-1.0"/>
      <point x="542.0" y="14.0" type="curve" smooth="yes"/>
      <point x="193.0" y="455.0" type="line" smooth="yes"/>
      <point x="176.0" y="477.0"/>
      <point x="165.0" y="488.0"/>
      <point x="159.0" y="488.0" type="curve" smooth="yes"/>
      <point x="151.0" y="488.0"/>
      <point x="151.0" y="473.0"/>
      <point x="151.0" y="439.0" type="curve" smooth="yes"/>
      <point x="151.0" y="133.0" type="line" smooth="yes"/>
      <point x="151.0" y="42.0"/>
      <point x="168.0" y="38.0"/>
      <point x="238.0" y="31.0" type="curve"/>
      <point x="244.0" y="25.0"/>
      <point x="244.0" y="4.0"/>
      <point x="238.0" y="-2.0" type="curve"/>
      <point x="196.0" y="-1.0"/>
      <point x="150.1" y="0.0"/>
      <point x="127.0" y="0.0" type="curve" smooth="yes"/>
      <point x="103.4" y="0.0"/>
      <point x="58.0" y="-1.0"/>
      <point x="15.0" y="-2.0" type="curve"/>
      <point x="9.0" y="4.0"/>
      <point x="9.0" y="25.0"/>
      <point x="15.0" y="31.0" type="curve"/>
      <point x="85.0" y="38.0"/>
      <point x="102.0" y="44.0"/>
      <point x="102.0" y="133.0" type="curve" smooth="yes"/>
      <point x="102.0" y="550.0" type="line"/>
      <point x="96.0" y="576.0"/>
      <point x="66.0" y="611.0"/>
      <point x="23.0" y="614.0" type="curve"/>
      <point x="17.0" y="620.0"/>
      <point x="17.0" y="641.0"/>
      <point x="23.0" y="647.0" type="curve"/>
      <point x="158.0" y="645.0" type="line"/>
      <point x="501.0" y="210.0" type="line" smooth="yes"/>
      <point x="530.0" y="173.0"/>
      <point x="545.0" y="155.0"/>
      <point x="549.0" y="155.0" type="curve" smooth="yes"/>
      <point x="556.0" y="155.0"/>
      <point x="556.0" y="166.0"/>
      <point x="556.0" y="185.0" type="curve" smooth="yes"/>
    </contour>
  </outline>
</glyph>
<glyph name="O" format="2">
  <advance width="702"/>
  <unicode hex="004F"/>
  <anchor x="335" y="850" name="above"/>
  <anchor x="350" y="-110" name="below"/>
  <anchor x="350" y="0" name="cedilla"/>
  <anchor x="620" y="606" name="komb_OR"/>
  <anchor x="346" y="322" name="middle"/>
  <outline>
    <contour>
      <point x="331" y="622" type="line" smooth="yes"/>
      <point x="232" y="622"/>
      <point x="133" y="537"/>
      <point x="133" y="327" type="curve" smooth="yes"/>
      <point x="133" y="135"/>
      <point x="248" y="26"/>
      <point x="370" y="26" type="curve" smooth="yes"/>
      <point x="484" y="26"/>
      <point x="570" y="131"/>
      <point x="570" y="310" type="curve" smooth="yes"/>
      <point x="570" y="512"/>
      <point x="463" y="622"/>
      <point x="331" y="622" type="curve" smooth="yes"/>
    </contour>
    <contour>
      <point x="666" y="329" type="line" smooth="yes"/>
      <point x="666" y="245"/>
      <point x="644" y="173"/>
      <point x="604" y="116" type="curve" smooth="yes"/>
      <point x="549" y="38"/>
      <point x="461" y="-10"/>
      <point x="350" y="-10" type="curve" smooth="yes"/>
      <point x="180" y="-10"/>
      <point x="37" y="113"/>
      <point x="37" y="310" type="curve" smooth="yes"/>
      <point x="37" y="504"/>
      <point x="150" y="658"/>
      <point x="344" y="658" type="curve" smooth="yes"/>
      <point x="523" y="658"/>
      <point x="666" y="536"/>
      <point x="666" y="329" type="curve" smooth="yes"/>
    </contour>
  </outline>
</glyph>
<glyph name="P" format="2">
  <advance width="541"/>
  <unicode hex="0050"/>
  <anchor x="277" y="850" name="above"/>
  <anchor x="240" y="-110" name="below"/>
  <anchor x="150" y="-3" name="cedilla"/>
  <anchor x="286" y="464" name="middle"/>
  <anchor x="509" y="732" name="right"/>
  <outline>
    <contour>
      <point x="189" y="554" type="line" smooth="yes"/>
      <point x="189" y="321" type="line"/>
      <point x="200" y="318"/>
      <point x="240" y="316"/>
      <point x="265" y="316" type="curve" smooth="yes"/>
      <point x="362" y="316"/>
      <point x="414" y="360"/>
      <point x="414" y="468" type="curve" smooth="yes"/>
      <point x="414" y="595"/>
      <point x="345" y="618"/>
      <point x="276" y="618" type="curve" smooth="yes"/>
      <point x="204" y="618"/>
      <point x="189" y="583"/>
      <point x="189" y="554" type="curve" smooth="yes"/>
    </contour>
    <contour>
      <point x="104" y="523" type="line" smooth="yes"/>
      <point x="104" y="606"/>
      <point x="87" y="611"/>
      <point x="17" y="614" type="curve"/>
      <point x="11" y="620"/>
      <point x="11" y="641"/>
      <point x="17" y="647" type="curve"/>
      <point x="57" y="646"/>
      <point x="109" y="645"/>
      <point x="146" y="645" type="curve" smooth="yes"/>
      <point x="186" y="645"/>
      <point x="245" y="652"/>
      <point x="283" y="652" type="curve" smooth="yes"/>
      <point x="468" y="652"/>
      <point x="507" y="545"/>
      <point x="507" y="486" type="curve" smooth="yes"/>
      <point x="507" y="401"/>
      <point x="452" y="282"/>
      <point x="270" y="282" type="curve" smooth="yes"/>
      <point x="235" y="282"/>
      <point x="211" y="285"/>
      <point x="189" y="292" type="curve"/>
      <point x="189" y="122" type="line" smooth="yes"/>
      <point x="189" y="39"/>
      <point x="213" y="35"/>
      <point x="291" y="31" type="curve"/>
      <point x="297" y="25"/>
      <point x="297" y="4"/>
      <point x="291" y="-2" type="curve"/>
      <point x="241" y="-1"/>
      <point x="182" y="0"/>
      <point x="147" y="0" type="curve" smooth="yes"/>
      <point x="111" y="0"/>
      <point x="62" y="-1"/>
      <point x="17" y="-2" type="curve"/>
      <point x="11" y="4"/>
      <point x="11" y="25"/>
      <point x="17" y="31" type="curve"/>
      <point x="87" y="34"/>
      <point x="104" y="39"/>
      <point x="104" y="122" type="curve" smooth="yes"/>
    </contour>
  </outline>
</glyph>
<glyph name="Q" format="2">
  <advance width="702"/>
  <unicode hex="0051"/>
  <anchor x="348" y="850" name="above"/>
  <anchor x="620" y="606" name="komb_OR"/>
  <anchor x="336" y="324" name="middle"/>
  <anchor x="619" y="732" name="right"/>
  <outline>
    <contour>
      <point x="331" y="622" type="line"/>
      <point x="232" y="622"/>
      <point x="133" y="537"/>
      <point x="133" y="327" type="curve" smooth="yes"/>
      <point x="133" y="135"/>
      <point x="248" y="26"/>
      <point x="370" y="26" type="curve" smooth="yes"/>
      <point x="484" y="26"/>
      <point x="570" y="131"/>
      <point x="570" y="310" type="curve" smooth="yes"/>
      <point x="570" y="512"/>
      <point x="463" y="622"/>
      <point x="331" y="622" type="curve"/>
    </contour>
    <contour>
      <point x="666" y="329" type="line"/>
      <point x="666" y="245"/>
      <point x="644" y="173"/>
      <point x="604" y="116" type="curve" smooth="yes"/>
      <point x="560" y="52"/>
      <point x="492" y="9"/>
      <point x="409" y="-5" type="curve"/>
      <point x="377" y="-14"/>
      <point x="328" y="-35"/>
      <point x="278" y="-72" type="curve"/>
      <point x="285" y="-70"/>
      <point x="292" y="-70"/>
      <point x="298" y="-70" type="curve" smooth="yes"/>
      <point x="356" y="-70"/>
      <point x="406" y="-92"/>
      <point x="452" y="-114" type="curve" smooth="yes"/>
      <point x="495" y="-134"/>
      <point x="535" y="-152"/>
      <point x="577" y="-152" type="curve" smooth="yes"/>
      <point x="606" y="-152"/>
      <point x="642" y="-142"/>
      <point x="664" y="-115" type="curve"/>
      <point x="681" y="-127" type="line"/>
      <point x="642" y="-183"/>
      <point x="600" y="-209"/>
      <point x="537" y="-209" type="curve" smooth="yes"/>
      <point x="466" y="-209"/>
      <point x="416" y="-182"/>
      <point x="369" y="-155" type="curve" smooth="yes"/>
      <point x="330" y="-133"/>
      <point x="294" y="-114"/>
      <point x="251" y="-114" type="curve" smooth="yes"/>
      <point x="243" y="-114"/>
      <point x="230" y="-117"/>
      <point x="216" y="-127" type="curve"/>
      <point x="202" y="-141"/>
      <point x="190" y="-156"/>
      <point x="178" y="-173" type="curve"/>
      <point x="139" y="-153" type="line"/>
      <point x="144" y="-145"/>
      <point x="150" y="-137"/>
      <point x="157" y="-130" type="curve"/>
      <point x="192" y="-87"/>
      <point x="248" y="-40"/>
      <point x="309" y="-8" type="curve"/>
      <point x="158" y="10"/>
      <point x="37" y="129"/>
      <point x="37" y="310" type="curve" smooth="yes"/>
      <point x="37" y="504"/>
      <point x="150" y="658"/>
      <point x="344" y="658" type="curve" smooth="yes"/>
      <point x="523" y="658"/>
      <point x="666" y="536"/>
      <point x="666" y="329" type="curve"/>
    </contour>
  </outline>
</glyph>
<glyph name="R" format="2">
  <advance width="587"/>
  <unicode hex="0052"/>
  <anchor x="278.0" y="468.0" name="middle"/>
  <anchor x="519.0" y="732.0" name="right"/>
  <anchor x="148.0" y="-1.0" name="cedilla"/>
  <anchor x="258.0" y="-110.0" name="below"/>
  <anchor x="269.0" y="850.0" name="above"/>
  <outline>
    <contour>
      <point x="272.0" y="618.0" type="curve" smooth="yes"/>
      <point x="201.0" y="618.0"/>
      <point x="189.0" y="583.0"/>
      <point x="189.0" y="554.0" type="curve" smooth="yes"/>
      <point x="189.0" y="325.0" type="line"/>
      <point x="237.0" y="325.0" type="line" smooth="yes"/>
      <point x="334.0" y="325.0"/>
      <point x="405.0" y="353.0"/>
      <point x="405.0" y="478.0" type="curve" smooth="yes"/>
      <point x="405.0" y="596.0"/>
      <point x="333.0" y="618.0"/>
    </contour>
    <contour>
      <point x="189.0" y="122.0" type="line" smooth="yes"/>
      <point x="189.0" y="39.0"/>
      <point x="206.0" y="34.0"/>
      <point x="276.0" y="31.0" type="curve"/>
      <point x="282.0" y="25.0"/>
      <point x="282.0" y="4.0"/>
      <point x="276.0" y="-2.0" type="curve"/>
      <point x="232.0" y="-1.0"/>
      <point x="184.6" y="0.0"/>
      <point x="147.0" y="0.0" type="curve" smooth="yes"/>
      <point x="108.5" y="0.0"/>
      <point x="62.0" y="-1.0"/>
      <point x="17.0" y="-2.0" type="curve"/>
      <point x="11.0" y="4.0"/>
      <point x="11.0" y="25.0"/>
      <point x="17.0" y="31.0" type="curve"/>
      <point x="87.0" y="34.0"/>
      <point x="104.0" y="39.0"/>
      <point x="104.0" y="122.0" type="curve" smooth="yes"/>
      <point x="104.0" y="523.0" type="line" smooth="yes"/>
      <point x="104.0" y="606.0"/>
      <point x="87.0" y="611.0"/>
      <point x="17.0" y="614.0" type="curve"/>
      <point x="11.0" y="620.0"/>
      <point x="11.0" y="641.0"/>
      <point x="17.0" y="647.0" type="curve"/>
      <point x="64.0" y="646.0"/>
      <point x="111.0" y="645.0"/>
      <point x="146.0" y="645.0" type="curve" smooth="yes"/>
      <point x="182.0" y="645.0"/>
      <point x="224.0" y="652.0"/>
      <point x="271.0" y="652.0" type="curve" smooth="yes"/>
      <point x="334.0" y="652.0"/>
      <point x="396.0" y="649.0"/>
      <point x="444.0" y="604.0" type="curve" smooth="yes"/>
      <point x="480.0" y="570.0"/>
      <point x="497.0" y="529.0"/>
      <point x="497.0" y="479.0" type="curve" smooth="yes"/>
      <point x="497.0" y="374.0"/>
      <point x="407.0" y="322.0"/>
      <point x="364.0" y="308.0" type="curve"/>
      <point x="490.0" y="98.0" type="line" smooth="yes"/>
      <point x="516.0" y="54.6"/>
      <point x="541.0" y="21.0"/>
      <point x="586.0" y="21.0" type="curve"/>
      <point x="590.0" y="13.0"/>
      <point x="590.5" y="3.9"/>
      <point x="587.0" y="-3.0" type="curve"/>
      <point x="577.0" y="-8.0"/>
      <point x="560.0" y="-10.0"/>
      <point x="545.0" y="-10.0" type="curve" smooth="yes"/>
      <point x="485.0" y="-10.0"/>
      <point x="441.7" y="32.4"/>
      <point x="413.0" y="79.0" type="curve" smooth="yes"/>
      <point x="306.0" y="253.0" type="line" smooth="yes"/>
      <point x="291.7" y="276.3"/>
      <point x="273.0" y="291.0"/>
      <point x="189.0" y="291.0" type="curve"/>
    </contour>
  </outline>
</glyph>
<glyph name="S" format="2">
  <advance width="485"/>
  <unicode hex="0053"/>
  <anchor x="232" y="850" name="above"/>
  <anchor x="234" y="-110" name="below"/>
  <anchor x="224" y="2" name="cedilla"/>
  <anchor x="236" y="345" name="middle"/>
  <anchor x="481" y="732" name="right"/>
  <outline>
    <contour>
      <point x="395" y="631" type="line"/>
      <point x="405" y="578"/>
      <point x="409" y="550"/>
      <point x="412" y="502" type="curve"/>
      <point x="404" y="495"/>
      <point x="390" y="494"/>
      <point x="380" y="496" type="curve"/>
      <point x="360" y="562"/>
      <point x="329" y="624"/>
      <point x="232" y="624" type="curve" smooth="yes"/>
      <point x="173" y="624"/>
      <point x="122" y="568"/>
      <point x="122" y="512" type="curve" smooth="yes"/>
      <point x="122" y="428"/>
      <point x="222" y="390"/>
      <point x="282" y="368" type="curve" smooth="yes"/>
      <point x="364" y="337"/>
      <point x="444" y="290"/>
      <point x="444" y="184" type="curve" smooth="yes"/>
      <point x="444" y="120"/>
      <point x="408" y="59"/>
      <point x="350" y="23" type="curve" smooth="yes"/>
      <point x="315" y="1"/>
      <point x="272" y="-10"/>
      <point x="227" y="-10" type="curve" smooth="yes"/>
      <point x="138" y="-10"/>
      <point x="110" y="13"/>
      <point x="47" y="13" type="curve"/>
      <point x="35" y="62"/>
      <point x="31" y="88"/>
      <point x="27" y="165" type="curve"/>
      <point x="37" y="170"/>
      <point x="47" y="172"/>
      <point x="60" y="168" type="curve"/>
      <point x="82" y="68"/>
      <point x="142" y="26"/>
      <point x="235" y="26" type="curve" smooth="yes"/>
      <point x="315" y="26"/>
      <point x="360" y="68"/>
      <point x="360" y="149" type="curve" smooth="yes"/>
      <point x="360" y="247"/>
      <point x="286" y="275"/>
      <point x="226" y="298" type="curve" smooth="yes"/>
      <point x="138" y="332"/>
      <point x="51" y="380"/>
      <point x="51" y="485" type="curve" smooth="yes"/>
      <point x="51" y="591"/>
      <point x="140" y="658"/>
      <point x="241" y="658" type="curve" smooth="yes"/>
      <point x="339" y="658"/>
      <point x="337" y="639"/>
      <point x="395" y="631" type="curve"/>
    </contour>
  </outline>
</glyph>
<glyph name="T" format="2">
  <advance width="597"/>
  <unicode hex="0054"/>
  <anchor x="307.0" y="285.0" name="middle"/>
  <anchor x="619.0" y="732.0" name="right"/>
  <anchor x="308.0" y="10.0" name="cedilla"/>
  <anchor x="300.0" y="-110.0" name="below"/>
  <anchor x="307.0" y="850.0" name="above"/>
  <outline>
    <contour>
      <point x="350.0" y="122.0" type="line" smooth="yes"/>
      <point x="350.0" y="39.0"/>
      <point x="367.0" y="34.0"/>
      <point x="447.0" y="31.0" type="curve"/>
      <point x="453.0" y="25.0"/>
      <point x="453.0" y="4.0"/>
      <point x="447.0" y="-2.0" type="curve"/>
      <point x="397.0" y="-1.0"/>
      <point x="346.4" y="0.0"/>
      <point x="308.0" y="0.0" type="curve" smooth="yes"/>
      <point x="267.9" y="0.0"/>
      <point x="217.0" y="-1.0"/>
      <point x="168.0" y="-2.0" type="curve"/>
      <point x="162.0" y="4.0"/>
      <point x="162.0" y="25.0"/>
      <point x="168.0" y="31.0" type="curve"/>
      <point x="248.0" y="34.0"/>
      <point x="265.0" y="39.0"/>
      <point x="265.0" y="122.0" type="curve" smooth="yes"/>
      <point x="265.0" y="507.0" type="line" smooth="yes"/>
      <point x="265.0" y="568.0"/>
      <point x="255.0" y="606.0"/>
      <point x="218.0" y="606.0" type="curve" smooth="yes"/>
      <point x="169.0" y="606.0" type="line" smooth="yes"/>
      <point x="103.0" y="606.0"/>
      <point x="57.0" y="580.0"/>
      <point x="37.0" y="500.0" type="curve"/>
      <point x="25.0" y="500.0"/>
      <point x="13.0" y="501.0"/>
      <point x="3.0" y="505.0" type="curve"/>
      <point x="14.0" y="553.0"/>
      <point x="24.0" y="605.0"/>
      <point x="28.0" y="650.0" type="curve" smooth="yes"/>
      <point x="28.0" y="651.0"/>
      <point x="30.0" y="653.0"/>
      <point x="32.0" y="653.0" type="curve" smooth="yes"/>
      <point x="70.0" y="650.0"/>
      <point x="188.0" y="645.0"/>
      <point x="265.0" y="645.0" type="curve" smooth="yes"/>
      <point x="351.0" y="645.0" type="line" smooth="yes"/>
      <point x="430.0" y="645.0"/>
      <point x="541.0" y="650.0"/>
      <point x="575.0" y="653.0" type="curve" smooth="yes"/>
      <point x="576.0" y="653.0"/>
      <point x="578.0" y="651.0"/>
      <point x="578.0" y="650.0" type="curve" smooth="yes"/>
      <point x="579.0" y="605.0"/>
      <point x="584.0" y="554.0"/>
      <point x="591.0" y="508.0" type="curve"/>
      <point x="582.0" y="504.0"/>
      <point x="568.0" y="503.0"/>
      <point x="557.0" y="503.0" type="curve"/>
      <point x="540.0" y="580.0"/>
      <point x="493.0" y="606.0"/>
      <point x="418.0" y="606.0" type="curve" smooth="yes"/>
      <point x="396.0" y="606.0" type="line" smooth="yes"/>
      <point x="360.0" y="606.0"/>
      <point x="350.0" y="568.0"/>
      <point x="350.0" y="504.0" type="curve" smooth="yes"/>
    </contour>
  </outline>
</glyph>
<glyph name="U" format="2">
  <advance width="661"/>
  <unicode hex="0055"/>
  <anchor x="336.0" y="321.0" name="middle"/>
  <anchor x="328.0" y="4.0" name="cedilla"/>
  <anchor x="328.0" y="-110.0" name="below"/>
  <anchor x="346.0" y="850.0" name="above"/>
  <outline>
    <contour>
      <point x="172.0" y="523.0" type="curve" smooth="yes"/>
      <point x="172.0" y="266.0" type="line" smooth="yes"/>
      <point x="172.0" y="201.0"/>
      <point x="174.0" y="125.0"/>
      <point x="223.0" y="78.0" type="curve" smooth="yes"/>
      <point x="253.1" y="49.1"/>
      <point x="294.0" y="31.0"/>
      <point x="342.0" y="31.0" type="curve" smooth="yes"/>
      <point x="511.0" y="31.0"/>
      <point x="526.0" y="165.0"/>
      <point x="526.0" y="277.0" type="curve" smooth="yes"/>
      <point x="526.0" y="523.0" type="line" smooth="yes"/>
      <point x="526.0" y="604.0"/>
      <point x="509.0" y="607.0"/>
      <point x="434.0" y="614.0" type="curve"/>
      <point x="428.0" y="620.0"/>
      <point x="428.0" y="641.0"/>
      <point x="434.0" y="647.0" type="curve"/>
      <point x="480.0" y="646.0"/>
      <point x="528.5" y="645.0"/>
      <point x="550.0" y="645.0" type="curve" smooth="yes"/>
      <point x="573.2" y="645.0"/>
      <point x="614.0" y="646.0"/>
      <point x="652.0" y="647.0" type="curve"/>
      <point x="658.0" y="641.0"/>
      <point x="658.0" y="620.0"/>
      <point x="652.0" y="614.0" type="curve"/>
      <point x="592.0" y="607.0"/>
      <point x="575.0" y="603.3"/>
      <point x="575.0" y="523.0" type="curve" smooth="yes"/>
      <point x="575.0" y="295.0" type="line" smooth="yes"/>
      <point x="575.0" y="117.0"/>
      <point x="526.0" y="-10.0"/>
      <point x="321.0" y="-10.0" type="curve" smooth="yes"/>
      <point x="218.5" y="-10.0"/>
      <point x="87.0" y="29.0"/>
      <point x="87.0" y="233.0" type="curve" smooth="yes"/>
      <point x="87.0" y="523.0" type="line" smooth="yes"/>
      <point x="87.0" y="606.0"/>
      <point x="70.0" y="611.0"/>
      <point x="10.0" y="614.0" type="curve"/>
      <point x="4.0" y="620.0"/>
      <point x="4.0" y="641.0"/>
      <point x="10.0" y="647.0" type="curve"/>
      <point x="49.0" y="646.0"/>
      <point x="90.0" y="645.0"/>
      <point x="129.0" y="645.0" type="curve" smooth="yes"/>
      <point x="168.4" y="645.0"/>
      <point x="217.0" y="646.0"/>
      <point x="264.0" y="647.0" type="curve"/>
      <point x="270.0" y="641.0"/>
      <point x="270.0" y="620.0"/>
      <point x="264.0" y="614.0" type="curve"/>
      <point x="187.0" y="611.0"/>
      <point x="172.0" y="606.0"/>
    </contour>
  </outline>
</glyph>
<glyph name="V" format="2">
  <advance width="652"/>
  <unicode hex="0056"/>
  <anchor x="336" y="850" name="above"/>
  <anchor x="318" y="-110" name="below"/>
  <anchor x="318" y="3" name="cedilla"/>
  <anchor x="334" y="474" name="middle"/>
  <anchor x="679" y="732" name="right"/>
  <outline>
    <contour>
      <point x="448" y="614" type="line"/>
      <point x="442" y="620"/>
      <point x="442" y="641"/>
      <point x="448" y="647" type="curve"/>
      <point x="489" y="646"/>
      <point x="534" y="645"/>
      <point x="557" y="645" type="curve" smooth="yes"/>
      <point x="580" y="645"/>
      <point x="615" y="646"/>
      <point x="645" y="647" type="curve"/>
      <point x="651" y="641"/>
      <point x="651" y="620"/>
      <point x="645" y="614" type="curve"/>
      <point x="582" y="607"/>
      <point x="566" y="568"/>
      <point x="547" y="521" type="curve" smooth="yes"/>
      <point x="340" y="11" type="line" smooth="yes"/>
      <point x="334" y="-3"/>
      <point x="327" y="-12"/>
      <point x="316" y="-12" type="curve" smooth="yes"/>
      <point x="306" y="-12"/>
      <point x="299" y="-5"/>
      <point x="293" y="11" type="curve" smooth="yes"/>
      <point x="96" y="523" type="line" smooth="yes"/>
      <point x="69" y="592"/>
      <point x="61" y="609"/>
      <point x="6" y="614" type="curve"/>
      <point x="0" y="620"/>
      <point x="-1" y="641"/>
      <point x="5" y="647" type="curve"/>
      <point x="38" y="646"/>
      <point x="73" y="645"/>
      <point x="109" y="645" type="curve" smooth="yes"/>
      <point x="145" y="645"/>
      <point x="190" y="646"/>
      <point x="230" y="647" type="curve"/>
      <point x="236" y="641"/>
      <point x="236" y="620"/>
      <point x="230" y="614" type="curve"/>
      <point x="162" y="607"/>
      <point x="156" y="594"/>
      <point x="179" y="534" type="curve" smooth="yes"/>
      <point x="338" y="127" type="line"/>
      <point x="343" y="127" type="line"/>
      <point x="501" y="528" type="line" smooth="yes"/>
      <point x="522" y="582"/>
      <point x="522" y="609"/>
      <point x="448" y="614" type="curve"/>
    </contour>
  </outline>
</glyph>
<glyph name="W" format="2">
  <advance width="951"/>
  <unicode hex="0057"/>
  <anchor x="979.0" y="732.0" name="right"/>
  <anchor x="295.0" y="0.0" name="cedilla"/>
  <anchor x="479.0" y="-110.0" name="below"/>
  <anchor x="450.0" y="850.0" name="above"/>
  <outline>
    <contour>
      <point x="810.0" y="565.0" type="line" smooth="yes"/>
      <point x="825.3" y="607.6"/>
      <point x="785.0" y="611.0"/>
      <point x="744.0" y="614.0" type="curve"/>
      <point x="738.0" y="620.0"/>
      <point x="738.0" y="641.0"/>
      <point x="744.0" y="647.0" type="curve"/>
      <point x="784.0" y="646.0"/>
      <point x="828.0" y="645.0"/>
      <point x="854.0" y="645.0" type="curve" smooth="yes"/>
      <point x="880.0" y="645.0"/>
      <point x="912.0" y="646.0"/>
      <point x="941.0" y="647.0" type="curve"/>
      <point x="947.0" y="641.0"/>
      <point x="947.0" y="620.0"/>
      <point x="941.0" y="614.0" type="curve"/>
      <point x="886.0" y="611.0"/>
      <point x="867.9" y="587.7"/>
      <point x="855.0" y="553.0" type="curve" smooth="yes"/>
      <point x="654.0" y="14.0" type="line" smooth="yes"/>
      <point x="649.0" y="-1.0"/>
      <point x="642.0" y="-12.0"/>
      <point x="631.0" y="-12.0" type="curve" smooth="yes"/>
      <point x="619.0" y="-12.0"/>
      <point x="613.9" y="-2.0"/>
      <point x="608.0" y="15.0" type="curve" smooth="yes"/>
      <point x="493.0" y="347.0" type="line" smooth="yes"/>
      <point x="487.1" y="364.1"/>
      <point x="483.0" y="375.0"/>
      <point x="479.0" y="375.0" type="curve" smooth="yes"/>
      <point x="474.0" y="375.0"/>
      <point x="470.9" y="370.0"/>
      <point x="462.0" y="350.0" type="curve" smooth="yes"/>
      <point x="313.0" y="15.0" type="line" smooth="yes"/>
      <point x="305.6" y="-1.6"/>
      <point x="300.0" y="-12.0"/>
      <point x="287.0" y="-12.0" type="curve" smooth="yes"/>
      <point x="275.5" y="-12.0"/>
      <point x="270.4" y="-0.9"/>
      <point x="265.0" y="15.0" type="curve" smooth="yes"/>
      <point x="77.0" y="556.0" type="line" smooth="yes"/>
      <point x="58.4" y="609.5"/>
      <point x="51.0" y="611.0"/>
      <point x="6.0" y="614.0" type="curve"/>
      <point x="0.0" y="620.0"/>
      <point x="0.0" y="641.0"/>
      <point x="6.0" y="647.0" type="curve"/>
      <point x="35.0" y="646.0"/>
      <point x="64.3" y="645.0"/>
      <point x="99.0" y="645.0" type="curve" smooth="yes"/>
      <point x="138.0" y="645.0"/>
      <point x="182.0" y="646.0"/>
      <point x="215.0" y="647.0" type="curve"/>
      <point x="221.0" y="641.0"/>
      <point x="221.0" y="620.0"/>
      <point x="215.0" y="614.0" type="curve"/>
      <point x="180.0" y="612.0"/>
      <point x="153.4" y="607.1"/>
      <point x="165.0" y="572.0" type="curve" smooth="yes"/>
      <point x="311.2" y="129.7" type="line"/>
      <point x="315.5" y="128.7" type="line"/>
      <point x="445.0" y="422.0" type="line" smooth="yes"/>
      <point x="452.5" y="438.9"/>
      <point x="454.0" y="446.7"/>
      <point x="454.0" y="457.0" type="curve" smooth="yes"/>
      <point x="454.0" y="466.0"/>
      <point x="450.9" y="476.0"/>
      <point x="447.0" y="488.0" type="curve" smooth="yes"/>
      <point x="424.0" y="554.0" type="line" smooth="yes"/>
      <point x="415.0" y="579.7"/>
      <point x="393.0" y="611.0"/>
      <point x="340.0" y="614.0" type="curve"/>
      <point x="334.0" y="620.0"/>
      <point x="334.0" y="641.0"/>
      <point x="340.0" y="647.0" type="curve"/>
      <point x="372.0" y="646.0"/>
      <point x="407.0" y="645.0"/>
      <point x="440.0" y="645.0" type="curve" smooth="yes"/>
      <point x="480.0" y="645.0"/>
      <point x="524.0" y="646.0"/>
      <point x="565.0" y="647.0" type="curve"/>
      <point x="571.0" y="641.0"/>
      <point x="571.0" y="620.0"/>
      <point x="565.0" y="614.0" type="curve"/>
      <point x="531.0" y="611.0"/>
      <point x="495.5" y="607.8"/>
      <point x="513.0" y="554.0" type="curve" smooth="yes"/>
      <point x="650.5" y="132.0" type="line"/>
      <point x="653.7" y="130.7" type="line"/>
    </contour>
  </outline>
</glyph>
<glyph name="X" format="2">
  <advance width="660"/>
  <unicode hex="0058"/>
  <anchor x="326.0" y="325.0" name="middle"/>
  <anchor x="689.0" y="732.0" name="right"/>
  <anchor x="102.0" y="0.0" name="cedilla"/>
  <anchor x="307.0" y="-110.0" name="below"/>
  <anchor x="332.0" y="850.0" name="above"/>
  <outline>
    <contour>
      <point x="538.0" y="102.0" type="line" smooth="yes"/>
      <point x="580.4" y="43.7"/>
      <point x="597.0" y="34.0"/>
      <point x="639.0" y="31.0" type="curve"/>
      <point x="645.0" y="25.0"/>
      <point x="646.0" y="4.0"/>
      <point x="640.0" y="-2.0" type="curve"/>
      <point x="610.0" y="-1.0"/>
      <point x="577.0" y="0.0"/>
      <point x="538.0" y="0.0" type="curve" smooth="yes"/>
      <point x="498.0" y="0.0"/>
      <point x="461.0" y="-1.0"/>
      <point x="424.0" y="-2.0" type="curve"/>
      <point x="418.0" y="4.0"/>
      <point x="418.0" y="25.0"/>
      <point x="424.0" y="31.0" type="curve"/>
      <point x="480.0" y="34.0"/>
      <point x="475.8" y="44.9"/>
      <point x="447.5" y="85.2" type="curve" smooth="yes"/>
      <point x="324.0" y="261.0" type="line" smooth="yes"/>
      <point x="318.4" y="269.0"/>
      <point x="314.0" y="272.0"/>
      <point x="310.0" y="272.0" type="curve" smooth="yes"/>
      <point x="307.0" y="272.0"/>
      <point x="300.7" y="266.0"/>
      <point x="295.0" y="258.0" type="curve" smooth="yes"/>
      <point x="163.0" y="73.0" type="line" smooth="yes"/>
      <point x="138.8" y="39.0"/>
      <point x="157.7" y="34.0"/>
      <point x="202.0" y="31.0" type="curve"/>
      <point x="208.0" y="25.0"/>
      <point x="208.0" y="4.0"/>
      <point x="202.0" y="-2.0" type="curve"/>
      <point x="162.0" y="-1.0"/>
      <point x="120.0" y="0.0"/>
      <point x="97.0" y="0.0" type="curve" smooth="yes"/>
      <point x="74.0" y="0.0"/>
      <point x="37.0" y="-1.0"/>
      <point x="7.0" y="-2.0" type="curve"/>
      <point x="1.0" y="4.0"/>
      <point x="1.0" y="25.0"/>
      <point x="7.0" y="31.0" type="curve"/>
      <point x="51.7" y="35.3"/>
      <point x="83.7" y="47.1"/>
      <point x="118.0" y="93.0" type="curve" smooth="yes"/>
      <point x="266.0" y="291.0" type="line" smooth="yes"/>
      <point x="271.9" y="298.9"/>
      <point x="276.0" y="308.0"/>
      <point x="276.0" y="314.0" type="curve" smooth="yes"/>
      <point x="276.0" y="324.0"/>
      <point x="270.2" y="332.3"/>
      <point x="262.0" y="344.0" type="curve" smooth="yes"/>
      <point x="119.7" y="547.0" type="line" smooth="yes"/>
      <point x="78.5" y="605.7"/>
      <point x="60.0" y="611.0"/>
      <point x="18.0" y="614.0" type="curve"/>
      <point x="12.0" y="620.0"/>
      <point x="11.0" y="641.0"/>
      <point x="17.0" y="647.0" type="curve"/>
      <point x="47.0" y="646.0"/>
      <point x="80.0" y="645.0"/>
      <point x="119.0" y="645.0" type="curve" smooth="yes"/>
      <point x="159.0" y="645.0"/>
      <point x="196.0" y="646.0"/>
      <point x="233.0" y="647.0" type="curve"/>
      <point x="239.0" y="641.0"/>
      <point x="239.0" y="620.0"/>
      <point x="233.0" y="614.0" type="curve"/>
      <point x="177.0" y="611.0"/>
      <point x="181.3" y="599.8"/>
      <point x="209.5" y="559.8" type="curve"/>
      <point x="320.0" y="396.0" type="line" smooth="yes"/>
      <point x="324.8" y="389.0"/>
      <point x="329.0" y="385.0"/>
      <point x="332.0" y="385.0" type="curve" smooth="yes"/>
      <point x="336.0" y="385.0"/>
      <point x="342.0" y="388.5"/>
      <point x="348.0" y="397.0" type="curve" smooth="yes"/>
      <point x="471.0" y="572.0" type="line" smooth="yes"/>
      <point x="494.5" y="605.4"/>
      <point x="476.3" y="611.0"/>
      <point x="432.0" y="614.0" type="curve"/>
      <point x="426.0" y="620.0"/>
      <point x="426.0" y="641.0"/>
      <point x="432.0" y="647.0" type="curve"/>
      <point x="472.0" y="646.0"/>
      <point x="514.0" y="645.0"/>
      <point x="537.0" y="645.0" type="curve" smooth="yes"/>
      <point x="560.0" y="645.0"/>
      <point x="597.0" y="646.0"/>
      <point x="627.0" y="647.0" type="curve"/>
      <point x="633.0" y="641.0"/>
      <point x="633.0" y="620.0"/>
      <point x="627.0" y="614.0" type="curve"/>
      <point x="582.3" y="609.7"/>
      <point x="550.7" y="596.9"/>
      <point x="516.0" y="552.0" type="curve" smooth="yes"/>
      <point x="379.0" y="375.0" type="line" smooth="yes"/>
      <point x="369.9" y="363.2"/>
      <point x="369.0" y="354.0"/>
      <point x="369.0" y="345.0" type="curve" smooth="yes"/>
      <point x="369.0" y="335.0"/>
      <point x="375.2" y="325.4"/>
      <point x="385.0" y="312.0" type="curve" smooth="yes"/>
    </contour>
  </outline>
</glyph>
<glyph name="Y" format="2">
  <advance width="575"/>
  <unicode hex="0059"/>
  <anchor x="295" y="850" name="above"/>
  <anchor x="295" y="-110" name="below"/>
  <anchor x="293" y="1" name="cedilla"/>
  <outline>
    <contour>
      <point x="337" y="122" type="line" smooth="yes"/>
      <point x="337" y="39"/>
      <point x="354" y="34"/>
      <point x="434" y="31" type="curve"/>
      <point x="440" y="25"/>
      <point x="440" y="4"/>
      <point x="434" y="-2" type="curve"/>
      <point x="384" y="-1"/>
      <point x="334" y="0"/>
      <point x="295" y="0" type="curve" smooth="yes"/>
      <point x="256" y="0"/>
      <point x="204" y="-1"/>
      <point x="155" y="-2" type="curve"/>
      <point x="149" y="4"/>
      <point x="149" y="25"/>
      <point x="155" y="31" type="curve"/>
      <point x="235" y="34"/>
      <point x="252" y="39"/>
      <point x="252" y="122" type="curve" smooth="yes"/>
      <point x="252" y="249" type="line" smooth="yes"/>
      <point x="252" y="286"/>
      <point x="248" y="296"/>
      <point x="231" y="326" type="curve" smooth="yes"/>
      <point x="100" y="547" type="line" smooth="yes"/>
      <point x="65" y="605"/>
      <point x="48" y="611"/>
      <point x="6" y="614" type="curve"/>
      <point x="0" y="620"/>
      <point x="-1" y="641"/>
      <point x="5" y="647" type="curve"/>
      <point x="35" y="646"/>
      <point x="68" y="645"/>
      <point x="107" y="645" type="curve" smooth="yes"/>
      <point x="147" y="645"/>
      <point x="185" y="646"/>
      <point x="221" y="647" type="curve"/>
      <point x="227" y="641"/>
      <point x="227" y="620"/>
      <point x="221" y="614" type="curve"/>
      <point x="165" y="611"/>
      <point x="161" y="601"/>
      <point x="185" y="559" type="curve" smooth="yes"/>
      <point x="301" y="354" type="line" smooth="yes"/>
      <point x="310" y="338"/>
      <point x="315" y="337"/>
      <point x="323" y="352" type="curve" smooth="yes"/>
      <point x="434" y="561" type="line" smooth="yes"/>
      <point x="455" y="601"/>
      <point x="439" y="611"/>
      <point x="395" y="614" type="curve"/>
      <point x="389" y="620"/>
      <point x="389" y="641"/>
      <point x="395" y="647" type="curve"/>
      <point x="427" y="646"/>
      <point x="463" y="645"/>
      <point x="486" y="645" type="curve" smooth="yes"/>
      <point x="509" y="645"/>
      <point x="541" y="646"/>
      <point x="569" y="647" type="curve"/>
      <point x="575" y="641"/>
      <point x="575" y="620"/>
      <point x="569" y="614" type="curve"/>
      <point x="524" y="610"/>
      <point x="502" y="601"/>
      <point x="474" y="550" type="curve" smooth="yes"/>
      <point x="354" y="334" type="line" smooth="yes"/>
      <point x="338" y="304"/>
      <point x="337" y="288"/>
      <point x="337" y="258" type="curve" smooth="yes"/>
    </contour>
  </outline>
</glyph>
<glyph name="Z" format="2">
  <advance width="604"/>
  <unicode hex="005A"/>
  <anchor x="305.0" y="321.0" name="middle"/>
  <anchor x="619.0" y="732.0" name="right"/>
  <anchor x="287.0" y="4.0" name="cedilla"/>
  <anchor x="287.0" y="-110.0" name="below"/>
  <anchor x="320.0" y="850.0" name="above"/>
  <outline>
    <contour>
      <point x="551.0" y="-2.0" type="curve"/>
      <point x="551.0" y="-2.0"/>
      <point x="451.3" y="0.0"/>
      <point x="424.3" y="0.0" type="curve" smooth="yes"/>
      <point x="60.0" y="0.0" type="line" smooth="yes"/>
      <point x="46.0" y="0.0"/>
      <point x="41.0" y="5.0"/>
      <point x="41.0" y="15.0" type="curve" smooth="yes"/>
      <point x="41.0" y="22.0"/>
      <point x="43.0" y="30.0"/>
      <point x="49.0" y="38.0" type="curve" smooth="yes"/>
      <point x="151.0" y="190.0"/>
      <point x="341.0" y="456.0"/>
      <point x="438.0" y="579.0" type="curve" smooth="yes"/>
      <point x="443.0" y="586.0"/>
      <point x="446.0" y="592.0"/>
      <point x="446.0" y="597.0" type="curve" smooth="yes"/>
      <point x="446.0" y="603.0"/>
      <point x="441.9" y="606.1"/>
      <point x="436.0" y="606.0" type="curve" smooth="yes"/>
      <point x="225.0" y="602.0" type="line" smooth="yes"/>
      <point x="150.0" y="600.6"/>
      <point x="112.0" y="565.0"/>
      <point x="91.0" y="496.0" type="curve"/>
      <point x="80.0" y="496.0"/>
      <point x="71.0" y="498.0"/>
      <point x="61.0" y="501.0" type="curve"/>
      <point x="69.0" y="542.0"/>
      <point x="79.0" y="599.0"/>
      <point x="83.0" y="653.0" type="curve"/>
      <point x="120.0" y="650.0"/>
      <point x="217.0" y="645.0"/>
      <point x="264.0" y="645.0" type="curve" smooth="yes"/>
      <point x="485.0" y="645.0" type="line" smooth="yes"/>
      <point x="515.0" y="645.0"/>
      <point x="546.0" y="647.0"/>
      <point x="558.0" y="647.0" type="curve" smooth="yes"/>
      <point x="566.0" y="647.0"/>
      <point x="571.0" y="643.0"/>
      <point x="571.0" y="636.0" type="curve" smooth="yes"/>
      <point x="571.0" y="625.0"/>
      <point x="568.1" y="618.2"/>
      <point x="547.0" y="591.0" type="curve" smooth="yes"/>
      <point x="429.0" y="439.0"/>
      <point x="245.0" y="178.0"/>
      <point x="172.0" y="72.0" type="curve" smooth="yes"/>
      <point x="167.0" y="63.0"/>
      <point x="164.0" y="57.0"/>
      <point x="164.0" y="52.0" type="curve" smooth="yes"/>
      <point x="164.0" y="43.0"/>
      <point x="172.0" y="37.6"/>
      <point x="189.0" y="38.0" type="curve" smooth="yes"/>
      <point x="382.0" y="42.0" type="line" smooth="yes"/>
      <point x="491.0" y="44.0"/>
      <point x="516.0" y="99.0"/>
      <point x="547.0" y="170.0" type="curve"/>
      <point x="560.0" y="170.0"/>
      <point x="571.0" y="167.0"/>
      <point x="578.0" y="165.0" type="curve"/>
      <point x="566.0" y="113.0"/>
      <point x="556.0" y="54.0"/>
    </contour>
  </outline>
</glyph>
<glyph name="bracketleft" format="2">
  <advance width="356"/>
  <unicode hex="005B"/>
  <outline>
    <contour>
      <point x="108" y="-193" type="line"/>
      <point x="108" y="703" type="line"/>
      <point x="320" y="703" type="line"/>
      <point x="326" y="697"/>
      <point x="326" y="679"/>
      <point x="320" y="673" type="curve"/>
      <point x="183" y="663"/>
      <point x="175" y="648"/>
      <point x="175" y="561" type="curve" smooth="yes"/>
      <point x="175" y="-50" type="line" smooth="yes"/>
      <point x="175" y="-137"/>
      <point x="182" y="-152"/>
      <point x="320" y="-163" type="curve"/>
      <point x="326" y="-169"/>
      <point x="326" y="-187"/>
      <point x="320" y="-193" type="curve"/>
    </contour>
  </outline>
</glyph>
<glyph name="backslash" format="2">
  <advance width="287"/>
  <unicode hex="005C"/>
  <outline>
    <contour>
      <point x="55.0" y="698.0" type="line"/>
      <point x="285.0" y="-48.0" type="line"/>
      <point x="241.0" y="-48.0" type="line"/>
      <point x="11.0" y="698.0" type="line"/>
    </contour>
  </outline>
</glyph>
<glyph name="bracketright" format="2">
  <advance width="356"/>
  <unicode hex="005D"/>
  <outline>
    <contour>
      <point x="248.0" y="704.0" type="line"/>
      <point x="248.0" y="-192.0" type="line"/>
      <point x="36.0" y="-192.0" type="line"/>
      <point x="30.0" y="-186.0"/>
      <point x="30.0" y="-168.0"/>
      <point x="36.0" y="-162.0" type="curve"/>
      <point x="173.0" y="-152.0"/>
      <point x="181.0" y="-137.0"/>
      <point x="181.0" y="-50.0" type="curve" smooth="yes"/>
      <point x="181.0" y="561.0" type="line" smooth="yes"/>
      <point x="181.0" y="648.0"/>
      <point x="174.0" y="663.0"/>
      <point x="36.0" y="674.0" type="curve"/>
      <point x="30.0" y="680.0"/>
      <point x="30.0" y="698.0"/>
      <point x="36.0" y="704.0" type="curve"/>
    </contour>
  </outline>
</glyph>
<glyph name="asciicircum" format="2">
  <advance width="518"/>
  <unicode hex="005E"/>
  <outline>
    <contour>
      <point x="259.0" y="593.0" type="line"/>
      <point x="157.0" y="346.0" type="line"/>
      <point x="112.0" y="346.0" type="line"/>
      <point x="239.0" y="650.0" type="line"/>
      <point x="281.0" y="650.0" type="line"/>
      <point x="407.0" y="346.0" type="line"/>
      <point x="362.0" y="346.0" type="line"/>
    </contour>
  </outline>
</glyph>
<glyph name="underscore" format="2">
  <advance width="486"/>
  <unicode hex="005F"/>
  <outline>
    <contour>
      <point x="476.0" y="-110.0" type="line"/>
      <point x="484.0" y="-118.0"/>
      <point x="484.0" y="-146.0"/>
      <point x="476.0" y="-154.0" type="curve"/>
      <point x="10.0" y="-154.0" type="line"/>
      <point x="2.0" y="-146.0"/>
      <point x="2.0" y="-118.0"/>
      <point x="10.0" y="-110.0" type="curve"/>
    </contour>
  </outline>
</glyph>
<glyph name="a" format="2">
  <advance width="457"/>
  <unicode hex="0061"/>
  <anchor x="209" y="645" name="above"/>
  <anchor x="196" y="-110" name="below"/>
  <anchor x="167" y="-3" name="cedilla"/>
  <anchor x="410" y="16" name="ogonek"/>
  <outline>
    <contour>
      <point x="293" y="233" type="line"/>
      <point x="214" y="212" type="line" smooth="yes"/>
      <point x="140" y="193"/>
      <point x="119" y="147"/>
      <point x="119" y="102" type="curve" smooth="yes"/>
      <point x="119" y="71"/>
      <point x="141" y="31"/>
      <point x="191" y="31" type="curve" smooth="yes"/>
      <point x="219" y="31"/>
      <point x="253" y="54"/>
      <point x="279" y="75" type="curve" smooth="yes"/>
      <point x="287" y="81"/>
      <point x="293" y="88"/>
      <point x="293" y="101" type="curve" smooth="yes"/>
    </contour>
    <contour>
      <point x="293" y="48" type="curve"/>
      <point x="291" y="48" type="line"/>
      <point x="271" y="32" type="line" smooth="yes"/>
      <point x="227" y="-2"/>
      <point x="197" y="-10"/>
      <point x="162" y="-10" type="curve" smooth="yes"/>
      <point x="92" y="-10"/>
      <point x="36" y="16"/>
      <point x="36" y="98" type="curve" smooth="yes"/>
      <point x="36" y="166"/>
      <point x="105" y="219"/>
      <point x="201" y="243" type="curve" smooth="yes"/>
      <point x="287" y="264" type="line" smooth="yes"/>
      <point x="290" y="265"/>
      <point x="293" y="269"/>
      <point x="293" y="276" type="curve" smooth="yes"/>
      <point x="293" y="389"/>
      <point x="246" y="406"/>
      <point x="212" y="406" type="curve" smooth="yes"/>
      <point x="174" y="406"/>
      <point x="132" y="395"/>
      <point x="132" y="364" type="curve" smooth="yes"/>
      <point x="132" y="353"/>
      <point x="133" y="347"/>
      <point x="134" y="344" type="curve" smooth="yes"/>
      <point x="136" y="340"/>
      <point x="137" y="333"/>
      <point x="137" y="326" type="curve" smooth="yes"/>
      <point x="137" y="313"/>
      <point x="119" y="292"/>
      <point x="90" y="292" type="curve" smooth="yes"/>
      <point x="67" y="292"/>
      <point x="55" y="304"/>
      <point x="55" y="328" type="curve" smooth="yes"/>
      <point x="55" y="385"/>
      <point x="138" y="439"/>
      <point x="220" y="439" type="curve" smooth="yes"/>
      <point x="293" y="439"/>
      <point x="371" y="412"/>
      <point x="371" y="270" type="curve" smooth="yes"/>
      <point x="371" y="123" type="line" smooth="yes"/>
      <point x="371" y="77"/>
      <point x="372" y="38"/>
      <point x="401" y="38" type="curve" smooth="yes"/>
      <point x="414" y="38"/>
      <point x="430" y="48"/>
      <point x="438" y="54" type="curve"/>
      <point x="449" y="48"/>
      <point x="453" y="39"/>
      <point x="455" y="27" type="curve"/>
      <point x="434" y="7"/>
      <point x="398" y="-10"/>
      <point x="360" y="-10" type="curve" smooth="yes"/>
      <point x="310" y="-10"/>
      <point x="299" y="17"/>
    </contour>
  </outline>
</glyph>
<glyph name="c" format="2">
  <advance width="428"/>
  <unicode hex="0063"/>
  <anchor x="236.0" y="215.0" name="middle"/>
  <anchor x="361.0" y="42.0" name="ogonek"/>
  <anchor x="242.0" y="-2.0" name="cedilla"/>
  <anchor x="236.0" y="-110.0" name="below"/>
  <anchor x="242.0" y="645.0" name="above"/>
  <outline>
    <contour>
      <point x="398.0" y="91.0" type="curve"/>
      <point x="348.0" y="9.0"/>
      <point x="295.0" y="-10.0"/>
      <point x="235.0" y="-10.0" type="curve" smooth="yes"/>
      <point x="109.0" y="-10.0"/>
      <point x="37.0" y="79.0"/>
      <point x="37.0" y="208.0" type="curve" smooth="yes"/>
      <point x="37.0" y="350.0"/>
      <point x="143.0" y="439.0"/>
      <point x="242.0" y="439.0" type="curve" smooth="yes"/>
      <point x="338.0" y="439.0"/>
      <point x="395.0" y="399.0"/>
      <point x="395.0" y="344.0" type="curve" smooth="yes"/>
      <point x="395.0" y="313.0"/>
      <point x="367.0" y="300.0"/>
      <point x="346.0" y="300.0" type="curve" smooth="yes"/>
      <point x="325.0" y="300.0"/>
      <point x="311.0" y="309.0"/>
      <point x="308.0" y="336.0" type="curve" smooth="yes"/>
      <point x="304.0" y="371.0"/>
      <point x="296.0" y="406.0"/>
      <point x="237.0" y="406.0" type="curve" smooth="yes"/>
      <point x="171.0" y="406.0"/>
      <point x="123.0" y="340.0"/>
      <point x="123.0" y="230.0" type="curve" smooth="yes"/>
      <point x="123.0" y="113.0"/>
      <point x="184.0" y="39.0"/>
      <point x="257.0" y="39.0" type="curve" smooth="yes"/>
      <point x="300.0" y="39.0"/>
      <point x="343.0" y="61.0"/>
      <point x="377.0" y="105.0" type="curve"/>
      <point x="386.0" y="104.0"/>
      <point x="394.0" y="100.0"/>
    </contour>
  </outline>
</glyph>
<glyph name="d" format="2">
  <advance width="506"/>
  <unicode hex="0064"/>
  <anchor x="236.0" y="215.0" name="middle"/>
  <anchor x="500.0" y="466.0" name="komb_OR"/>
  <anchor x="490.0" y="580.0" name="right"/>
  <anchor x="218.0" y="645.0" name="above"/>
  <anchor x="312.0" y="20.0" name="ogonek"/>
  <anchor x="221.0" y="-110.0" name="below"/>
  <outline>
    <contour>
      <point x="345.0" y="124.0" type="curve" smooth="yes"/>
      <point x="345.0" y="314.0" type="line" smooth="yes"/>
      <point x="345.0" y="345.0"/>
      <point x="342.0" y="352.0"/>
      <point x="328.0" y="368.0" type="curve" smooth="yes"/>
      <point x="308.0" y="391.0"/>
      <point x="283.0" y="404.0"/>
      <point x="247.0" y="404.0" type="curve" smooth="yes"/>
      <point x="227.0" y="404.0"/>
      <point x="185.0" y="401.0"/>
      <point x="154.0" y="354.0" type="curve" smooth="yes"/>
      <point x="139.0" y="333.0"/>
      <point x="125.0" y="293.0"/>
      <point x="125.0" y="221.0" type="curve" smooth="yes"/>
      <point x="125.0" y="96.0"/>
      <point x="181.0" y="37.0"/>
      <point x="235.0" y="37.0" type="curve" smooth="yes"/>
      <point x="260.0" y="37.0"/>
      <point x="292.0" y="53.0"/>
      <point x="329.0" y="85.0" type="curve" smooth="yes"/>
      <point x="343.1" y="97.2"/>
      <point x="345.0" y="105.0"/>
    </contour>
    <contour>
      <point x="334.0" y="50.3" type="curve" smooth="yes"/>
      <point x="285.0" y="10.0"/>
      <point x="248.0" y="-10.0"/>
      <point x="209.0" y="-10.0" type="curve" smooth="yes"/>
      <point x="101.0" y="-10.0"/>
      <point x="39.0" y="80.0"/>
      <point x="39.0" y="203.0" type="curve" smooth="yes"/>
      <point x="39.0" y="277.0"/>
      <point x="65.0" y="336.0"/>
      <point x="108.0" y="379.0" type="curve"/>
      <point x="148.0" y="417.0"/>
      <point x="192.0" y="439.0"/>
      <point x="258.0" y="439.0" type="curve" smooth="yes"/>
      <point x="291.0" y="439.0"/>
      <point x="332.0" y="422.0"/>
      <point x="336.0" y="422.0" type="curve" smooth="yes"/>
      <point x="343.0" y="422.0"/>
      <point x="345.0" y="424.0"/>
      <point x="345.0" y="431.0" type="curve" smooth="yes"/>
      <point x="345.0" y="559.0" type="line" smooth="yes"/>
      <point x="345.0" y="643.0"/>
      <point x="333.0" y="638.0"/>
      <point x="281.0" y="641.0" type="curve"/>
      <point x="275.0" y="647.0"/>
      <point x="273.0" y="663.0"/>
      <point x="275.0" y="671.0" type="curve"/>
      <point x="315.0" y="674.0"/>
      <point x="390.0" y="688.0"/>
      <point x="415.0" y="698.0" type="curve"/>
      <point x="424.0" y="698.0"/>
      <point x="428.0" y="695.0"/>
      <point x="428.0" y="688.0" type="curve" smooth="yes"/>
      <point x="428.0" y="688.0"/>
      <point x="424.0" y="648.0"/>
      <point x="424.0" y="583.0" type="curve" smooth="yes"/>
      <point x="424.0" y="130.0" type="line" smooth="yes"/>
      <point x="424.0" y="81.0"/>
      <point x="433.0" y="62.0"/>
      <point x="497.0" y="57.0" type="curve"/>
      <point x="503.0" y="51.0"/>
      <point x="503.0" y="36.0"/>
      <point x="497.0" y="30.0" type="curve"/>
      <point x="436.0" y="23.0"/>
      <point x="401.0" y="8.0"/>
      <point x="379.0" y="-10.0" type="curve"/>
      <point x="373.0" y="-12.5"/>
      <point x="368.0" y="-13.0"/>
      <point x="360.0" y="-10.0" type="curve"/>
      <point x="360.0" y="-10.0"/>
      <point x="351.5" y="24.5"/>
      <point x="349.0" y="49.0" type="curve" smooth="yes"/>
      <point x="348.3" y="56.0"/>
      <point x="338.8" y="54.2"/>
    </contour>
  </outline>
</glyph>
<glyph name="e" format="2">
  <advance width="447"/>
  <unicode hex="0065"/>
  <anchor x="236.0" y="215.0" name="middle"/>
  <anchor x="420.0" y="396.0" name="komb_OR"/>
  <anchor x="241.0" y="-3.0" name="cedilla"/>
  <anchor x="384.3" y="41.0" name="ogonek"/>
  <anchor x="242.6" y="645.0" name="above"/>
  <anchor x="234.2" y="-110.0" name="below"/>
  <outline>
    <contour>
      <point x="124.0" y="282.0" type="curve"/>
      <point x="305.0" y="285.0" type="line" smooth="yes"/>
      <point x="316.0" y="285.2"/>
      <point x="320.0" y="290.0"/>
      <point x="320.0" y="299.0" type="curve" smooth="yes"/>
      <point x="320.0" y="383.0"/>
      <point x="275.0" y="404.0"/>
      <point x="237.0" y="404.0" type="curve" smooth="yes"/>
      <point x="213.0" y="404.0"/>
      <point x="143.0" y="395.0"/>
    </contour>
    <contour>
      <point x="386.0" y="93.0" type="curve"/>
      <point x="398.0" y="92.0"/>
      <point x="404.0" y="87.0"/>
      <point x="407.0" y="77.0" type="curve"/>
      <point x="367.0" y="25.0"/>
      <point x="313.0" y="-10.0"/>
      <point x="237.0" y="-10.0" type="curve" smooth="yes"/>
      <point x="165.0" y="-10.0"/>
      <point x="118.0" y="14.0"/>
      <point x="84.0" y="54.0" type="curve" smooth="yes"/>
      <point x="51.0" y="92.0"/>
      <point x="37.0" y="146.0"/>
      <point x="37.0" y="202.0" type="curve" smooth="yes"/>
      <point x="37.0" y="354.0"/>
      <point x="150.0" y="437.0"/>
      <point x="237.0" y="437.0" type="curve" smooth="yes"/>
      <point x="376.0" y="437.0"/>
      <point x="406.0" y="347.0"/>
      <point x="406.0" y="263.0" type="curve" smooth="yes"/>
      <point x="406.0" y="252.0"/>
      <point x="399.0" y="246.0"/>
      <point x="387.0" y="246.0" type="curve" smooth="yes"/>
      <point x="121.0" y="248.0" type="line"/>
      <point x="121.0" y="190.0"/>
      <point x="133.0" y="144.0"/>
      <point x="153.0" y="111.0" type="curve" smooth="yes"/>
      <point x="184.0" y="60.0"/>
      <point x="226.0" y="39.0"/>
      <point x="262.0" y="39.0" type="curve" smooth="yes"/>
      <point x="320.0" y="39.0"/>
      <point x="349.0" y="55.0"/>
    </contour>
  </outline>
</glyph>
<glyph name="f" format="2">
  <advance width="310"/>
  <unicode hex="0066"/>
  <anchor x="136.0" y="215.0" name="middle"/>
  <anchor x="410.0" y="750.0" name="right"/>
  <anchor x="132.0" y="-110.0" name="below"/>
  <outline>
    <contour>
      <point x="175.0" y="122.0" type="line" smooth="yes"/>
      <point x="175.0" y="39.0"/>
      <point x="181.0" y="35.0"/>
      <point x="259.0" y="31.0" type="curve"/>
      <point x="265.0" y="25.0"/>
      <point x="265.0" y="4.0"/>
      <point x="259.0" y="-2.0" type="curve"/>
      <point x="224.0" y="-1.0"/>
      <point x="176.0" y="0.0"/>
      <point x="136.0" y="0.0" type="curve" smooth="yes"/>
      <point x="96.0" y="0.0"/>
      <point x="61.0" y="-1.0"/>
      <point x="26.0" y="-2.0" type="curve"/>
      <point x="20.0" y="4.0"/>
      <point x="20.0" y="25.0"/>
      <point x="26.0" y="31.0" type="curve"/>
      <point x="80.0" y="35.0"/>
      <point x="96.0" y="39.0"/>
      <point x="96.0" y="122.0" type="curve" smooth="yes"/>
      <point x="96.0" y="390.0" type="line"/>
      <point x="27.0" y="390.0" type="line" smooth="yes"/>
      <point x="23.0" y="390.0"/>
      <point x="22.0" y="391.0"/>
      <point x="22.0" y="396.0" type="curve" smooth="yes"/>
      <point x="22.0" y="409.0" type="line" smooth="yes"/>
      <point x="22.0" y="417.0"/>
      <point x="27.0" y="429.0"/>
      <point x="45.0" y="429.0" type="curve" smooth="yes"/>
      <point x="96.0" y="429.0" type="line"/>
      <point x="96.0" y="469.0" type="line" smooth="yes"/>
      <point x="96.0" y="625.0"/>
      <point x="189.0" y="698.0"/>
      <point x="273.0" y="698.0" type="curve" smooth="yes"/>
      <point x="311.0" y="698.0"/>
      <point x="337.0" y="695.0"/>
      <point x="363.0" y="677.0" type="curve"/>
      <point x="384.0" y="661.0"/>
      <point x="395.0" y="643.0"/>
      <point x="395.0" y="626.0" type="curve" smooth="yes"/>
      <point x="395.0" y="606.0"/>
      <point x="371.0" y="585.0"/>
      <point x="354.0" y="585.0" type="curve" smooth="yes"/>
      <point x="333.0" y="585.0"/>
      <point x="322.0" y="599.0"/>
      <point x="314.0" y="617.0" type="curve" smooth="yes"/>
      <point x="300.0" y="652.0"/>
      <point x="284.0" y="664.0"/>
      <point x="254.0" y="664.0" type="curve" smooth="yes"/>
      <point x="221.0" y="664.0"/>
      <point x="175.0" y="640.0"/>
      <point x="175.0" y="486.0" type="curve" smooth="yes"/>
      <point x="175.0" y="429.0" type="line"/>
      <point x="283.0" y="429.0" type="line" smooth="yes"/>
      <point x="288.0" y="429.0"/>
      <point x="291.0" y="427.0"/>
      <point x="291.0" y="423.0" type="curve" smooth="yes"/>
      <point x="291.0" y="403.0" type="line" smooth="yes"/>
      <point x="291.0" y="394.0"/>
      <point x="277.0" y="390.0"/>
      <point x="268.0" y="390.0" type="curve" smooth="yes"/>
      <point x="175.0" y="390.0" type="line"/>
    </contour>
  </outline>
</glyph>
<glyph name="g" format="2">
  <advance width="500"/>
  <unicode hex="0067"/>
  <anchor x="227.0" y="285.0" name="middle"/>
  <anchor x="492.0" y="580.0" name="right"/>
  <anchor x="229.0" y="-319.0" name="below"/>
  <anchor x="231.0" y="645.0" name="above"/>
  <outline>
    <contour>
      <point x="319.0" y="279.0" type="curve" smooth="yes"/>
      <point x="319.0" y="362.0"/>
      <point x="285.0" y="408.0"/>
      <point x="222.0" y="408.0" type="curve" smooth="yes"/>
      <point x="167.0" y="408.0"/>
      <point x="142.0" y="372.0"/>
      <point x="142.0" y="302.0" type="curve" smooth="yes"/>
      <point x="142.0" y="238.0"/>
      <point x="151.0" y="167.0"/>
      <point x="235.0" y="167.0" type="curve" smooth="yes"/>
      <point x="272.0" y="167.0"/>
      <point x="319.0" y="186.0"/>
    </contour>
    <contour>
      <point x="132.0" y="-10.0" type="curve"/>
      <point x="103.0" y="-45.0"/>
      <point x="101.0" y="-70.0"/>
      <point x="101.0" y="-104.0" type="curve" smooth="yes"/>
      <point x="101.0" y="-172.0"/>
      <point x="185.0" y="-201.0"/>
      <point x="221.0" y="-201.0" type="curve" smooth="yes"/>
      <point x="311.0" y="-201.0"/>
      <point x="417.0" y="-163.0"/>
      <point x="417.0" y="-91.0" type="curve" smooth="yes"/>
      <point x="417.0" y="-65.0"/>
      <point x="405.0" y="-51.0"/>
      <point x="366.0" y="-29.0" type="curve" smooth="yes"/>
      <point x="337.0" y="-13.0"/>
      <point x="295.0" y="-12.0"/>
      <point x="245.0" y="-12.0" type="curve" smooth="yes"/>
      <point x="231.0" y="-12.0"/>
      <point x="203.0" y="-15.0"/>
      <point x="172.0" y="-15.0" type="curve" smooth="yes"/>
      <point x="159.0" y="-15.0"/>
      <point x="143.0" y="-13.0"/>
    </contour>
    <contour>
      <point x="444.0" y="387.0" type="curve" smooth="yes"/>
      <point x="433.0" y="387.0"/>
      <point x="420.0" y="397.0"/>
      <point x="416.0" y="405.0" type="curve"/>
      <point x="410.0" y="414.0"/>
      <point x="403.0" y="417.0"/>
      <point x="396.0" y="417.0" type="curve" smooth="yes"/>
      <point x="383.0" y="417.0"/>
      <point x="363.0" y="403.0"/>
      <point x="356.0" y="393.0" type="curve"/>
      <point x="385.0" y="363.0"/>
      <point x="399.0" y="336.0"/>
      <point x="399.0" y="289.0" type="curve" smooth="yes"/>
      <point x="399.0" y="191.0"/>
      <point x="318.0" y="136.0"/>
      <point x="230.0" y="136.0" type="curve" smooth="yes"/>
      <point x="191.0" y="136.0"/>
      <point x="163.0" y="143.0"/>
      <point x="139.0" y="157.0" type="curve"/>
      <point x="127.0" y="140.0"/>
      <point x="121.0" y="119.0"/>
      <point x="121.0" y="99.0" type="curve" smooth="yes"/>
      <point x="121.0" y="56.0"/>
      <point x="156.0" y="42.0"/>
      <point x="185.0" y="42.0" type="curve" smooth="yes"/>
      <point x="190.0" y="42.0"/>
      <point x="200.0" y="43.0"/>
      <point x="215.0" y="44.0" type="curve" smooth="yes"/>
      <point x="239.0" y="47.0"/>
      <point x="264.0" y="49.0"/>
      <point x="282.0" y="49.0" type="curve" smooth="yes"/>
      <point x="319.0" y="49.0"/>
      <point x="389.0" y="48.0"/>
      <point x="428.0" y="16.0" type="curve" smooth="yes"/>
      <point x="457.0" y="-8.0"/>
      <point x="472.0" y="-33.0"/>
      <point x="472.0" y="-65.0" type="curve" smooth="yes"/>
      <point x="472.0" y="-173.0"/>
      <point x="326.0" y="-238.0"/>
      <point x="191.0" y="-238.0" type="curve" smooth="yes"/>
      <point x="114.0" y="-238.0"/>
      <point x="32.0" y="-211.0"/>
      <point x="32.0" y="-124.0" type="curve" smooth="yes"/>
      <point x="32.0" y="-81.0"/>
      <point x="60.0" y="-35.0"/>
      <point x="114.0" y="-3.0" type="curve"/>
      <point x="88.0" y="10.0"/>
      <point x="68.0" y="38.0"/>
      <point x="68.0" y="74.0" type="curve" smooth="yes"/>
      <point x="68.0" y="108.0"/>
      <point x="84.0" y="151.0"/>
      <point x="112.0" y="175.0" type="curve"/>
      <point x="84.0" y="202.0"/>
      <point x="60.0" y="233.0"/>
      <point x="60.0" y="287.0" type="curve" smooth="yes"/>
      <point x="60.0" y="379.0"/>
      <point x="142.0" y="439.0"/>
      <point x="231.0" y="439.0" type="curve" smooth="yes"/>
      <point x="290.0" y="439.0"/>
      <point x="323.0" y="419.0"/>
      <point x="335.0" y="411.0" type="curve"/>
      <point x="361.0" y="445.0"/>
      <point x="409.0" y="462.0"/>
      <point x="435.0" y="462.0" type="curve" smooth="yes"/>
      <point x="462.0" y="462.0"/>
      <point x="481.0" y="446.0"/>
      <point x="481.0" y="425.0" type="curve" smooth="yes"/>
      <point x="481.0" y="405.0"/>
      <point x="463.0" y="387.0"/>
    </contour>
  </outline>
</glyph>
<glyph name="h" format="2">
  <advance width="538"/>
  <unicode hex="0068"/>
  <anchor x="264.0" y="215.0" name="middle"/>
  <anchor x="429.0" y="580.0" name="right"/>
  <anchor x="423.0" y="10.0" name="ogonek"/>
  <anchor x="299.0" y="645.0" name="above"/>
  <anchor x="272.0" y="-110.0" name="below"/>
  <outline>
    <contour>
      <point x="167.0" y="285.9" type="curve" smooth="yes"/>
      <point x="167.0" y="122.0" type="line" smooth="yes"/>
      <point x="167.0" y="39.0"/>
      <point x="176.0" y="35.0"/>
      <point x="226.8" y="31.0" type="curve"/>
      <point x="232.8" y="25.0"/>
      <point x="232.8" y="4.0"/>
      <point x="226.8" y="-2.0" type="curve"/>
      <point x="198.8" y="-1.0"/>
      <point x="166.0" y="0.0"/>
      <point x="128.0" y="0.0" type="curve" smooth="yes"/>
      <point x="88.0" y="0.0"/>
      <point x="51.2" y="-1.0"/>
      <point x="18.2" y="-2.0" type="curve"/>
      <point x="12.2" y="4.0"/>
      <point x="12.2" y="25.0"/>
      <point x="18.2" y="31.0" type="curve"/>
      <point x="76.2" y="35.0"/>
      <point x="88.0" y="39.0"/>
      <point x="88.0" y="122.0" type="curve" smooth="yes"/>
      <point x="88.0" y="559.0" type="line" smooth="yes"/>
      <point x="88.0" y="643.0"/>
      <point x="76.0" y="638.0"/>
      <point x="24.0" y="641.0" type="curve"/>
      <point x="18.0" y="647.0"/>
      <point x="16.0" y="663.0"/>
      <point x="18.0" y="671.0" type="curve"/>
      <point x="58.0" y="674.0"/>
      <point x="133.0" y="688.0"/>
      <point x="158.0" y="698.0" type="curve"/>
      <point x="167.0" y="698.0"/>
      <point x="171.0" y="695.0"/>
      <point x="171.0" y="688.0" type="curve" smooth="yes"/>
      <point x="171.0" y="688.0"/>
      <point x="167.0" y="648.0"/>
      <point x="167.0" y="583.0" type="curve" smooth="yes"/>
      <point x="166.2" y="358.0" type="line" smooth="yes"/>
      <point x="166.2" y="344.0"/>
      <point x="172.6" y="354.2"/>
      <point x="176.0" y="358.0" type="curve" smooth="yes"/>
      <point x="237.0" y="426.0"/>
      <point x="296.9" y="439.0"/>
      <point x="346.0" y="439.0" type="curve" smooth="yes"/>
      <point x="381.0" y="439.0"/>
      <point x="412.2" y="427.0"/>
      <point x="429.0" y="405.0" type="curve" smooth="yes"/>
      <point x="452.3" y="374.5"/>
      <point x="456.0" y="326.0"/>
      <point x="456.0" y="271.0" type="curve" smooth="yes"/>
      <point x="456.0" y="122.0" type="line" smooth="yes"/>
      <point x="456.0" y="40.0"/>
      <point x="467.0" y="36.0"/>
      <point x="523.0" y="31.0" type="curve"/>
      <point x="528.0" y="25.0"/>
      <point x="528.0" y="4.0"/>
      <point x="523.0" y="-2.0" type="curve"/>
      <point x="490.0" y="-1.0"/>
      <point x="457.0" y="0.0"/>
      <point x="417.0" y="0.0" type="curve" smooth="yes"/>
      <point x="377.0" y="0.0"/>
      <point x="343.0" y="-1.0"/>
      <point x="315.0" y="-2.0" type="curve"/>
      <point x="310.0" y="4.0"/>
      <point x="310.0" y="25.0"/>
      <point x="315.0" y="31.0" type="curve"/>
      <point x="367.0" y="36.0"/>
      <point x="377.0" y="40.0"/>
      <point x="377.0" y="122.0" type="curve" smooth="yes"/>
      <point x="377.0" y="274.0" type="line" smooth="yes"/>
      <point x="377.0" y="304.0"/>
      <point x="375.0" y="331.2"/>
      <point x="365.0" y="351.0" type="curve" smooth="yes"/>
      <point x="353.4" y="373.9"/>
      <point x="332.4" y="387.0"/>
      <point x="312.0" y="387.0" type="curve" smooth="yes"/>
      <point x="272.6" y="387.0"/>
      <point x="222.0" y="365.3"/>
      <point x="184.0" y="328.0" type="curve" smooth="yes"/>
      <point x="176.0" y="319.3"/>
      <point x="167.0" y="307.0"/>
    </contour>
  </outline>
</glyph>
<glyph name="k" format="2">
  <advance width="512"/>
  <unicode hex="006B"/>
  <anchor x="535.6" y="696.4" name="right"/>
  <anchor x="107.9" y="-57.3" name="cedilla"/>
  <anchor x="305.9" y="783.5" name="above"/>
  <anchor x="290.1" y="-214.4" name="below"/>
  <outline>
    <contour>
      <point x="86.0" y="122.0" type="curve" smooth="yes"/>
      <point x="86.0" y="559.0" type="line" smooth="yes"/>
      <point x="86.0" y="643.0"/>
      <point x="74.0" y="638.0"/>
      <point x="22.0" y="641.0" type="curve"/>
      <point x="16.0" y="647.0"/>
      <point x="14.0" y="663.0"/>
      <point x="16.0" y="671.0" type="curve"/>
      <point x="56.0" y="674.0"/>
      <point x="131.0" y="688.0"/>
      <point x="156.0" y="698.0" type="curve"/>
      <point x="165.0" y="698.0"/>
      <point x="169.0" y="695.0"/>
      <point x="169.0" y="688.0" type="curve" smooth="yes"/>
      <point x="169.0" y="688.0"/>
      <point x="165.0" y="648.0"/>
      <point x="165.0" y="583.0" type="curve" smooth="yes"/>
      <point x="165.0" y="234.2" type="line"/>
      <point x="183.9" y="236.8"/>
      <point x="210.8" y="248.6"/>
      <point x="233.0" y="265.0" type="curve" smooth="yes"/>
      <point x="258.7" y="284.0"/>
      <point x="290.0" y="318.0"/>
      <point x="313.0" y="347.0" type="curve" smooth="yes"/>
      <point x="322.3" y="358.7"/>
      <point x="346.0" y="394.0"/>
      <point x="290.0" y="398.0" type="curve"/>
      <point x="284.0" y="404.0"/>
      <point x="284.0" y="425.0"/>
      <point x="290.0" y="431.0" type="curve"/>
      <point x="313.0" y="430.0"/>
      <point x="350.0" y="429.0"/>
      <point x="388.0" y="429.0" type="curve" smooth="yes"/>
      <point x="424.0" y="429.0"/>
      <point x="452.0" y="430.0"/>
      <point x="475.0" y="431.0" type="curve"/>
      <point x="481.0" y="425.0"/>
      <point x="481.0" y="404.0"/>
      <point x="475.0" y="398.0" type="curve"/>
      <point x="435.0" y="394.0"/>
      <point x="400.0" y="386.0"/>
      <point x="370.0" y="354.0" type="curve" smooth="yes"/>
      <point x="282.0" y="263.0" type="line" smooth="yes"/>
      <point x="278.0" y="259.0"/>
      <point x="278.0" y="257.0"/>
      <point x="278.0" y="253.0" type="curve" smooth="yes"/>
      <point x="278.0" y="248.0"/>
      <point x="281.4" y="243.5"/>
      <point x="285.0" y="239.0" type="curve" smooth="yes"/>
      <point x="417.0" y="73.0" type="line" smooth="yes"/>
      <point x="443.7" y="39.4"/>
      <point x="469.0" y="35.0"/>
      <point x="503.0" y="31.0" type="curve"/>
      <point x="509.0" y="25.0"/>
      <point x="509.0" y="4.0"/>
      <point x="503.0" y="-2.0" type="curve"/>
      <point x="483.0" y="-1.0"/>
      <point x="452.0" y="0.0"/>
      <point x="421.0" y="0.0" type="curve" smooth="yes"/>
      <point x="401.0" y="0.0"/>
      <point x="379.0" y="-1.0"/>
      <point x="359.0" y="-2.0" type="curve" smooth="yes"/>
      <point x="356.0" y="-2.0"/>
      <point x="355.3" y="0.0"/>
      <point x="355.0" y="3.0" type="curve" smooth="yes"/>
      <point x="353.7" y="14.7"/>
      <point x="342.4" y="33.5"/>
      <point x="313.0" y="73.0" type="curve" smooth="yes"/>
      <point x="240.0" y="171.0" type="line" smooth="yes"/>
      <point x="228.1" y="187.0"/>
      <point x="219.0" y="196.0"/>
      <point x="208.0" y="203.5" type="curve"/>
      <point x="198.3" y="206.9"/>
      <point x="184.2" y="208.4"/>
      <point x="165.0" y="208.9" type="curve"/>
      <point x="165.0" y="122.0" type="line" smooth="yes"/>
      <point x="165.0" y="39.0"/>
      <point x="176.0" y="35.0"/>
      <point x="217.0" y="31.0" type="curve"/>
      <point x="223.0" y="25.0"/>
      <point x="223.0" y="4.0"/>
      <point x="217.0" y="-2.0" type="curve"/>
      <point x="194.0" y="-1.0"/>
      <point x="161.0" y="0.0"/>
      <point x="126.0" y="0.0" type="curve" smooth="yes"/>
      <point x="86.0" y="0.0"/>
      <point x="52.0" y="-1.0"/>
      <point x="19.0" y="-2.0" type="curve"/>
      <point x="13.0" y="4.0"/>
      <point x="13.0" y="25.0"/>
      <point x="19.0" y="31.0" type="curve"/>
      <point x="75.0" y="35.0"/>
      <point x="86.0" y="39.0"/>
    </contour>
  </outline>
</glyph>
<glyph name="l" format="2">
  <advance width="264"/>
  <unicode hex="006C"/>
  <anchor x="135.0" y="885.0" name="above"/>
  <anchor x="136.0" y="215.0" name="middle"/>
  <anchor x="249.0" y="733.0" name="right"/>
  <anchor x="135.0" y="10.0" name="cedilla"/>
  <anchor x="135.0" y="-110.0" name="below"/>
  <outline>
    <contour>
      <point x="95.0" y="122.0" type="curve" smooth="yes"/>
      <point x="95.0" y="559.0" type="line" smooth="yes"/>
      <point x="95.0" y="634.0"/>
      <point x="89.0" y="637.0"/>
      <point x="31.0" y="641.0" type="curve"/>
      <point x="25.0" y="647.0"/>
      <point x="23.0" y="663.0"/>
      <point x="25.0" y="671.0" type="curve"/>
      <point x="65.0" y="674.0"/>
      <point x="140.0" y="688.0"/>
      <point x="165.0" y="698.0" type="curve"/>
      <point x="174.0" y="698.0"/>
      <point x="178.0" y="695.0"/>
      <point x="178.0" y="688.0" type="curve" smooth="yes"/>
      <point x="178.0" y="688.0"/>
      <point x="174.0" y="648.0"/>
      <point x="174.0" y="583.0" type="curve" smooth="yes"/>
      <point x="174.0" y="122.0" type="line" smooth="yes"/>
      <point x="174.0" y="39.0"/>
      <point x="185.0" y="34.0"/>
      <point x="246.0" y="31.0" type="curve"/>
      <point x="252.0" y="25.0"/>
      <point x="252.0" y="4.0"/>
      <point x="246.0" y="-2.0" type="curve"/>
      <point x="213.0" y="-1.0"/>
      <point x="175.0" y="0.0"/>
      <point x="135.0" y="0.0" type="curve" smooth="yes"/>
      <point x="95.0" y="0.0"/>
      <point x="58.0" y="-1.0"/>
      <point x="23.0" y="-2.0" type="curve"/>
      <point x="17.0" y="4.0"/>
      <point x="17.0" y="25.0"/>
      <point x="23.0" y="31.0" type="curve"/>
      <point x="84.0" y="34.0"/>
      <point x="95.0" y="39.0"/>
    </contour>
  </outline>
</glyph>
<glyph name="m" format="2">
  <advance width="790"/>
  <unicode hex="006D"/>
  <anchor x="278.0" y="215.0" name="middle"/>
  <anchor x="137.0" y="9.0" name="cedilla"/>
  <anchor x="392.0" y="645.0" name="above"/>
  <anchor x="408.0" y="-110.0" name="below"/>
  <outline>
    <contour>
      <point x="170.0" y="358.0" type="curve" smooth="yes"/>
      <point x="170.5" y="346.0"/>
      <point x="177.4" y="352.9"/>
      <point x="182.0" y="358.0" type="curve" smooth="yes"/>
      <point x="223.7" y="404.6"/>
      <point x="276.0" y="439.0"/>
      <point x="334.0" y="439.0" type="curve" smooth="yes"/>
      <point x="386.0" y="439.0"/>
      <point x="424.5" y="406.6"/>
      <point x="434.0" y="365.6" type="curve" smooth="yes"/>
      <point x="436.0" y="357.0"/>
      <point x="442.0" y="362.0"/>
      <point x="445.0" y="365.2" type="curve" smooth="yes"/>
      <point x="497.1" y="420.2"/>
      <point x="558.8" y="439.0"/>
      <point x="610.0" y="439.0" type="curve" smooth="yes"/>
      <point x="698.0" y="439.0"/>
      <point x="713.0" y="369.0"/>
      <point x="713.0" y="280.0" type="curve" smooth="yes"/>
      <point x="713.0" y="122.0" type="line" smooth="yes"/>
      <point x="713.0" y="40.0"/>
      <point x="722.0" y="35.0"/>
      <point x="777.0" y="31.0" type="curve"/>
      <point x="782.0" y="25.0"/>
      <point x="782.0" y="4.0"/>
      <point x="777.0" y="-2.0" type="curve"/>
      <point x="749.0" y="-1.0"/>
      <point x="714.0" y="0.0"/>
      <point x="674.0" y="0.0" type="curve" smooth="yes"/>
      <point x="634.0" y="0.0"/>
      <point x="597.0" y="-1.0"/>
      <point x="572.0" y="-2.0" type="curve"/>
      <point x="567.0" y="4.0"/>
      <point x="567.0" y="25.0"/>
      <point x="572.0" y="31.0" type="curve"/>
      <point x="624.0" y="35.0"/>
      <point x="634.0" y="40.0"/>
      <point x="634.0" y="122.0" type="curve" smooth="yes"/>
      <point x="634.0" y="298.0" type="line" smooth="yes"/>
      <point x="634.0" y="365.0"/>
      <point x="612.0" y="387.0"/>
      <point x="574.0" y="387.0" type="curve" smooth="yes"/>
      <point x="535.0" y="387.0"/>
      <point x="490.0" y="374.0"/>
      <point x="442.0" y="321.0" type="curve"/>
      <point x="443.0" y="309.0"/>
      <point x="443.0" y="295.0"/>
      <point x="443.0" y="281.0" type="curve" smooth="yes"/>
      <point x="443.0" y="122.0" type="line" smooth="yes"/>
      <point x="443.0" y="40.0"/>
      <point x="452.0" y="35.0"/>
      <point x="502.0" y="31.0" type="curve"/>
      <point x="507.0" y="25.0"/>
      <point x="507.0" y="4.0"/>
      <point x="502.0" y="-2.0" type="curve"/>
      <point x="477.0" y="-1.0"/>
      <point x="444.0" y="0.0"/>
      <point x="404.0" y="0.0" type="curve" smooth="yes"/>
      <point x="364.0" y="0.0"/>
      <point x="327.0" y="-1.0"/>
      <point x="302.0" y="-2.0" type="curve"/>
      <point x="297.0" y="4.0"/>
      <point x="297.0" y="25.0"/>
      <point x="302.0" y="31.0" type="curve"/>
      <point x="356.0" y="35.0"/>
      <point x="364.0" y="40.0"/>
      <point x="364.0" y="122.0" type="curve" smooth="yes"/>
      <point x="364.0" y="296.0" type="line" smooth="yes"/>
      <point x="364.0" y="363.0"/>
      <point x="336.0" y="387.0"/>
      <point x="298.0" y="387.0" type="curve" smooth="yes"/>
      <point x="267.1" y="387.0"/>
      <point x="229.6" y="366.7"/>
      <point x="190.0" y="328.0" type="curve" smooth="yes"/>
      <point x="182.0" y="319.3"/>
      <point x="173.0" y="307.0"/>
      <point x="173.0" y="286.0" type="curve" smooth="yes"/>
      <point x="173.0" y="122.0" type="line" smooth="yes"/>
      <point x="173.0" y="40.0"/>
      <point x="184.0" y="36.0"/>
      <point x="234.8" y="31.0" type="curve"/>
      <point x="240.8" y="25.0"/>
      <point x="240.8" y="4.0"/>
      <point x="234.8" y="-2.0" type="curve"/>
      <point x="204.8" y="-1.0"/>
      <point x="174.0" y="0.0"/>
      <point x="134.0" y="0.0" type="curve" smooth="yes"/>
      <point x="94.0" y="0.0"/>
      <point x="56.0" y="-1.0"/>
      <point x="26.0" y="-2.0" type="curve"/>
      <point x="20.0" y="4.0"/>
      <point x="20.0" y="25.0"/>
      <point x="26.0" y="31.0" type="curve"/>
      <point x="81.0" y="35.0"/>
      <point x="94.0" y="40.0"/>
      <point x="94.0" y="122.0" type="curve" smooth="yes"/>
      <point x="94.0" y="317.0" type="line" smooth="yes"/>
      <point x="94.0" y="375.0"/>
      <point x="83.0" y="380.0"/>
      <point x="29.0" y="385.0" type="curve"/>
      <point x="27.0" y="391.0"/>
      <point x="25.0" y="407.0"/>
      <point x="27.0" y="413.0" type="curve"/>
      <point x="96.0" y="422.0"/>
      <point x="122.0" y="431.0"/>
      <point x="150.0" y="442.0" type="curve"/>
      <point x="158.0" y="442.0"/>
      <point x="159.9" y="438.6"/>
      <point x="162.0" y="434.0" type="curve" smooth="yes"/>
      <point x="166.7" y="423.7"/>
      <point x="168.7" y="387.7"/>
    </contour>
  </outline>
</glyph>
<glyph name="n" format="2">
  <advance width="542"/>
  <unicode hex="006E"/>
  <anchor x="264.0" y="215.0" name="middle"/>
  <anchor x="136.0" y="9.0" name="cedilla"/>
  <anchor x="265.0" y="-110.0" name="below"/>
  <anchor x="264.0" y="646.0" name="above"/>
  <outline>
    <contour>
      <point x="184.0" y="358.0" type="curve" smooth="yes"/>
      <point x="243.3" y="426.0"/>
      <point x="299.0" y="439.0"/>
      <point x="348.0" y="439.0" type="curve" smooth="yes"/>
      <point x="383.0" y="439.0"/>
      <point x="414.0" y="427.0"/>
      <point x="431.0" y="405.0" type="curve" smooth="yes"/>
      <point x="454.0" y="374.0"/>
      <point x="458.0" y="326.0"/>
      <point x="458.0" y="271.0" type="curve" smooth="yes"/>
      <point x="458.0" y="122.0" type="line" smooth="yes"/>
      <point x="458.0" y="40.0"/>
      <point x="469.0" y="36.0"/>
      <point x="525.0" y="31.0" type="curve"/>
      <point x="530.0" y="25.0"/>
      <point x="530.0" y="4.0"/>
      <point x="525.0" y="-2.0" type="curve"/>
      <point x="495.0" y="-1.0"/>
      <point x="459.0" y="0.0"/>
      <point x="419.0" y="0.0" type="curve" smooth="yes"/>
      <point x="379.0" y="0.0"/>
      <point x="347.0" y="-1.0"/>
      <point x="317.0" y="-2.0" type="curve"/>
      <point x="312.0" y="4.0"/>
      <point x="312.0" y="25.0"/>
      <point x="317.0" y="31.0" type="curve"/>
      <point x="369.0" y="36.0"/>
      <point x="379.0" y="40.0"/>
      <point x="379.0" y="122.0" type="curve" smooth="yes"/>
      <point x="379.0" y="274.0" type="line" smooth="yes"/>
      <point x="379.0" y="304.0"/>
      <point x="377.0" y="331.0"/>
      <point x="367.0" y="351.0" type="curve" smooth="yes"/>
      <point x="355.0" y="374.0"/>
      <point x="334.0" y="387.0"/>
      <point x="314.0" y="387.0" type="curve" smooth="yes"/>
      <point x="275.0" y="387.0"/>
      <point x="230.0" y="365.0"/>
      <point x="192.0" y="328.0" type="curve" smooth="yes"/>
      <point x="184.0" y="319.0"/>
      <point x="175.0" y="307.0"/>
      <point x="175.0" y="286.0" type="curve" smooth="yes"/>
      <point x="175.0" y="122.0" type="line" smooth="yes"/>
      <point x="175.0" y="40.0"/>
      <point x="185.0" y="36.0"/>
      <point x="236.0" y="31.0" type="curve"/>
      <point x="242.0" y="25.0"/>
      <point x="242.0" y="4.0"/>
      <point x="236.0" y="-2.0" type="curve"/>
      <point x="206.0" y="-1.0"/>
      <point x="176.0" y="0.0"/>
      <point x="136.0" y="0.0" type="curve" smooth="yes"/>
      <point x="96.0" y="0.0"/>
      <point x="56.0" y="-1.0"/>
      <point x="26.0" y="-2.0" type="curve"/>
      <point x="20.0" y="4.0"/>
      <point x="20.0" y="25.0"/>
      <point x="26.0" y="31.0" type="curve"/>
      <point x="86.0" y="36.0"/>
      <point x="96.0" y="40.0"/>
      <point x="96.0" y="122.0" type="curve" smooth="yes"/>
      <point x="96.0" y="317.0" type="line" smooth="yes"/>
      <point x="96.0" y="375.0"/>
      <point x="85.0" y="380.0"/>
      <point x="31.0" y="385.0" type="curve"/>
      <point x="29.0" y="391.0"/>
      <point x="27.0" y="407.0"/>
      <point x="29.0" y="413.0" type="curve"/>
      <point x="98.0" y="422.0"/>
      <point x="124.0" y="431.0"/>
      <point x="152.0" y="442.0" type="curve"/>
      <point x="160.0" y="442.0"/>
      <point x="161.9" y="438.6"/>
      <point x="164.0" y="434.0" type="curve" smooth="yes"/>
      <point x="168.7" y="423.7"/>
      <point x="171.0" y="385.0"/>
      <point x="172.0" y="358.0" type="curve" smooth="yes"/>
      <point x="172.3" y="348.6"/>
      <point x="177.9" y="351.0"/>
    </contour>
  </outline>
</glyph>
<glyph name="o" format="2">
  <advance width="504"/>
  <unicode hex="006F"/>
  <anchor x="236.0" y="215.0" name="middle"/>
  <anchor x="420.0" y="396.0" name="komb_OR"/>
  <anchor x="241.0" y="-3.0" name="cedilla"/>
  <anchor x="372.0" y="44.0" name="ogonek"/>
  <anchor x="243.0" y="-110.0" name="below"/>
  <anchor x="238.0" y="645.0" name="above"/>
  <outline>
    <contour>
      <point x="41.0" y="205.0" type="curve" smooth="yes"/>
      <point x="41.0" y="268.2"/>
      <point x="60.0" y="326.4"/>
      <point x="96.3" y="369.0" type="curve" smooth="yes"/>
      <point x="132.9" y="412.0"/>
      <point x="187.2" y="439.0"/>
      <point x="253.0" y="439.0" type="curve" smooth="yes"/>
      <point x="406.0" y="439.0"/>
      <point x="463.0" y="318.0"/>
      <point x="463.0" y="214.0" type="curve" smooth="yes"/>
      <point x="463.0" y="152.7"/>
      <point x="442.7" y="89.8"/>
      <point x="397.9" y="46.0" type="curve" smooth="yes"/>
      <point x="363.8" y="12.7"/>
      <point x="315.4" y="-10.0"/>
      <point x="251.0" y="-10.0" type="curve" smooth="yes"/>
      <point x="109.0" y="-10.0"/>
      <point x="41.0" y="103.0"/>
    </contour>
    <contour>
      <point x="238.0" y="404.0" type="curve" smooth="yes"/>
      <point x="148.0" y="404.0"/>
      <point x="127.0" y="315.0"/>
      <point x="127.0" y="228.0" type="curve" smooth="yes"/>
      <point x="127.0" y="151.0"/>
      <point x="161.0" y="25.0"/>
      <point x="265.0" y="25.0" type="curve" smooth="yes"/>
      <point x="312.0" y="25.0"/>
      <point x="377.0" y="56.0"/>
      <point x="377.0" y="182.0" type="curve" smooth="yes"/>
      <point x="377.0" y="326.0"/>
      <point x="324.0" y="404.0"/>
    </contour>
  </outline>
</glyph>
<glyph name="p" format="2">
  <advance width="519"/>
  <unicode hex="0070"/>
  <anchor x="271" y="646" name="above"/>
  <anchor x="179" y="-319" name="below"/>
  <anchor x="246" y="215" name="middle"/>
  <anchor x="429" y="580" name="right"/>
  <outline>
    <contour>
      <point x="175" y="331" type="curve" smooth="yes"/>
      <point x="163" y="317"/>
      <point x="159" y="308"/>
      <point x="159" y="287" type="curve" smooth="yes"/>
      <point x="159" y="105" type="line" smooth="yes"/>
      <point x="159" y="69"/>
      <point x="163" y="63"/>
      <point x="183" y="45" type="curve" smooth="yes"/>
      <point x="201" y="29"/>
      <point x="236" y="24"/>
      <point x="254" y="24" type="curve" smooth="yes"/>
      <point x="366" y="24"/>
      <point x="395" y="126"/>
      <point x="395" y="208" type="curve" smooth="yes"/>
      <point x="395" y="321"/>
      <point x="340" y="393"/>
      <point x="276" y="393" type="curve" smooth="yes"/>
      <point x="247" y="393"/>
      <point x="201" y="363"/>
    </contour>
    <contour>
      <point x="156" y="368" type="curve" smooth="yes"/>
      <point x="156" y="358"/>
      <point x="161" y="358"/>
      <point x="167" y="364" type="curve" smooth="yes"/>
      <point x="206" y="408"/>
      <point x="258" y="439"/>
      <point x="304" y="439" type="curve" smooth="yes"/>
      <point x="406" y="439"/>
      <point x="481" y="341"/>
      <point x="481" y="235" type="curve" smooth="yes"/>
      <point x="481" y="154"/>
      <point x="454" y="92"/>
      <point x="407" y="46" type="curve" smooth="yes"/>
      <point x="366" y="7"/>
      <point x="316" y="-10"/>
      <point x="260" y="-10" type="curve" smooth="yes"/>
      <point x="228" y="-10"/>
      <point x="198" y="-4"/>
      <point x="173" y="6" type="curve" smooth="yes"/>
      <point x="163" y="10"/>
      <point x="159" y="11"/>
      <point x="159" y="-2" type="curve" smooth="yes"/>
      <point x="159" y="-110" type="line" smooth="yes"/>
      <point x="159" y="-193"/>
      <point x="170" y="-197"/>
      <point x="241" y="-201" type="curve"/>
      <point x="247" y="-207"/>
      <point x="247" y="-228"/>
      <point x="241" y="-234" type="curve"/>
      <point x="208" y="-233"/>
      <point x="160" y="-232"/>
      <point x="120" y="-232" type="curve" smooth="yes"/>
      <point x="80" y="-232"/>
      <point x="43" y="-233"/>
      <point x="8" y="-234" type="curve"/>
      <point x="2" y="-228"/>
      <point x="2" y="-207"/>
      <point x="8" y="-201" type="curve"/>
      <point x="69" y="-198"/>
      <point x="80" y="-193"/>
      <point x="80" y="-110" type="curve" smooth="yes"/>
      <point x="80" y="317" type="line" smooth="yes"/>
      <point x="80" y="375"/>
      <point x="69" y="380"/>
      <point x="15" y="385" type="curve"/>
      <point x="13" y="391"/>
      <point x="11" y="407"/>
      <point x="13" y="413" type="curve"/>
      <point x="82" y="422"/>
      <point x="108" y="431"/>
      <point x="136" y="442" type="curve"/>
      <point x="144" y="442"/>
      <point x="146" y="439"/>
      <point x="148" y="434" type="curve" smooth="yes"/>
      <point x="153" y="424"/>
      <point x="154" y="398"/>
    </contour>
  </outline>
</glyph>
<glyph name="q" format="2">
  <advance width="503"/>
  <unicode hex="0071"/>
  <anchor x="236.0" y="215.0" name="middle"/>
  <anchor x="469.0" y="732.0" name="right"/>
  <anchor x="348.0" y="-319.0" name="below"/>
  <anchor x="238.0" y="645.0" name="above"/>
  <outline>
    <contour>
      <point x="322.0" y="368.4" type="curve" smooth="yes"/>
      <point x="300.1" y="392.9"/>
      <point x="273.4" y="405.0"/>
      <point x="243.0" y="405.0" type="curve" smooth="yes"/>
      <point x="163.0" y="405.0"/>
      <point x="121.0" y="331.0"/>
      <point x="121.0" y="227.0" type="curve" smooth="yes"/>
      <point x="121.0" y="76.0"/>
      <point x="208.0" y="34.0"/>
      <point x="266.0" y="34.0" type="curve" smooth="yes"/>
      <point x="281.8" y="34.0"/>
      <point x="308.6" y="35.1"/>
      <point x="332.0" y="47.2" type="curve" smooth="yes"/>
      <point x="345.0" y="54.0"/>
      <point x="346.0" y="59.0"/>
      <point x="346.0" y="77.0" type="curve" smooth="yes"/>
      <point x="346.0" y="307.0" type="line" smooth="yes"/>
      <point x="346.0" y="331.1"/>
      <point x="342.0" y="346.0"/>
    </contour>
    <contour>
      <point x="346.0" y="-111.0" type="curve" smooth="yes"/>
      <point x="346.0" y="0.0" type="line" smooth="yes"/>
      <point x="346.0" y="21.0"/>
      <point x="342.0" y="19.0"/>
      <point x="319.0" y="5.6" type="curve" smooth="yes"/>
      <point x="301.9" y="-4.4"/>
      <point x="269.0" y="-10.0"/>
      <point x="242.0" y="-10.0" type="curve" smooth="yes"/>
      <point x="98.0" y="-10.0"/>
      <point x="35.0" y="114.0"/>
      <point x="35.0" y="207.0" type="curve" smooth="yes"/>
      <point x="35.0" y="339.0"/>
      <point x="125.0" y="439.0"/>
      <point x="247.0" y="439.0" type="curve" smooth="yes"/>
      <point x="289.4" y="439.0"/>
      <point x="328.4" y="430.3"/>
      <point x="360.0" y="409.8" type="curve" smooth="yes"/>
      <point x="372.0" y="402.0"/>
      <point x="376.0" y="405.0"/>
      <point x="389.0" y="423.0" type="curve" smooth="yes"/>
      <point x="397.1" y="434.3"/>
      <point x="403.0" y="442.0"/>
      <point x="410.0" y="442.0" type="curve" smooth="yes"/>
      <point x="421.0" y="442.0"/>
      <point x="425.0" y="431.0"/>
      <point x="425.0" y="417.0" type="curve" smooth="yes"/>
      <point x="425.0" y="-111.0" type="line" smooth="yes"/>
      <point x="425.0" y="-194.0"/>
      <point x="436.0" y="-198.0"/>
      <point x="497.0" y="-201.0" type="curve"/>
      <point x="503.0" y="-207.0"/>
      <point x="503.0" y="-228.0"/>
      <point x="497.0" y="-234.0" type="curve"/>
      <point x="464.0" y="-233.0"/>
      <point x="426.0" y="-232.0"/>
      <point x="386.0" y="-232.0" type="curve" smooth="yes"/>
      <point x="346.0" y="-232.0"/>
      <point x="309.0" y="-233.0"/>
      <point x="274.0" y="-234.0" type="curve"/>
      <point x="268.0" y="-228.0"/>
      <point x="268.0" y="-207.0"/>
      <point x="274.0" y="-201.0" type="curve"/>
      <point x="335.0" y="-198.0"/>
      <point x="346.0" y="-194.0"/>
    </contour>
  </outline>
</glyph>
<glyph name="r" format="2">
  <advance width="372"/>
  <unicode hex="0072"/>
  <anchor x="136.0" y="185.0" name="middle"/>
  <anchor x="349.0" y="580.0" name="right"/>
  <anchor x="134.0" y="7.0" name="cedilla"/>
  <anchor x="191.0" y="646.0" name="above"/>
  <anchor x="135.0" y="-110.0" name="below"/>
  <outline>
    <contour>
      <point x="176.0" y="358.0" type="curve" smooth="yes"/>
      <point x="176.2" y="353.0"/>
      <point x="181.0" y="345.0"/>
      <point x="187.0" y="356.0" type="curve" smooth="yes"/>
      <point x="210.0" y="395.0"/>
      <point x="251.0" y="439.0"/>
      <point x="298.0" y="439.0" type="curve" smooth="yes"/>
      <point x="340.0" y="439.0"/>
      <point x="358.0" y="410.1"/>
      <point x="358.0" y="391.0" type="curve" smooth="yes"/>
      <point x="358.0" y="366.0"/>
      <point x="335.0" y="341.0"/>
      <point x="311.0" y="341.0" type="curve" smooth="yes"/>
      <point x="293.6" y="341.0"/>
      <point x="282.4" y="354.3"/>
      <point x="274.8" y="364.3" type="curve" smooth="yes"/>
      <point x="267.0" y="374.6"/>
      <point x="258.0" y="377.0"/>
      <point x="249.0" y="377.0" type="curve" smooth="yes"/>
      <point x="237.0" y="377.0"/>
      <point x="214.0" y="344.0"/>
      <point x="203.0" y="328.0" type="curve" smooth="yes"/>
      <point x="191.0" y="310.0"/>
      <point x="179.0" y="287.0"/>
      <point x="179.0" y="261.0" type="curve" smooth="yes"/>
      <point x="179.0" y="122.0" type="line" smooth="yes"/>
      <point x="179.0" y="39.0"/>
      <point x="191.0" y="36.0"/>
      <point x="261.0" y="31.0" type="curve"/>
      <point x="267.0" y="25.0"/>
      <point x="267.0" y="4.0"/>
      <point x="261.0" y="-2.0" type="curve"/>
      <point x="226.0" y="-1.0"/>
      <point x="180.0" y="0.0"/>
      <point x="140.0" y="0.0" type="curve" smooth="yes"/>
      <point x="100.0" y="0.0"/>
      <point x="61.0" y="-1.0"/>
      <point x="26.0" y="-2.0" type="curve"/>
      <point x="20.0" y="4.0"/>
      <point x="20.0" y="25.0"/>
      <point x="26.0" y="31.0" type="curve"/>
      <point x="88.0" y="35.0"/>
      <point x="100.0" y="39.0"/>
      <point x="100.0" y="122.0" type="curve" smooth="yes"/>
      <point x="100.0" y="317.0" type="line" smooth="yes"/>
      <point x="100.0" y="375.0"/>
      <point x="89.0" y="380.0"/>
      <point x="35.0" y="385.0" type="curve"/>
      <point x="33.0" y="391.0"/>
      <point x="31.0" y="407.0"/>
      <point x="33.0" y="413.0" type="curve"/>
      <point x="102.0" y="422.0"/>
      <point x="128.0" y="431.0"/>
      <point x="156.0" y="442.0" type="curve"/>
      <point x="164.0" y="442.0"/>
      <point x="165.9" y="438.6"/>
      <point x="168.0" y="434.0" type="curve" smooth="yes"/>
      <point x="172.7" y="423.7"/>
      <point x="174.3" y="398.0"/>
    </contour>
  </outline>
</glyph>
<glyph name="s" format="2">
  <advance width="390"/>
  <unicode hex="0073"/>
  <anchor x="366.0" y="580.0" name="right"/>
  <anchor x="290.0" y="13.0" name="ogonek"/>
  <anchor x="206.0" y="645.0" name="above"/>
  <anchor x="194.0" y="1.0" name="cedilla"/>
  <anchor x="196.0" y="-110.0" name="below"/>
  <outline>
    <contour>
      <point x="48.0" y="138.0" type="curve"/>
      <point x="54.0" y="144.0"/>
      <point x="73.0" y="145.0"/>
      <point x="79.0" y="139.0" type="curve"/>
      <point x="85.0" y="114.0"/>
      <point x="96.0" y="70.0"/>
      <point x="118.0" y="47.0" type="curve" smooth="yes"/>
      <point x="128.3" y="36.3"/>
      <point x="150.0" y="23.0"/>
      <point x="189.0" y="23.0" type="curve" smooth="yes"/>
      <point x="226.0" y="23.0"/>
      <point x="274.0" y="44.0"/>
      <point x="274.0" y="93.0" type="curve" smooth="yes"/>
      <point x="274.0" y="136.0"/>
      <point x="255.0" y="157.0"/>
      <point x="172.0" y="191.0" type="curve" smooth="yes"/>
      <point x="95.0" y="223.0"/>
      <point x="62.0" y="254.0"/>
      <point x="62.0" y="327.0" type="curve" smooth="yes"/>
      <point x="62.0" y="391.0"/>
      <point x="129.0" y="439.0"/>
      <point x="203.0" y="439.0" type="curve" smooth="yes"/>
      <point x="255.0" y="439.0"/>
      <point x="303.0" y="425.0"/>
      <point x="334.0" y="420.0" type="curve"/>
      <point x="333.0" y="387.0"/>
      <point x="331.0" y="350.0"/>
      <point x="328.0" y="314.0" type="curve"/>
      <point x="322.0" y="308.0"/>
      <point x="302.0" y="307.0"/>
      <point x="296.0" y="313.0" type="curve"/>
      <point x="283.0" y="398.0"/>
      <point x="225.0" y="406.0"/>
      <point x="203.0" y="406.0" type="curve" smooth="yes"/>
      <point x="169.0" y="406.0"/>
      <point x="133.0" y="383.0"/>
      <point x="133.0" y="342.0" type="curve" smooth="yes"/>
      <point x="133.0" y="287.0"/>
      <point x="172.8" y="271.5"/>
      <point x="233.0" y="249.2" type="curve" smooth="yes"/>
      <point x="301.0" y="224.0"/>
      <point x="350.0" y="184.3"/>
      <point x="350.0" y="116.0" type="curve" smooth="yes"/>
      <point x="350.0" y="17.0"/>
      <point x="247.0" y="-10.0"/>
      <point x="191.0" y="-10.0" type="curve" smooth="yes"/>
      <point x="154.0" y="-10.0"/>
      <point x="127.0" y="-6.0"/>
      <point x="100.0" y="1.0" type="curve" smooth="yes"/>
      <point x="93.0" y="3.0"/>
      <point x="87.0" y="3.0"/>
      <point x="80.0" y="3.0" type="curve" smooth="yes"/>
      <point x="75.0" y="3.0"/>
      <point x="65.0" y="2.0"/>
      <point x="55.0" y="0.0" type="curve"/>
      <point x="55.0" y="42.0"/>
      <point x="52.0" y="89.0"/>
    </contour>
  </outline>
</glyph>
<glyph name="v" format="2">
  <advance width="497"/>
  <unicode hex="0076"/>
  <anchor x="247.0" y="267.0" name="middle"/>
  <anchor x="460.0" y="580.0" name="right"/>
  <anchor x="256.0" y="646.0" name="above"/>
  <anchor x="241.0" y="-110.0" name="below"/>
  <outline>
    <contour>
      <point x="325.0" y="398.0" type="curve"/>
      <point x="319.0" y="404.0"/>
      <point x="319.0" y="425.0"/>
      <point x="325.0" y="431.0" type="curve"/>
      <point x="350.0" y="430.0"/>
      <point x="384.0" y="429.0"/>
      <point x="417.0" y="429.0" type="curve" smooth="yes"/>
      <point x="443.0" y="429.0"/>
      <point x="467.0" y="430.0"/>
      <point x="487.0" y="431.0" type="curve"/>
      <point x="493.0" y="425.0"/>
      <point x="493.0" y="404.0"/>
      <point x="487.0" y="398.0" type="curve"/>
      <point x="431.0" y="393.0"/>
      <point x="420.1" y="367.9"/>
      <point x="401.4" y="324.0" type="curve" smooth="yes"/>
      <point x="268.0" y="11.0" type="line" smooth="yes"/>
      <point x="260.9" y="-5.6"/>
      <point x="254.0" y="-12.0"/>
      <point x="244.0" y="-12.0" type="curve" smooth="yes"/>
      <point x="231.0" y="-12.0"/>
      <point x="225.0" y="-6.0"/>
      <point x="219.0" y="9.0" type="curve" smooth="yes"/>
      <point x="91.4" y="325.0" type="line" smooth="yes"/>
      <point x="71.0" y="375.6"/>
      <point x="64.0" y="391.7"/>
      <point x="11.0" y="398.0" type="curve"/>
      <point x="5.0" y="404.0"/>
      <point x="5.0" y="425.0"/>
      <point x="11.0" y="431.0" type="curve"/>
      <point x="41.0" y="430.0"/>
      <point x="71.0" y="429.0"/>
      <point x="104.0" y="429.0" type="curve" smooth="yes"/>
      <point x="137.0" y="429.0"/>
      <point x="172.0" y="430.0"/>
      <point x="205.0" y="431.0" type="curve"/>
      <point x="211.0" y="425.0"/>
      <point x="211.0" y="404.0"/>
      <point x="205.0" y="398.0" type="curve"/>
      <point x="151.7" y="391.0"/>
      <point x="156.0" y="379.0"/>
      <point x="173.9" y="331.0" type="curve" smooth="yes"/>
      <point x="246.0" y="138.0" type="line" smooth="yes"/>
      <point x="261.6" y="96.2"/>
      <point x="266.8" y="95.5"/>
      <point x="283.0" y="135.0" type="curve" smooth="yes"/>
      <point x="363.7" y="331.0" type="line" smooth="yes"/>
      <point x="384.6" y="381.8"/>
      <point x="379.0" y="394.0"/>
    </contour>
  </outline>
</glyph>
<glyph name="x" format="2">
  <advance width="490"/>
  <unicode hex="0078"/>
  <anchor x="237.0" y="215.0" name="middle"/>
  <anchor x="469.0" y="580.0" name="right"/>
  <anchor x="94.0" y="8.0" name="cedilla"/>
  <anchor x="256.0" y="646.0" name="above"/>
  <anchor x="224.0" y="-110.0" name="below"/>
  <outline>
    <contour>
      <point x="182.0" y="358.0" type="curve" smooth="yes"/>
      <point x="243.0" y="268.0" type="line" smooth="yes"/>
      <point x="250.6" y="256.8"/>
      <point x="254.8" y="256.0"/>
      <point x="262.0" y="266.0" type="curve" smooth="yes"/>
      <point x="327.0" y="357.0" type="line" smooth="yes"/>
      <point x="351.2" y="390.9"/>
      <point x="339.7" y="394.0"/>
      <point x="303.0" y="398.0" type="curve"/>
      <point x="297.0" y="404.0"/>
      <point x="297.0" y="425.0"/>
      <point x="303.0" y="431.0" type="curve"/>
      <point x="329.0" y="430.0"/>
      <point x="357.0" y="429.0"/>
      <point x="387.0" y="429.0" type="curve" smooth="yes"/>
      <point x="417.0" y="429.0"/>
      <point x="440.0" y="430.0"/>
      <point x="460.0" y="431.0" type="curve"/>
      <point x="466.0" y="425.0"/>
      <point x="466.0" y="404.0"/>
      <point x="460.0" y="398.0" type="curve"/>
      <point x="423.5" y="395.0"/>
      <point x="400.0" y="390.0"/>
      <point x="363.0" y="343.0" type="curve" smooth="yes"/>
      <point x="279.0" y="236.0" type="line" smooth="yes"/>
      <point x="274.3" y="230.0"/>
      <point x="274.8" y="226.9"/>
      <point x="279.0" y="221.0" type="curve" smooth="yes"/>
      <point x="369.0" y="94.0" type="line" smooth="yes"/>
      <point x="409.3" y="37.1"/>
      <point x="423.7" y="34.0"/>
      <point x="469.0" y="31.0" type="curve"/>
      <point x="475.0" y="25.0"/>
      <point x="475.0" y="4.0"/>
      <point x="469.0" y="-2.0" type="curve"/>
      <point x="445.0" y="-1.0"/>
      <point x="418.0" y="0.0"/>
      <point x="380.0" y="0.0" type="curve" smooth="yes"/>
      <point x="344.0" y="0.0"/>
      <point x="311.0" y="-1.0"/>
      <point x="281.0" y="-2.0" type="curve"/>
      <point x="275.0" y="4.0"/>
      <point x="275.0" y="25.0"/>
      <point x="281.0" y="31.0" type="curve"/>
      <point x="312.7" y="34.3"/>
      <point x="328.8" y="36.1"/>
      <point x="294.0" y="84.0" type="curve" smooth="yes"/>
      <point x="236.0" y="164.0" type="line" smooth="yes"/>
      <point x="229.7" y="172.6"/>
      <point x="226.3" y="173.9"/>
      <point x="218.0" y="162.0" type="curve" smooth="yes"/>
      <point x="155.0" y="71.0" type="line" smooth="yes"/>
      <point x="132.5" y="38.5"/>
      <point x="141.0" y="34.7"/>
      <point x="177.0" y="31.0" type="curve"/>
      <point x="183.0" y="25.0"/>
      <point x="183.0" y="4.0"/>
      <point x="177.0" y="-2.0" type="curve"/>
      <point x="151.0" y="-1.0"/>
      <point x="123.0" y="0.0"/>
      <point x="93.0" y="0.0" type="curve" smooth="yes"/>
      <point x="63.0" y="0.0"/>
      <point x="41.0" y="-1.0"/>
      <point x="21.0" y="-2.0" type="curve"/>
      <point x="15.0" y="4.0"/>
      <point x="15.0" y="25.0"/>
      <point x="21.0" y="31.0" type="curve"/>
      <point x="56.0" y="33.0"/>
      <point x="78.4" y="36.1"/>
      <point x="118.0" y="87.0" type="curve" smooth="yes"/>
      <point x="202.0" y="195.0" type="line" smooth="yes"/>
      <point x="205.6" y="199.6"/>
      <point x="205.9" y="202.8"/>
      <point x="201.0" y="210.0" type="curve" smooth="yes"/>
      <point x="114.0" y="337.0" type="line" smooth="yes"/>
      <point x="86.0" y="378.0"/>
      <point x="58.0" y="395.0"/>
      <point x="24.0" y="398.0" type="curve"/>
      <point x="18.0" y="404.0"/>
      <point x="18.0" y="425.0"/>
      <point x="24.0" y="431.0" type="curve"/>
      <point x="50.0" y="430.0"/>
      <point x="80.0" y="429.0"/>
      <point x="110.0" y="429.0" type="curve" smooth="yes"/>
      <point x="140.0" y="429.0"/>
      <point x="184.0" y="430.0"/>
      <point x="211.0" y="431.0" type="curve"/>
      <point x="217.0" y="425.0"/>
      <point x="217.0" y="404.0"/>
      <point x="211.0" y="398.0" type="curve"/>
      <point x="166.3" y="393.3"/>
      <point x="159.1" y="391.8"/>
    </contour>
  </outline>
</glyph>
<glyph name="y" format="2">
  <advance width="515"/>
  <unicode hex="0079"/>
  <anchor x="262.0" y="645.0" name="above"/>
  <anchor x="242.0" y="-319.0" name="below"/>
  <outline>
    <contour>
      <point x="204.0" y="-160.0" type="curve" smooth="yes"/>
      <point x="168.0" y="-224.0"/>
      <point x="128.0" y="-232.0"/>
      <point x="107.0" y="-232.0" type="curve" smooth="yes"/>
      <point x="80.0" y="-232.0"/>
      <point x="60.0" y="-216.0"/>
      <point x="60.0" y="-195.0" type="curve" smooth="yes"/>
      <point x="60.0" y="-182.0"/>
      <point x="75.0" y="-152.0"/>
      <point x="104.0" y="-152.0" type="curve" smooth="yes"/>
      <point x="115.0" y="-152.0"/>
      <point x="119.0" y="-155.0"/>
      <point x="133.0" y="-155.0" type="curve" smooth="yes"/>
      <point x="158.0" y="-155.0"/>
      <point x="172.0" y="-146.0"/>
      <point x="183.0" y="-126.0" type="curve"/>
      <point x="198.0" y="-95.0"/>
      <point x="210.1" y="-67.4"/>
      <point x="222.0" y="-34.0" type="curve" smooth="yes"/>
      <point x="232.0" y="-6.0"/>
      <point x="216.7" y="39.9"/>
      <point x="208.0" y="60.0" type="curve" smooth="yes"/>
      <point x="94.9" y="323.0" type="line" smooth="yes"/>
      <point x="68.7" y="384.0"/>
      <point x="55.7" y="393.0"/>
      <point x="16.0" y="398.0" type="curve"/>
      <point x="10.0" y="404.0"/>
      <point x="10.0" y="425.0"/>
      <point x="16.0" y="431.0" type="curve"/>
      <point x="36.0" y="430.0"/>
      <point x="63.0" y="429.0"/>
      <point x="97.0" y="429.0" type="curve" smooth="yes"/>
      <point x="133.0" y="429.0"/>
      <point x="173.0" y="430.0"/>
      <point x="210.0" y="431.0" type="curve"/>
      <point x="216.0" y="425.0"/>
      <point x="216.0" y="404.0"/>
      <point x="210.0" y="398.0" type="curve"/>
      <point x="154.0" y="393.7"/>
      <point x="159.2" y="375.2"/>
      <point x="177.2" y="333.0" type="curve" smooth="yes"/>
      <point x="265.9" y="125.0" type="line" smooth="yes"/>
      <point x="274.4" y="105.2"/>
      <point x="282.8" y="107.9"/>
      <point x="289.8" y="124.0" type="curve" smooth="yes"/>
      <point x="389.0" y="353.0" type="line" smooth="yes"/>
      <point x="405.0" y="389.0"/>
      <point x="372.6" y="395.0"/>
      <point x="341.0" y="398.0" type="curve"/>
      <point x="335.0" y="404.0"/>
      <point x="335.0" y="425.0"/>
      <point x="341.0" y="431.0" type="curve"/>
      <point x="371.0" y="430.0"/>
      <point x="402.0" y="429.0"/>
      <point x="432.0" y="429.0" type="curve" smooth="yes"/>
      <point x="460.0" y="429.0"/>
      <point x="483.0" y="430.0"/>
      <point x="503.0" y="431.0" type="curve"/>
      <point x="509.0" y="425.0"/>
      <point x="509.0" y="404.0"/>
      <point x="503.0" y="398.0" type="curve"/>
      <point x="456.0" y="392.3"/>
      <point x="441.7" y="376.3"/>
      <point x="422.0" y="334.0" type="curve" smooth="yes"/>
      <point x="369.8" y="221.6"/>
      <point x="325.0" y="119.0"/>
      <point x="245.0" y="-74.0" type="curve" smooth="yes"/>
      <point x="232.7" y="-103.6"/>
      <point x="219.6" y="-132.2"/>
    </contour>
  </outline>
</glyph>
<glyph name="z" format="2">
  <advance width="424"/>
  <unicode hex="007A"/>
  <anchor x="207.0" y="215.0" name="middle"/>
  <anchor x="399.0" y="580.0" name="right"/>
  <anchor x="220.0" y="646.0" name="above"/>
  <anchor x="208.0" y="4.0" name="cedilla"/>
  <anchor x="207.0" y="-110.0" name="below"/>
  <outline>
    <contour>
      <point x="71.0" y="439.0" type="curve" smooth="yes"/>
      <point x="85.5" y="433.6"/>
      <point x="97.9" y="429.0"/>
      <point x="130.0" y="429.0" type="curve" smooth="yes"/>
      <point x="313.0" y="429.0" type="line" smooth="yes"/>
      <point x="342.0" y="429.0"/>
      <point x="370.0" y="431.0"/>
      <point x="375.0" y="431.0" type="curve" smooth="yes"/>
      <point x="382.0" y="431.0"/>
      <point x="387.0" y="428.0"/>
      <point x="387.0" y="424.0" type="curve" smooth="yes"/>
      <point x="387.0" y="420.0"/>
      <point x="384.3" y="412.2"/>
      <point x="369.0" y="387.0" type="curve" smooth="yes"/>
      <point x="307.0" y="285.0"/>
      <point x="203.0" y="128.0"/>
      <point x="129.0" y="34.0" type="curve"/>
      <point x="262.0" y="34.0" type="line"/>
      <point x="314.1" y="35.2"/>
      <point x="334.5" y="57.2"/>
      <point x="360.0" y="110.0" type="curve" smooth="yes"/>
      <point x="374.0" y="139.0" type="line"/>
      <point x="386.0" y="139.0"/>
      <point x="397.5" y="136.7"/>
      <point x="404.0" y="133.0" type="curve"/>
      <point x="397.0" y="83.0"/>
      <point x="384.0" y="31.0"/>
      <point x="372.0" y="-3.0" type="curve"/>
      <point x="60.0" y="0.0" type="line" smooth="yes"/>
      <point x="45.0" y="0.0"/>
      <point x="37.0" y="5.0"/>
      <point x="37.0" y="12.0" type="curve" smooth="yes"/>
      <point x="37.0" y="17.0"/>
      <point x="37.4" y="20.4"/>
      <point x="46.0" y="32.0" type="curve" smooth="yes"/>
      <point x="124.0" y="137.0"/>
      <point x="224.0" y="281.0"/>
      <point x="292.0" y="395.0" type="curve"/>
      <point x="164.0" y="392.0" type="line" smooth="yes"/>
      <point x="134.0" y="391.3"/>
      <point x="103.0" y="374.0"/>
      <point x="83.0" y="301.0" type="curve"/>
      <point x="71.4" y="298.4"/>
      <point x="58.8" y="300.3"/>
      <point x="50.0" y="304.0" type="curve"/>
      <point x="59.0" y="353.0"/>
      <point x="64.0" y="388.0"/>
      <point x="65.0" y="433.0" type="curve" smooth="yes"/>
      <point x="65.0" y="435.4"/>
      <point x="68.6" y="439.0"/>
    </contour>
  </outline>
</glyph>
<glyph name="braceleft" format="2">
  <advance width="277"/>
  <unicode hex="007B"/>
  <outline>
    <contour>
      <point x="178.0" y="552.0" type="curve" smooth="yes"/>
      <point x="186.0" y="386.0" type="line" smooth="yes"/>
      <point x="190.3" y="297.0"/>
      <point x="148.2" y="268.2"/>
      <point x="81.0" y="249.0" type="curve"/>
      <point x="81.0" y="245.0" type="line"/>
      <point x="148.8" y="216.8"/>
      <point x="190.4" y="177.3"/>
      <point x="186.0" y="95.0" type="curve" smooth="yes"/>
      <point x="178.0" y="-54.0" type="line" smooth="yes"/>
      <point x="173.5" y="-138.0"/>
      <point x="214.0" y="-188.0"/>
      <point x="258.0" y="-188.0" type="curve"/>
      <point x="264.0" y="-194.0"/>
      <point x="264.0" y="-206.0"/>
      <point x="258.0" y="-212.0" type="curve"/>
      <point x="157.0" y="-212.0"/>
      <point x="101.0" y="-179.0"/>
      <point x="106.0" y="-49.0" type="curve" smooth="yes"/>
      <point x="112.0" y="121.0" type="line" smooth="yes"/>
      <point x="114.0" y="182.0"/>
      <point x="87.5" y="226.0"/>
      <point x="14.0" y="235.0" type="curve"/>
      <point x="6.0" y="243.0"/>
      <point x="5.0" y="250.0"/>
      <point x="14.0" y="259.0" type="curve"/>
      <point x="88.0" y="266.0"/>
      <point x="112.0" y="320.0"/>
      <point x="112.0" y="370.0" type="curve"/>
      <point x="106.0" y="554.0" type="line" smooth="yes"/>
      <point x="102.0" y="667.0"/>
      <point x="168.0" y="707.0"/>
      <point x="258.0" y="707.0" type="curve"/>
      <point x="264.0" y="701.0"/>
      <point x="264.0" y="689.0"/>
      <point x="258.0" y="683.0" type="curve"/>
      <point x="220.0" y="672.0"/>
      <point x="173.0" y="654.9"/>
    </contour>
  </outline>
</glyph>
<glyph name="bar" format="2">
  <advance width="205"/>
  <unicode hex="007C"/>
  <outline>
    <contour>
      <point x="125.0" y="-232.0" type="line"/>
      <point x="81.0" y="-232.0" type="line"/>
      <point x="81.0" y="698.0" type="line"/>
      <point x="125.0" y="698.0" type="line"/>
    </contour>
  </outline>
</glyph>
<glyph name="braceright" format="2">
  <advance width="277"/>
  <unicode hex="007D"/>
  <outline>
    <contour>
      <point x="95.0" y="-58.0" type="curve" smooth="yes"/>
      <point x="87.0" y="108.0" type="line" smooth="yes"/>
      <point x="82.7" y="197.0"/>
      <point x="124.8" y="225.8"/>
      <point x="192.0" y="245.0" type="curve"/>
      <point x="192.0" y="249.0" type="line"/>
      <point x="124.2" y="277.2"/>
      <point x="82.6" y="316.7"/>
      <point x="87.0" y="399.0" type="curve" smooth="yes"/>
      <point x="95.0" y="548.0" type="line" smooth="yes"/>
      <point x="99.5" y="632.0"/>
      <point x="59.0" y="682.0"/>
      <point x="15.0" y="682.0" type="curve"/>
      <point x="9.0" y="688.0"/>
      <point x="9.0" y="700.0"/>
      <point x="15.0" y="706.0" type="curve"/>
      <point x="116.0" y="706.0"/>
      <point x="172.0" y="673.0"/>
      <point x="167.0" y="543.0" type="curve" smooth="yes"/>
      <point x="161.0" y="373.0" type="line" smooth="yes"/>
      <point x="159.0" y="312.0"/>
      <point x="185.5" y="268.0"/>
      <point x="259.0" y="259.0" type="curve"/>
      <point x="267.0" y="251.0"/>
      <point x="268.0" y="244.0"/>
      <point x="259.0" y="235.0" type="curve"/>
      <point x="185.0" y="228.0"/>
      <point x="161.0" y="174.0"/>
      <point x="161.0" y="124.0" type="curve"/>
      <point x="167.0" y="-60.0" type="line" smooth="yes"/>
      <point x="171.0" y="-173.0"/>
      <point x="105.0" y="-213.0"/>
      <point x="15.0" y="-213.0" type="curve"/>
      <point x="9.0" y="-207.0"/>
      <point x="9.0" y="-195.0"/>
      <point x="15.0" y="-189.0" type="curve"/>
      <point x="53.0" y="-178.0"/>
      <point x="100.0" y="-160.9"/>
    </contour>
  </outline>
</glyph>
<glyph name="asciitilde" format="2">
  <advance width="449"/>
  <unicode hex="007E"/>
  <outline>
    <contour>
      <point x="26.0" y="209.0" type="curve"/>
      <point x="39.0" y="274.0"/>
      <point x="93.0" y="337.0"/>
      <point x="154.0" y="337.0" type="curve" smooth="yes"/>
      <point x="177.0" y="337.0"/>
      <point x="204.5" y="323.2"/>
      <point x="229.0" y="305.0" type="curve" smooth="yes"/>
      <point x="256.0" y="285.0"/>
      <point x="279.0" y="272.0"/>
      <point x="301.0" y="272.0" type="curve" smooth="yes"/>
      <point x="329.0" y="272.0"/>
      <point x="378.0" y="289.0"/>
      <point x="400.0" y="339.0" type="curve"/>
      <point x="408.0" y="339.0"/>
      <point x="413.7" y="337.1"/>
      <point x="417.0" y="333.0" type="curve"/>
      <point x="386.0" y="226.0"/>
      <point x="321.0" y="213.0"/>
      <point x="297.0" y="213.0" type="curve" smooth="yes"/>
      <point x="274.0" y="213.0"/>
      <point x="245.0" y="228.0"/>
      <point x="221.0" y="246.0" type="curve" smooth="yes"/>
      <point x="196.8" y="264.1"/>
      <point x="173.0" y="278.0"/>
      <point x="148.0" y="278.0" type="curve" smooth="yes"/>
      <point x="113.0" y="278.0"/>
      <point x="66.0" y="249.0"/>
      <point x="43.0" y="205.0" type="curve"/>
      <point x="37.0" y="205.0"/>
      <point x="31.7" y="206.0"/>
    </contour>
  </outline>
</glyph>
<glyph name="exclamdown" format="2">
  <advance width="288"/>
  <unicode hex="00A1"/>
  <outline>
    <contour>
      <point x="144.0" y="-229.0" type="curve" smooth="yes"/>
      <point x="120.0" y="-229.0"/>
      <point x="91.0" y="-210.0"/>
      <point x="91.0" y="-156.0" type="curve" smooth="yes"/>
      <point x="91.0" y="-91.0"/>
      <point x="105.0" y="-49.0"/>
      <point x="115.0" y="37.0" type="curve" smooth="yes"/>
      <point x="128.0" y="145.0"/>
      <point x="128.0" y="205.0"/>
      <point x="130.0" y="219.0" type="curve" smooth="yes"/>
      <point x="131.0" y="230.0"/>
      <point x="134.0" y="239.0"/>
      <point x="144.0" y="239.0" type="curve" smooth="yes"/>
      <point x="154.0" y="239.0"/>
      <point x="157.0" y="232.0"/>
      <point x="158.0" y="226.0" type="curve" smooth="yes"/>
      <point x="160.0" y="205.0"/>
      <point x="166.0" y="115.0"/>
      <point x="174.0" y="37.0" type="curve" smooth="yes"/>
      <point x="183.0" y="-51.0"/>
      <point x="197.0" y="-86.0"/>
      <point x="197.0" y="-156.0" type="curve" smooth="yes"/>
      <point x="197.0" y="-210.0"/>
      <point x="168.0" y="-229.0"/>
    </contour>
    <component base="period" xOffset="34.0" yOffset="343.0"/>
  </outline>
</glyph>
<glyph name="cent" format="2">
  <advance width="465"/>
  <unicode hex="00A2"/>
  <outline>
    <contour>
      <point x="232.0" y="611.0" type="line"/>
      <point x="268.0" y="611.0" type="line"/>
      <point x="268.0" y="514.4" type="line"/>
      <point x="356.9" y="513.3"/>
      <point x="409.5" y="475.6"/>
      <point x="409.5" y="424.1" type="curve" smooth="yes"/>
      <point x="409.5" y="394.6"/>
      <point x="383.0" y="382.2"/>
      <point x="363.0" y="382.2" type="curve" smooth="yes"/>
      <point x="343.0" y="382.2"/>
      <point x="329.7" y="390.8"/>
      <point x="326.8" y="416.5" type="curve" smooth="yes"/>
      <point x="323.2" y="448.0"/>
      <point x="316.2" y="479.4"/>
      <point x="268.0" y="482.7" type="curve"/>
      <point x="268.0" y="134.6" type="line"/>
      <point x="271.4" y="134.3"/>
      <point x="274.8" y="134.1"/>
      <point x="278.3" y="134.1" type="curve" smooth="yes"/>
      <point x="319.2" y="134.1"/>
      <point x="360.1" y="155.0"/>
      <point x="392.4" y="196.8" type="curve"/>
      <point x="401.0" y="195.8"/>
      <point x="408.6" y="192.1"/>
      <point x="412.4" y="183.5" type="curve"/>
      <point x="367.8" y="110.4"/>
      <point x="320.7" y="90.0"/>
      <point x="268.0" y="87.7" type="curve"/>
      <point x="268.0" y="-13.0" type="line"/>
      <point x="232.0" y="-13.0" type="line"/>
      <point x="232.0" y="88.8" type="line"/>
      <point x="128.0" y="100.0"/>
      <point x="69.2" y="181.1"/>
      <point x="69.2" y="294.8" type="curve" smooth="yes"/>
      <point x="69.2" y="414.5"/>
      <point x="148.4" y="494.6"/>
      <point x="232.0" y="511.2" type="curve"/>
    </contour>
    <contour>
      <point x="232.0" y="145.3" type="curve"/>
      <point x="232.0" y="478.7" type="line"/>
      <point x="183.8" y="462.9"/>
      <point x="151.0" y="404.4"/>
      <point x="151.0" y="315.7" type="curve" smooth="yes"/>
      <point x="151.0" y="230.5"/>
      <point x="184.9" y="169.3"/>
    </contour>
  </outline>
</glyph>
<glyph name="sterling" format="2">
  <advance width="465"/>
  <unicode hex="00A3"/>
  <outline>
    <contour>
      <point x="74.0" y="300.0" type="line" smooth="yes"/>
      <point x="69.0" y="300.0"/>
      <point x="68.0" y="302.0"/>
      <point x="68.0" y="307.0" type="curve" smooth="yes"/>
      <point x="68.0" y="318.0" type="line" smooth="yes"/>
      <point x="68.0" y="326.0"/>
      <point x="74.0" y="339.0"/>
      <point x="92.0" y="339.0" type="curve" smooth="yes"/>
      <point x="137.0" y="339.0" type="line"/>
      <point x="137.0" y="359.0" type="line" smooth="yes"/>
      <point x="137.0" y="444.0"/>
      <point x="164.0" y="498.0"/>
      <point x="219.0" y="552.0" type="curve"/>
      <point x="254.0" y="588.0"/>
      <point x="299.0" y="611.0"/>
      <point x="352.0" y="611.0" type="curve" smooth="yes"/>
      <point x="375.0" y="611.0"/>
      <point x="432.0" y="598.0"/>
      <point x="432.0" y="562.0" type="curve" smooth="yes"/>
      <point x="432.0" y="537.0"/>
      <point x="415.0" y="521.0"/>
      <point x="391.0" y="521.0" type="curve" smooth="yes"/>
      <point x="376.0" y="521.0"/>
      <point x="367.0" y="529.0"/>
      <point x="355.0" y="540.0" type="curve" smooth="yes"/>
      <point x="342.0" y="552.0"/>
      <point x="327.0" y="563.0"/>
      <point x="305.0" y="563.0" type="curve" smooth="yes"/>
      <point x="259.0" y="563.0"/>
      <point x="222.0" y="497.0"/>
      <point x="222.0" y="410.0" type="curve" smooth="yes"/>
      <point x="222.0" y="339.0" type="line"/>
      <point x="346.0" y="339.0" type="line" smooth="yes"/>
      <point x="351.0" y="339.0"/>
      <point x="354.0" y="337.0"/>
      <point x="354.0" y="333.0" type="curve" smooth="yes"/>
      <point x="354.0" y="313.0" type="line" smooth="yes"/>
      <point x="354.0" y="305.0"/>
      <point x="341.0" y="300.0"/>
      <point x="330.0" y="300.0" type="curve" smooth="yes"/>
      <point x="222.0" y="300.0" type="line"/>
      <point x="221.0" y="181.0"/>
      <point x="181.0" y="123.0"/>
      <point x="147.0" y="91.0" type="curve"/>
      <point x="271.0" y="91.0"/>
      <point x="260.0" y="44.0"/>
      <point x="329.0" y="44.0" type="curve" smooth="yes"/>
      <point x="359.0" y="44.0"/>
      <point x="406.0" y="52.0"/>
      <point x="432.0" y="88.0" type="curve"/>
      <point x="440.0" y="87.0"/>
      <point x="446.0" y="84.0"/>
      <point x="450.0" y="77.0" type="curve"/>
      <point x="426.0" y="25.0"/>
      <point x="376.0" y="-11.0"/>
      <point x="311.0" y="-11.0" type="curve" smooth="yes"/>
      <point x="221.0" y="-11.0"/>
      <point x="220.0" y="49.0"/>
      <point x="132.0" y="49.0" type="curve" smooth="yes"/>
      <point x="97.0" y="49.0"/>
      <point x="92.0" y="35.0"/>
      <point x="92.0" y="24.0" type="curve" smooth="yes"/>
      <point x="92.0" y="1.0"/>
      <point x="74.0" y="-11.0"/>
      <point x="52.0" y="-11.0" type="curve" smooth="yes"/>
      <point x="33.0" y="-11.0"/>
      <point x="16.0" y="1.0"/>
      <point x="16.0" y="17.0" type="curve" smooth="yes"/>
      <point x="16.0" y="36.0"/>
      <point x="40.0" y="52.0"/>
      <point x="67.0" y="67.0" type="curve"/>
      <point x="126.0" y="110.0"/>
      <point x="137.0" y="190.0"/>
      <point x="137.0" y="281.0" type="curve" smooth="yes"/>
      <point x="137.0" y="300.0" type="line"/>
    </contour>
  </outline>
</glyph>
